<svg width="604" height="675" viewBox="0 0 604 675" fill="none" xmlns="http://www.w3.org/2000/svg">
<path d="M413.672 10.2783C427.768 8.78775 443.346 13.3489 454.562 22.1387L455.092 22.5605C463.314 29.2306 469.537 38.0433 473.068 48.0254L473.088 48.0801C475.763 55.5045 478.75 67.9196 481.102 76.8174V76.8184L494.924 129.628V129.629L538.819 298.066L538.839 298.143C552.523 348.995 565.918 399.93 579.022 450.935V450.936C580.632 457.226 582.367 463.463 584.064 469.582C585.772 475.734 587.444 481.774 588.982 487.84L588.983 487.842C592.143 500.291 594.461 507.572 593.496 517.595L593.392 518.574C590.824 540.806 576.386 560.552 555.861 568.809C548.971 571.578 541.347 573.355 533.106 575.418L529.544 576.322L487.634 587.107L487.597 587.117L329.066 628.562L329.058 628.564L329.048 628.566L243.474 651.111L243.438 651.121L243.4 651.131C232.942 653.971 222.46 656.722 211.955 659.377L211.945 659.379L211.936 659.382C204.223 661.348 197.104 663.354 190.661 664.008L190.546 664.02L190.431 664.034C190.45 664.032 190.451 664.032 190.421 664.035C190.417 664.036 190.414 664.035 190.41 664.035C174.75 665.051 159.295 660.019 147.232 649.979C139.329 643.298 132.338 633.344 129.408 623.98C124.271 607.56 120.805 591.008 116.201 573.505L115.265 569.991L74.2598 412.118L74.2539 412.093L30.3818 244.956L30.3799 244.949L17.5625 196.258L17.5615 196.252L16.4863 192.243C13.8791 182.624 10.7308 171.424 10.1875 164.321L10.1865 164.308L10.1855 164.293L10.1318 163.557C9.09876 148.1 14.1798 132.844 24.2969 121.087C36.8064 106.658 50.2338 104.227 71.8857 98.5791L71.8867 98.5801L121.316 85.8926L121.337 85.8877L121.356 85.8828L277.008 45.2402L277.009 45.2412C312.708 35.9872 347.799 26.3848 383.284 17.3408L390.387 15.54C399.995 13.116 405.791 10.8502 413.337 10.3086L413.505 10.2969L413.672 10.2783Z" fill="#77AE8E" stroke="#59866B" stroke-width="20"/>
<path d="M408.581 145.266C417.906 143.972 427.301 150.385 429.866 159.301C431.401 164.745 430.596 170.585 427.636 175.408C422.501 183.843 412.341 185.13 403.566 187.55C397.321 189.271 390.976 190.823 384.701 192.453L323.341 208.468L126.99 259.728C117.246 260.006 109.326 257.01 105.465 247.379C103.472 242.408 103.532 236.85 105.633 231.923C107.025 228.681 110.657 223.755 114.014 222.638C128.193 217.916 143.683 214.297 158.214 210.495L240.918 188.847L346.211 161.31L383.386 151.679C391.001 149.675 401.001 146.717 408.581 145.266Z" fill="#59866B"/>
<path d="M411.601 258.343C440.101 255.521 465.461 276.411 468.151 304.924C470.841 333.437 449.831 358.702 421.306 361.257C392.966 363.797 367.906 342.957 365.236 314.631C362.561 286.306 383.286 261.147 411.601 258.343Z" fill="#59866B"/>
<path d="M432.886 281.778C440.086 280.646 442.366 282.623 444.851 289.245C442.646 297.32 435.756 305.985 431.646 313.486C428.251 319.342 424.821 325.14 421.191 330.837C414.676 341.062 404.511 331.772 397.331 327.139C394.321 324.672 388.186 323.208 386.806 318.9C385.616 315.194 387.236 308.554 391.636 307.671C397.961 306.401 405.751 312.673 410.916 315.893C415.546 307.906 426.646 286.812 432.886 281.778Z" fill="#77AE8E"/>
<path d="M357.301 445.737C367.036 445.302 375.996 451.117 378.286 460.822C379.631 466.377 378.581 472.242 375.386 476.982C369.641 485.522 352.636 488.127 342.891 490.627C330.851 493.687 318.826 496.832 306.826 500.052L234.316 519.042C222.262 522.157 208.338 526.197 196.307 528.642C191.176 528.877 187.352 528.522 182.811 525.637C178.213 522.672 175.009 517.977 173.931 512.612C172.879 507.482 173.972 502.142 176.957 497.837C179.862 493.582 182.746 491.922 187.494 490.302C196.098 487.362 205.643 485.157 214.478 482.862L263.252 470.182L324.331 454.277C334.091 451.717 347.666 447.542 357.301 445.737Z" fill="#59866B"/>
<path d="M321.336 311.723C332.041 311.002 340.391 317.391 343.071 327.778C344.976 335.182 339.556 346.742 332.206 349.337C322.641 352.717 312.281 355.107 302.371 357.677L252.562 370.677L194.242 385.927C185.005 388.342 170.7 392.577 161.662 394.072C150.225 394.662 142.113 390.482 139.36 379.127C137.367 370.907 141.597 360.257 149.478 357.002C156.409 354.142 165.065 352.327 172.275 350.452L211.446 340.232L282.421 321.662C294.571 318.491 309.256 314.257 321.336 311.723Z" fill="#59866B"/>
</svg>
