<svg width="578" height="586" viewBox="0 0 578 586" fill="none" xmlns="http://www.w3.org/2000/svg">
<path d="M57.9766 11.017C98.6858 10.5066 140.781 11.1443 181.301 11.1302L221.57 10.9564H221.618C228.004 10.9598 235.728 10.8952 242.785 11.4799H242.787C244.82 11.6486 246.777 12.2615 248.105 12.7328C249.611 13.2669 251.162 13.9333 252.603 14.6254C255.125 15.8372 258.605 17.7455 260.86 19.8578L260.859 19.8588C265.76 24.4483 269.07 29.3168 271.028 34.974C272.908 40.4059 273.319 45.9568 273.399 51.3851L273.44 54.5414C273.624 70.3188 273.444 86.0343 273.409 101.542L273.436 180.316L273.507 219.817C273.51 221.285 273.553 222.923 273.603 224.779C273.651 226.59 273.707 228.589 273.723 230.591C273.754 234.47 273.655 239.042 272.871 243.126L272.87 243.127C270.25 256.776 263.447 265.518 253.408 270.019C244.535 273.997 234.187 274.063 225.927 273.974L99.9053 273.975L63.6846 273.985L63.6836 273.984C60.5476 273.985 58.0719 273.972 55.0195 273.975H54.9385C45.8371 273.911 32.2691 274.859 21.1602 263.435V263.434C16.3406 258.477 13.4132 253.398 11.8809 247.653C10.4544 242.304 10.3916 236.832 10.3887 231.808C10.3642 189.628 10.4636 147.149 10.4521 105.011V105.01L10.4434 65.6019V65.597C10.4448 60.2036 9.95445 52.0148 10.8027 44.7777C11.7104 37.0344 14.2437 28.4614 21.2949 21.3646L21.8486 20.8197C33.5453 9.58481 49.2402 11.082 57.9766 11.016V11.017Z" fill="#715D77" stroke="#5A3B51" stroke-width="20" stroke-linejoin="bevel"/>
<path d="M348.703 309.965C389.412 309.455 431.507 310.093 472.027 310.079L512.296 309.905H512.344C518.73 309.908 526.454 309.844 533.511 310.428H533.513C535.546 310.597 537.503 311.21 538.831 311.681C540.337 312.215 541.888 312.882 543.328 313.574C545.851 314.786 549.331 316.694 551.586 318.806L551.585 318.807C556.486 323.397 559.796 328.265 561.754 333.922C563.634 339.354 564.045 344.905 564.125 350.333L564.166 353.49C564.35 369.267 564.17 384.983 564.135 400.491L564.161 479.264L564.233 518.765C564.236 520.233 564.279 521.871 564.328 523.727C564.377 525.538 564.433 527.538 564.449 529.54C564.48 533.418 564.381 537.991 563.597 542.075L563.596 542.076C560.976 555.724 554.173 564.466 544.134 568.967C535.26 572.945 524.913 573.011 516.653 572.922L390.631 572.923L354.411 572.933L354.41 572.932C351.274 572.934 348.798 572.92 345.745 572.923H345.664C336.563 572.859 322.995 573.807 311.886 562.383V562.382C307.067 557.425 304.139 552.346 302.607 546.601C301.18 541.253 301.118 535.78 301.115 530.756C301.09 488.576 301.19 446.098 301.178 403.959V403.958L301.169 364.55V364.545C301.171 359.152 300.68 350.963 301.529 343.726C302.436 335.983 304.97 327.41 312.021 320.313L312.575 319.768C324.271 308.533 339.966 310.03 348.703 309.964V309.965Z" fill="#715D77" stroke="#5A3B51" stroke-width="20"/>
<path d="M180.048 46.3666C201.19 46.3041 223.658 42.9916 234.314 65.8721C235.773 68.9791 236.748 72.2916 237.205 75.6941C237.949 81.2881 238.254 108.232 236.597 114.885C236.224 116.382 233.038 117.444 231.537 117.959C221.467 116.005 225.232 103.092 224.66 95.0981C224.042 86.4496 226.361 75.8631 221.007 68.0676C211.456 54.1616 192.243 61.8241 178.404 58.8511C170.685 57.1276 172.515 48.6661 180.048 46.3666Z" fill="#5A3B51"/>
<path d="M229.207 136.239C233.605 135.878 234.469 136.763 237.455 139.945C237.649 146.196 238.748 160.626 236.438 166.502C235.885 167.907 234.401 168.333 233.015 168.751C227.878 168.854 225.112 167.563 224.805 161.955C224.443 155.345 224.411 148.628 224.833 142.014C225.019 139.091 227.06 137.883 229.207 136.239Z" fill="#5A3B51"/>
<path d="M518.613 468.741C521.613 468.481 526.828 469.386 527.248 473.171C528.063 480.481 527.183 488.291 527.538 495.696C528.038 506.166 525.008 516.466 517.338 523.871C506.518 534.296 494.913 533.356 481.048 533.201C480.698 533.186 480.353 533.161 480.003 533.136C475.753 532.816 472.188 530.886 472.443 525.896C472.548 523.771 475.648 520.451 477.713 520.256C487.153 519.371 497.883 522.411 506.233 516.376C519.363 507.121 512.543 487.841 514.703 474.316C515.208 471.146 516.008 470.491 518.613 468.741Z" fill="#5A3B51"/>
<path d="M517.928 417.726C530.583 417.651 526.583 435.781 526.453 445.371C524.788 447.461 524.433 448.056 522.158 449.391C513.268 450.331 512.918 442.641 513.203 435.651C513.473 429.016 511.668 421.726 517.928 417.726Z" fill="#5A3B51"/>
<path d="M526.288 157.001C530.079 157.011 534.843 157.159 538.81 158.104H538.811C545.414 159.677 550.945 162.362 555.359 166.218C559.789 170.088 562.635 174.736 564.436 179.548C567.838 188.638 567.681 199.074 567.658 206.783L567.728 224.416V224.421C567.741 228.274 567.937 233.616 567.523 238.534C566.754 247.681 564.022 255.26 559.118 261.099C554.213 266.937 547.901 270.124 541.621 271.862C535.463 273.567 528.948 273.987 523.06 274.056C520.077 274.091 517.105 274.034 514.314 273.974C511.469 273.912 508.853 273.847 506.332 273.847H506.321L381.521 273.699H381.457C367.284 273.593 349.926 274.733 334.085 273.001C326.711 272.195 320.282 267.919 315.781 263.415C311.234 258.866 307.273 252.714 305.913 246.192L305.911 246.186C304.568 239.72 304.574 231.859 304.523 226.683V226.636L304.423 207.565V207.534C304.411 201.621 303.713 191.344 306.578 182.624V182.623C308.957 175.382 312.915 169.773 318.145 165.711C323.265 161.734 329.082 159.64 334.653 158.506C345.096 156.379 357.611 157.298 365.343 157.256H365.39L478.649 157.168V157.167L515.774 157.132H515.813C517.119 157.136 518.662 157.104 520.496 157.067C522.277 157.032 524.277 156.996 526.288 157.001Z" fill="#715D77" stroke="#5A3B51" stroke-width="20"/>
<path d="M231.963 458.767C235.754 458.777 240.518 458.925 244.485 459.87H244.486C251.088 461.443 256.62 464.128 261.034 467.984C265.464 471.854 268.31 476.502 270.111 481.314C273.513 490.404 273.356 500.84 273.332 508.549L273.403 526.182V526.187C273.416 530.04 273.611 535.382 273.198 540.3C272.429 549.447 269.697 557.026 264.792 562.865C259.888 568.703 253.576 571.89 247.296 573.628C241.138 575.333 234.623 575.753 228.735 575.822C225.752 575.857 222.78 575.8 219.989 575.74C217.144 575.678 214.528 575.613 212.007 575.613H211.995L87.1957 575.465H87.1322C72.9587 575.359 55.6012 576.499 39.7601 574.767C32.3861 573.961 25.9568 569.685 21.4554 565.181C16.9086 560.632 12.948 554.48 11.5883 547.958L11.5863 547.952C10.2431 541.486 10.2491 533.625 10.1976 528.449V528.402L10.098 509.332V509.3C10.0855 503.387 9.38734 493.111 12.2523 484.39V484.389C14.6321 477.148 18.5902 471.539 23.8197 467.477C28.9396 463.5 34.7573 461.406 40.3275 460.272C50.7713 458.145 63.286 459.064 71.0179 459.022H71.0648L184.324 458.934V458.933L221.449 458.898H221.488C222.794 458.902 224.337 458.87 226.171 458.833C227.952 458.798 229.952 458.762 231.963 458.767Z" fill="#715D77" stroke="#5A3B51" stroke-width="20"/>
<path d="M526.288 10.001C530.079 10.011 534.843 10.1586 538.81 11.1035H538.811C545.414 12.6769 550.945 15.3623 555.359 19.2178C559.789 23.0877 562.635 27.7357 564.436 32.5479C567.838 41.6376 567.681 52.0741 567.658 59.7832L567.728 77.416V77.4209C567.741 81.2741 567.937 86.6162 567.523 91.5342C566.754 100.681 564.022 108.26 559.118 114.099C554.213 119.937 547.901 123.124 541.621 124.862C535.463 126.567 528.948 126.987 523.06 127.056C520.077 127.091 517.105 127.034 514.314 126.974C511.469 126.912 508.853 126.847 506.332 126.847H506.321L381.521 126.699H381.457C367.284 126.593 349.926 127.733 334.085 126.001C326.711 125.195 320.282 120.919 315.781 116.415C311.234 111.866 307.273 105.714 305.913 99.1924L305.911 99.1855C304.568 92.72 304.574 84.8587 304.523 79.6826V79.6357L304.423 60.5654V60.5342C304.411 54.6208 303.713 44.3445 306.578 35.624V35.623C308.957 28.3816 312.915 22.7734 318.145 18.7109C323.265 14.7338 329.082 12.6401 334.653 11.5059C345.096 9.37935 357.611 10.2979 365.343 10.2559H365.39L478.649 10.168V10.167L515.774 10.1318H515.813C517.119 10.1358 518.662 10.1036 520.496 10.0674C522.277 10.0322 524.277 9.99564 526.288 10.001Z" fill="#715D77" stroke="#5A3B51" stroke-width="20"/>
<path d="M311.063 172.979L312.098 173.451C313.373 175.141 313.253 175.861 313.513 178.069C312.058 177.646 312.093 177.53 310.898 176.544C310.353 174.468 310.458 175.237 311.063 172.979Z" fill="#4E3248"/>
<path d="M35.9261 306.85C53.1686 306.636 71.1377 306.903 88.1332 306.897L105.165 306.825H107.322C109.569 306.829 112.18 306.861 114.636 307.063H114.637C116.242 307.195 117.627 307.65 118.321 307.894C119.189 308.2 120.038 308.564 120.788 308.921C121.93 309.465 124.084 310.574 125.724 312.096L125.725 312.095C128.381 314.56 130.372 317.378 131.56 320.78C132.669 323.957 132.851 327.039 132.888 329.5C132.995 336.63 132.908 343.779 132.893 350.639L132.904 383.658L132.935 400.225L132.946 401.094C132.952 401.413 132.962 401.764 132.973 402.16C132.993 402.907 133.018 403.804 133.026 404.709C133.039 406.394 133.008 408.805 132.559 411.124V411.125C131.141 418.446 127.2 423.846 120.992 426.605C115.967 428.838 110.399 428.794 107.035 428.758L53.7113 428.759L38.3851 428.764L38.3842 428.763C36.9168 428.764 36.1131 428.758 34.724 428.759H34.6439C31.4476 428.737 23.2218 429.393 16.6 422.924L16.2855 422.611C13.6292 419.903 11.834 416.914 10.8969 413.43C10.067 410.346 10.066 407.321 10.0648 405.271C10.0571 392.029 10.078 378.641 10.0873 365.342L10.0912 352.082L10.0873 335.552V335.547C10.0877 333.855 9.86834 329.617 10.2806 326.13C10.7541 322.126 12.1531 317.098 16.3871 312.874C23.4114 305.865 33.1977 306.87 35.9261 306.849V306.85Z" fill="#715D77" stroke="#5A3B51" stroke-width="20"/>
</svg>
