<svg width="776" height="718" viewBox="0 0 776 718" fill="none" xmlns="http://www.w3.org/2000/svg">
<path d="M390.776 10.1475C409.818 8.7996 421.032 16.5855 440.347 27.9072V27.9062L484.235 53.8682L484.253 53.8789L484.271 53.8887L623.071 135.213V135.214C656.977 155.16 690.673 174.337 724.243 194.383H724.244C732.752 199.462 738.452 201.958 744.171 206.911L744.298 207.021L744.429 207.128C755.45 216.042 763.241 230.281 764.956 244.427L765.033 245.1C766.131 255.63 764.299 266.263 759.737 275.818L759.725 275.844L759.713 275.87C756.772 282.125 751.292 291.255 746.867 298.771L745.058 301.858L717.489 348.975L629.425 499.116L629.404 499.15L629.385 499.185C603.103 544.819 576.557 590.307 549.758 635.64C546.448 641.226 543.265 646.863 540.139 652.39C536.995 657.947 533.906 663.4 530.705 668.777L530.704 668.779C524.135 679.817 520.627 686.604 512.856 693.009L512.091 693.628C494.555 707.533 470.383 711.285 450.031 702.61H450.032C442.225 699.28 434.658 694.356 426.103 689.311L388.849 667.306L388.815 667.286L247.411 584.494L247.403 584.489L247.396 584.485L170.943 539.916L170.91 539.897L170.878 539.879L167.354 537.854C159.136 533.123 150.954 528.33 142.812 523.474L142.804 523.469L142.795 523.463L137.752 520.485C132.815 517.563 128.244 514.762 124.48 511.691L124.39 511.618L124.299 511.547L124.287 511.538C112.49 501.179 105.117 486.685 103.689 471.049C102.828 460.739 104.923 448.764 109.471 440.075C117.981 423.815 127.942 408.794 137.646 391.897L220.285 251.271L220.292 251.259L220.299 251.246L332.828 58.5479L332.833 58.5381C338.218 49.2927 344.896 36.9242 350.197 30.7451L350.207 30.7344L350.216 30.7236C360.448 18.7268 375.052 11.3181 390.776 10.1475Z" fill="#E3A53F" stroke="#C37623" stroke-width="20"/>
<path d="M211.841 14.8098C227.628 9.35881 239.437 12.2133 256.602 16.9885L264.318 19.135L313.431 32.8518L313.45 32.8577L313.471 32.8635L468.607 75.4973C504.145 85.331 539.33 94.5592 574.577 104.468L581.629 106.46C591.162 109.165 597.314 110.1 604.12 113.405L604.271 113.478L604.426 113.546C617.575 119.391 628.928 131.4 634.145 144.865V144.865C637.939 154.76 638.925 165.514 636.99 175.934L636.985 175.962L636.98 175.991C635.585 183.759 631.963 196.004 629.551 204.886L615.116 257.532L568.912 425.351L568.901 425.389L568.892 425.427C555.316 476.309 541.448 527.118 527.295 577.842C525.544 584.095 523.927 590.363 522.338 596.511C520.74 602.693 519.168 608.759 517.468 614.781V614.783C513.867 627.544 512.243 635.086 505.92 643.603H505.919C492.579 661.573 470.203 671.453 448.299 668.341H448.3C439.899 667.145 431.317 664.349 421.75 661.69H421.751L380.063 650.075L380.045 650.07L380.026 650.065L222.013 606.693L222.004 606.69L221.995 606.688L136.612 583.425L136.576 583.414L136.539 583.406L132.611 582.363C123.449 579.919 114.306 577.407 105.185 574.823L105.165 574.818L99.5225 573.246C93.9973 571.701 88.8578 570.178 84.4277 568.187L84.3213 568.139L84.2148 568.094L84.2061 568.09C84.2022 568.088 84.1984 568.086 84.1943 568.084C70.1199 561.131 59.2486 549.039 53.8242 534.306C50.3248 524.571 49.2512 512.464 51.3945 502.896C55.3993 485.018 61.1207 467.959 66.1143 449.164L109.566 291.843L109.569 291.83L109.573 291.817L168.394 76.5588L168.396 76.5481C171.205 66.2242 174.455 52.5498 177.976 45.2092L177.982 45.1956L177.988 45.1829C184.767 30.9464 196.956 20.0113 211.842 14.8108L211.841 14.8098Z" fill="#E3A53F" stroke="#C37623" stroke-width="20"/>
<path d="M38.916 60.4001C54.7229 49.719 68.3194 50.8454 90.6836 50.9939V50.9949L141.712 51.533L141.733 51.5339H141.754L302.639 52.5632V52.5623C339.511 52.863 375.885 52.6715 412.496 53.1199L419.823 53.2185C429.731 53.3637 435.915 52.6753 443.345 54.1052L443.511 54.1365L443.677 54.1628C457.891 56.405 471.965 65.067 480.488 76.7234H480.489C486.715 85.2991 490.451 95.4313 491.279 105.997L491.281 106.025L491.284 106.054C491.947 113.919 491.618 126.684 491.587 135.887L491.27 190.476L490.074 364.535V364.614C490.131 417.275 489.886 469.941 489.343 522.6C489.269 529.093 489.33 535.567 489.387 541.917C489.443 548.302 489.495 554.569 489.411 560.826V560.827C489.235 574.085 489.619 581.789 485.716 591.653V591.654C477.61 612.139 459.017 627.32 437.487 630.329L436.46 630.463C428.036 631.481 419.024 631.001 409.096 630.909H409.097L365.823 630.479H365.785L201.931 629.481H201.911L113.418 629.109H113.342C102.505 629.146 91.6681 629.089 80.834 628.935H80.8135C72.8555 628.838 65.4601 628.933 59.0674 627.897L58.9521 627.879L58.8369 627.863L58.8291 627.861C58.8231 627.86 58.8164 627.858 58.8086 627.857C43.4098 624.781 29.7771 615.909 20.7256 603.074C14.8323 594.579 10.6666 583.171 10.2607 573.381C9.50183 555.075 10.6132 537.116 10.5723 517.67L11.8262 354.464V354.436L12.9297 131.29V131.278C12.9707 120.579 12.5701 106.529 14.0713 98.5271L14.0742 98.5134L14.0762 98.4988C16.8945 83.2352 25.6047 69.7046 38.3076 60.8191L38.916 60.4001Z" fill="#E3A53F" stroke="#C37623" stroke-width="20"/>
<path d="M382.524 87.299C394.983 89.0041 401.911 120.833 408.525 132.691C417.674 137.623 448.564 146.715 452.967 153.798C454.37 156.053 454.845 158.644 454.209 161.236C453.505 164.118 451.455 166.348 449.062 167.98C439.512 174.48 420.199 178.06 409.263 185.055C409.103 185.158 408.943 185.266 408.788 185.372C402.186 197.675 398.104 211.021 392.172 223.587C389.979 228.246 387.403 229.983 382.559 231.299C380.177 230.798 376.942 229.937 375.419 227.871C366.257 215.432 363.704 197.91 355.519 184.808C346.253 180.597 316.804 171.213 312.148 164.083C310.787 161.999 310.117 159.434 310.694 156.972C313.133 146.557 345.995 138.646 355.532 132.864C355.714 132.753 355.893 132.636 356.074 132.523C362.632 121.465 367.057 103.707 374.051 92.4517C376.324 88.7912 378.516 87.9932 382.524 87.299Z" fill="#C37623"/>
<path d="M382.966 125.299C383.779 126.266 387.253 135.483 387.958 137.222C393.637 151.228 404.502 154.454 417.487 159.658C392.381 170.282 393.506 169.144 383.307 194.299C379.629 188.181 375.877 175.848 370.999 171.166C366.106 166.471 355.045 162.59 348.487 159.469L353.849 157.333C375.138 148.777 373.978 146.358 382.966 125.299Z" fill="#E3A53F"/>
</svg>
