<?xml version="1.0" encoding="utf-8" ?><svg xmlns="http://www.w3.org/2000/svg" xmlns:xlink="http://www.w3.org/1999/xlink" width="1024" height="1024" viewBox="0 0 1024 1024"><path fill="#1F2A44" transform="scale(2 2)" d="M106.766 37.8397L472.727 37.8209C483.877 37.8074 492.863 37.275 501.449 46.2624C508.004 53.1254 510.609 59.2552 510.648 68.6324L510.581 427.478C510.601 445.76 509.538 468.578 486.08 472.653C476.636 474.294 464.518 473.678 454.69 473.671L405.125 473.679L44.5651 473.688C23.2039 473.684 1.35985 469.036 1.29725 442.843L1.32418 76.457C1.31896 60.9654 2.31144 42.7185 22.1376 38.8737C31.089 37.1378 44.7748 37.8462 54.3212 37.8478L106.766 37.8397Z"/><path fill="white" transform="scale(2 2)" d="M376.927 150.966L495.167 150.966L495.18 431.027C495.179 456.65 489.493 458.53 465.148 458.528L136.458 458.519L42.6973 458.529C18.7321 458.533 16.6447 454.201 16.6536 430.885L16.6634 150.966L376.927 150.966Z"/><path fill="#1F2A44" transform="scale(2 2)" d="M305.762 313.511L427.349 313.5C453.496 313.493 452.603 310.296 452.575 339.16L452.575 390.467C452.585 399.077 455.18 409.395 445.696 412.743C438.686 413.083 428.839 412.744 421.575 412.743L327.838 412.73C320.916 412.726 313.981 412.817 307.067 412.722C296.737 412.579 298.992 398.643 298.992 391.827L298.871 320.743C298.854 316.552 301.768 313.961 305.762 313.511Z"/><path fill="white" transform="scale(2 2)" d="M365.772 329.03L413.356 329.03C421.116 329.029 429.407 328.861 437.122 329.03L437.122 397.123L385.488 397.123L314.285 397.123L314.285 329.03C317.385 329.316 327.19 329.043 330.812 329.042L365.772 329.03Z"/><path fill="#1F2A44" transform="scale(2 2)" d="M67.0494 314.111C68.8945 313.919 75.0936 314.087 77.1812 314.093L176.301 314.111C185.192 314.111 194.286 314.306 203.149 314.099C215.184 313.818 212.491 327.019 212.483 335.854L212.45 403.417C212.404 407.991 210.818 410.974 206.395 412.743C204.326 413.088 196.643 412.749 194.004 412.742L96.0942 412.738C86.8601 412.739 77.6209 412.689 68.3879 412.873C57.9234 413.081 60.681 398.947 60.6794 391.406L60.6686 325.682C60.651 320.218 60.6031 315.161 67.0494 314.111Z"/><path fill="white" transform="scale(2 2)" d="M101.032 329.532L197.127 329.532C197.195 351.912 197.474 375.435 197.127 397.751L172.625 397.751L75.9806 397.751L75.9806 329.532L101.032 329.532Z"/><path fill="#1F2A44" transform="scale(2 2)" d="M68.2073 203.515C97.1965 203.182 126.852 203.513 155.911 203.51L187.426 203.508C193.395 203.508 199.338 203.449 205.306 203.693C215.109 204.094 212.475 219.849 212.477 226.709L212.479 282.592C212.497 289.826 214.882 300.812 204.802 301.895C200.796 302.223 191.356 301.904 186.844 301.898L69.0862 301.911C58.2922 301.896 60.6821 289.354 60.679 281.365L60.6811 226.633C60.6839 218.413 57.7486 204.878 68.2073 203.515Z"/><path fill="white" transform="scale(2 2)" d="M180.185 218.788L197.127 218.788L197.127 286.746L93.375 286.746L75.9806 286.746L75.9806 218.788L180.185 218.788Z"/><path fill="#1F2A44" transform="scale(2 2)" d="M304.152 241.472L427.711 241.464C433.231 241.461 438.799 241.426 444.318 241.489C454.327 241.871 455.175 253.52 446.491 256.756C443.005 257.027 434.824 256.761 430.918 256.76L333.038 256.753C329.023 256.754 305.112 257.579 302.705 256.285C296.017 252.689 296.307 243.425 304.152 241.472Z"/><path fill="#1F2A44" transform="scale(2 2)" d="M304.857 203.515C307.188 203.244 316.426 203.51 319.484 203.512L443.235 203.518C455.832 204.225 454.664 216.786 445.696 218.788L320.44 218.806C315.037 218.808 309.54 218.937 304.164 218.63C296.413 218.186 295.461 204.617 304.857 203.515Z"/><path fill="#1F2A44" transform="scale(2 2)" d="M257.649 217.566C269.669 216.832 267 227.661 259.664 234.989C252.968 241.68 246.074 248.002 239.858 254.87C244.247 258.772 266.479 278.466 266.136 284.124C265.812 289.461 262.77 291.97 257.649 291.749C251.804 290.333 247.285 283.675 243.17 279.548L232.775 269.203C220.46 257.172 217.497 255.306 229.806 242.965C234.687 238.07 252.118 218.655 257.649 217.566Z"/><path fill="#1F2A44" transform="scale(2 2)" d="M409.255 279.503L432.541 279.487C436.571 279.488 441.317 279.306 445.287 279.675C454.319 280.515 455.585 293.298 445.696 295.018L422.249 295.036C418.381 295.036 413.515 295.238 409.733 294.887C400.672 294.049 399.014 281.133 409.255 279.503Z"/><path fill="#1F2A44" transform="scale(2 2)" d="M304.152 279.503C309.803 279.457 335.36 278.826 338.951 280.333C346.131 283.346 343.146 292.675 336.943 295.018C328.964 295.842 313.237 295.321 305.285 294.966C296.108 294.556 294.936 281.801 304.152 279.503Z"/><path fill="#1F2A44" transform="scale(2 2)" d="M357.223 279.503L377.49 279.494C381.046 279.493 385.158 279.355 388.649 279.653C397.463 280.408 397.883 293.171 388.752 295.018L368.825 295.035C364.803 295.031 361.158 295.048 356.987 294.789C348.211 294.244 347.166 280.649 357.223 279.503Z"/><path fill="#C2BCBB" transform="scale(2 2)" d="M31.7985 53.116L472.428 53.1113C482.287 53.1182 491.922 51.9582 494.824 64.2529C495.967 69.0967 495.164 81.4953 495.157 86.98L495.167 135.5L481.375 135.5L16.6634 135.5L16.6526 87.9292C16.6529 73.4285 12.2448 53.8098 31.7985 53.116Z"/><path fill="#1F2A44" transform="scale(2 2)" d="M119.792 70.1776C133.093 68.2905 145.405 77.5473 147.286 90.8498C149.167 104.152 139.905 116.46 126.602 118.335C113.307 120.209 101.009 110.954 99.1287 97.6599C97.2488 84.3658 106.498 72.0635 119.792 70.1776Z"/><path fill="white" transform="scale(2 2)" d="M122.559 85.2022C127.565 84.8687 131.885 88.675 132.185 93.6831C132.485 98.6912 128.65 102.986 123.639 103.252C118.677 103.515 114.432 99.7242 114.135 94.7636C113.838 89.8029 117.601 85.5326 122.559 85.2022Z"/><path fill="#1F2A44" transform="scale(2 2)" d="M177.352 70.0579C190.667 68.7237 202.538 78.4474 203.853 91.7647C205.167 105.082 195.426 116.939 182.107 118.234C168.815 119.525 156.989 109.809 155.677 96.5197C154.365 83.2304 164.064 71.3894 177.352 70.0579Z"/><path fill="white" transform="scale(2 2)" d="M178.388 85.4007C183.172 84.5982 187.704 87.8139 188.527 92.5941C189.349 97.3743 186.153 101.92 181.376 102.763C176.571 103.61 171.992 100.391 171.164 95.5819C170.337 90.7732 173.576 86.2079 178.388 85.4007Z"/><path fill="#1F2A44" transform="scale(2 2)" d="M63.2164 70.3881C76.4056 68.4404 88.6821 77.5376 90.6575 90.7228C92.6329 103.908 83.5615 116.203 70.3806 118.207C57.1604 120.216 44.8203 111.111 42.839 97.887C40.8577 84.6626 49.9879 72.3416 63.2164 70.3881Z"/><path fill="white" transform="scale(2 2)" d="M65.8651 85.648C70.6412 85.1862 74.908 88.6329 75.4609 93.3994C76.0138 98.1659 72.6492 102.498 67.8942 103.142C64.7364 103.569 61.594 102.258 59.6772 99.712C57.7603 97.1665 57.3679 93.7841 58.6512 90.8674C59.9345 87.9506 62.6933 85.9546 65.8651 85.648Z"/><path fill="#1F2A44" transform="scale(2 2)" d="M377.751 86.9819L399.542 86.9617C403.396 86.9611 410.705 86.1495 413.709 88.7406C419.733 93.936 415.691 102.113 406.964 102.227L386.029 102.242C381.069 102.245 366.839 103.47 367.642 94.4691C368.259 87.5481 372.053 86.9768 377.751 86.9819Z"/><path fill="#1F2A44" transform="scale(2 2)" d="M431.664 86.9819L452.735 86.9655C455.881 86.9652 461.133 86.6969 464.156 87.1522C472.608 88.4248 473.662 100.305 464.302 102.227L442.726 102.249C439.229 102.25 434.372 102.483 431 101.983C421.746 100.612 421.587 88.1017 431.664 86.9819Z"/></svg>