<?xml version="1.0" encoding="utf-8" ?><svg xmlns="http://www.w3.org/2000/svg" xmlns:xlink="http://www.w3.org/1999/xlink" width="1024" height="1024" viewBox="0 0 1024 1024"><path fill="#1F2A44" transform="scale(2 2)" d="M148.511 0L344.372 0C346.875 0.655561 368.463 0.350937 372.338 0.423879C395.856 0.866539 416.336 20.0869 416.711 43.9448C416.838 52.0713 416.769 60.224 416.768 68.3696L416.776 457.313C416.817 478.379 414 494.213 392.631 505.082C382.174 510.401 374.255 509.836 363.102 509.801L152.033 509.796C146.864 509.809 141.719 510.014 136.538 509.767C113.643 508.675 95.1165 488.824 94.6773 466.07C94.561 460.047 94.7002 454.02 94.7066 448.008L94.6963 64.1273C94.6957 53.4269 94.0932 40.8627 97.5767 30.6092C103.303 13.8137 119.594 1.96157 137.072 0.282517C139.555 0.0440231 146.791 1.05243 148.511 0Z"/><path fill="white" transform="scale(2 2)" d="M110.521 83.2496L401.276 83.2496L401.287 411.954C401.29 415.424 401.729 430.631 401.09 432.908L400.313 433.042L110.521 433.042L110.532 109.07C110.534 102.891 109.571 88.7431 110.521 83.2496Z"/><path fill="#1F2A44" transform="scale(2 2)" d="M176.462 129.988C197.084 128.912 205.904 137.201 204.716 157.971C204.047 168.655 207.653 178.843 199.092 187.24C191.407 194.778 183.726 193.276 173.706 193.274L154.125 193.257L153.038 193.264C137.127 193.348 125.551 189.989 125.473 171.893L125.466 158.322C125.428 132.72 134.231 129.972 157.977 129.975L176.462 129.988Z"/><path fill="white" transform="scale(2 2)" d="M149.652 145.803C160.616 145.792 171.557 145.774 182.539 145.826C192.338 145.872 189.467 161.52 189.185 169.398C188.914 176.955 188.804 178.161 181.139 177.845L157.171 177.858C152.447 177.861 145.291 178.58 141.248 176.399C141.077 173.949 141.23 169.879 141.233 167.29L141.248 148.648C144.049 145.506 145.724 145.927 149.652 145.803Z"/><path fill="#1F2A44" transform="scale(2 2)" d="M328.228 129.988L352.678 129.966C369.709 129.942 387.528 130.292 386.18 154.641C385.291 170.681 389.786 193.033 365.563 193.257L339.445 193.265C326.768 193.278 308.501 194.021 307.361 175.602C306.197 156.798 303.841 132.352 328.228 129.988Z"/><path fill="white" transform="scale(2 2)" d="M336.976 145.803L357.24 145.785C360.222 145.765 364.365 145.373 367.125 145.803C369.369 147.578 370.161 148.026 370.151 151.121C370.126 158.775 370.906 167.318 369.647 174.855C368.716 179.408 360.662 177.869 356.991 177.845C352.64 177.846 326.354 178.558 324.366 176.79C322.332 174.98 323.225 160.229 323.226 157.434C323.232 144.867 323.849 145.699 336.976 145.803Z"/><path fill="#1F2A44" transform="scale(2 2)" d="M150.551 211.071L172.529 211.051C181.561 211.048 190.964 209.707 198.394 216.383C208.129 225.129 203.799 239.463 204.741 251.105C206.09 267.764 194.809 273.605 180.087 273.923L157.913 273.95C152.635 273.961 146.224 274.353 141.16 273.287C132.716 271.912 124.937 262.303 125.508 253.598C126.971 231.324 119.644 211.883 150.551 211.071Z"/><path fill="white" transform="scale(2 2)" d="M144.564 226.828L170.419 226.822C176.13 226.822 188.614 224.341 189.204 231.536C189.699 237.563 191.821 255.701 185.769 258.398C181.32 258.547 176.215 258.404 171.703 258.401L144.564 258.398C142.94 257.326 142.659 257.126 141.248 255.74C141.043 254.549 141.053 230.374 141.248 229.177C142.453 227.999 143.064 227.555 144.564 226.828Z"/><path fill="#1F2A44" transform="scale(2 2)" d="M328.228 211.071C336.502 210.966 344.79 211.051 353.065 211.057C367.031 211.067 382.555 210.347 385.921 228.157C386.501 231.227 386.519 253.923 385.874 257.187C383.973 266.814 376.499 272.27 367.125 273.923L343.162 273.935C314.066 273.93 307.431 271.303 307.229 240.704C307.126 224.989 309.82 212.215 328.228 211.071Z"/><path fill="white" transform="scale(2 2)" d="M328.772 226.828C335.856 226.576 343.042 226.822 350.136 226.818C354.454 226.815 367.388 225.061 370.024 229.218C371.495 231.539 370.833 252.163 370.114 255.74C368.765 257.293 367.591 258.149 365.563 258.398C352.735 258.396 338.656 258.711 325.921 258.398C321.182 253.95 323.081 238.004 323.329 231.206C323.442 228.096 326.017 227.127 328.772 226.828Z"/><path fill="#1F2A44" transform="scale(2 2)" d="M237.489 211.071L261.795 211.062C270.755 211.058 281.016 209.757 288.2 216.013C297.994 224.541 294.18 238.001 294.938 249.395C295.867 263.354 288.562 273.124 274.341 273.923C266.134 274.185 238.699 274.751 232.278 273.254C214.744 268.689 217.557 253.106 217.112 239.545C216.609 224.215 219.128 211.998 237.489 211.071Z"/><path fill="white" transform="scale(2 2)" d="M237.489 226.828L262.929 226.82C268.277 226.814 275.424 225.42 279.218 229.177C280.031 234.294 279.406 248.841 279.212 254.2C279.113 256.915 276.815 258.155 274.341 258.398C262.472 258.881 249.805 258.234 237.883 258.243C231.298 258.247 232.584 252.642 232.69 248.047C232.86 240.649 229.326 227.959 237.489 226.828Z"/><path fill="#1F2A44" transform="scale(2 2)" d="M239.699 129.988L261.153 129.979C287.73 129.961 295.996 133.477 294.905 164.412C294.336 180.536 293.16 192.453 273.413 193.257L250.548 193.267C237.193 193.269 217.469 193.92 217.15 174.35C216.817 153.944 213.241 131.431 239.699 129.988Z"/><path fill="white" transform="scale(2 2)" d="M238.071 145.803C250.292 145.498 262.915 145.941 275.151 145.89C276.975 145.882 278.208 147.324 279.218 148.648C279.193 152.436 279.815 173.937 278.687 175.972C277.97 177.267 275.624 177.624 274.341 177.845C266.04 177.672 241.269 179.117 234.289 176.992C231.495 174.563 232.988 153.694 232.886 149.176C232.836 146.961 236.182 146.031 238.071 145.803Z"/><path fill="#1F2A44" transform="scale(2 2)" d="M146.374 305.496C152.416 305.231 160.53 305.493 166.767 305.494L326.8 305.536C335.976 305.605 337.827 317.686 328.772 320.855C326.698 321.066 323.733 320.9 321.575 320.883L150.019 320.849C136.301 320.137 138.83 307.264 146.374 305.496Z"/><path fill="#1F2A44" transform="scale(2 2)" d="M148.511 338.453C151.045 338.197 161.015 338.449 164.13 338.449L296.442 338.407C310.704 339.298 307.319 351.902 298.987 353.816L165.369 353.821C159.797 353.821 153.885 353.92 148.36 353.692C138.635 353.29 136.431 339.28 148.511 338.453Z"/><path fill="#1F2A44" transform="scale(2 2)" d="M178.36 371.171C185.192 371.191 193.315 370.87 200.119 371.434C207.881 372.95 208.943 385.282 200.612 386.506C197.946 386.898 193.617 386.6 190.776 386.596L168.375 386.579L155.189 386.589C133.687 386.591 139.513 372.759 145.679 371.695C150.079 370.936 154.686 371.161 159.15 371.16L178.36 371.171Z"/><path fill="white" transform="scale(2 2)" d="M144.564 15.812L351.044 15.8059C381.94 15.7842 401.256 16.4954 401.288 53.1997L401.276 67.5253L367.125 67.5253L110.521 67.5253L110.503 52.7902C110.485 28.5577 119.462 16.8728 144.564 15.812Z"/><path fill="#1F2A44" transform="scale(2 2)" d="M271.938 32.4154L285.374 32.3701C311.164 32.1473 300.856 47.4553 295.165 47.9665C290.02 48.4287 283.934 48.0854 278.605 48.0858L239.699 48.0948L226.061 48.1377C221.894 48.1771 216.262 49.022 212.756 46.2411C208.175 42.6075 209.397 33.7377 215.614 32.7692C221.596 31.8372 228.274 32.4092 234.359 32.4083L271.938 32.4154Z"/><path fill="white" transform="scale(2 2)" d="M110.521 448.59L401.276 448.59C401.31 463.146 403.348 474.717 392.624 485.786C385.699 492.162 378.722 494.202 369.508 494.261L146.159 494.263C112.331 494.267 110.485 477.538 110.521 448.59Z"/><path fill="#1F2A44" transform="scale(2 2)" d="M239.699 464.541C245.636 464.497 271.916 463.747 275.611 465.637C282.247 469.03 280.43 479.296 273.413 480.875L252.147 480.884C248.424 480.886 238.263 481.394 235.772 479.406C229.854 474.683 231.974 465.963 239.699 464.541Z"/></svg>