<?xml version="1.0" encoding="utf-8" ?><svg xmlns="http://www.w3.org/2000/svg" xmlns:xlink="http://www.w3.org/1999/xlink" width="1024" height="1024" viewBox="0 0 1024 1024"><path fill="#1F2A44" transform="scale(2 2)" d="M181.923 2.25416C211.467 -0.304827 240.031 22.9381 244.964 51.8456C246.787 62.5305 246.171 75.6475 246.173 86.622L246.163 126.764L266.232 126.764L266.222 86.2908C266.232 62.3241 264.855 41.0446 282.475 21.6471C313.187 -12.1647 369.041 -0.219094 383.506 44.4863C386.782 54.7185 386.032 68.0966 386.034 78.9418L386.022 110.688C386.017 115.788 385.831 121.752 386.022 126.764L427.957 126.763C453.299 126.764 473.55 124.351 493.313 144.185C515.755 166.441 516.268 205.047 493.438 227.297C477.006 243.311 465.368 245.108 443.593 245.083L386.022 245.068L386.022 265.593L427.063 265.589C453.258 265.577 471.884 262.898 492.412 282.705C531.515 320.435 503.945 386.118 450.091 385.108C443.698 384.988 436.88 385.117 430.438 385.117L386.022 385.115L386.03 431.353C386.035 438.394 386.113 445.483 385.934 452.522C385.162 482.743 361.549 502.634 333.58 507.956C328.906 507.827 324.532 508.07 319.825 507.618C295.35 505.46 273.612 486.532 267.742 462.722C265.197 452.396 265.975 438.155 265.975 427.261L265.976 385.115C264.348 384.978 261.088 385.085 259.34 385.089L246.163 385.115L246.16 427.517C246.169 458.781 246.102 483.653 213.869 501.255C176.661 521.573 129.411 495.089 126.168 453.108C125.648 446.373 125.872 439.434 125.87 432.678L125.879 400.843C125.884 396.149 126.14 389.562 125.879 385.115L86.1565 385.121C73.9882 385.121 57.1867 385.985 45.6719 382.743C-11.5299 366.635 -12.9093 287.532 42.2342 268.398C54.8735 264.013 74.3573 265.139 87.8749 265.138L125.879 265.146C125.689 258.81 125.875 251.484 125.879 245.068C124.521 244.93 122.832 245.013 121.441 245.029L84.6237 245.075C67.5255 245.081 51.7466 246.576 35.7578 238.863C-1.01459 221.125 -10.436 173.274 19.1097 143.918C38.9656 124.19 58.973 126.763 84.5055 126.762L125.879 126.764L125.876 81.1792C125.875 53.0612 124.567 33.3435 149.891 14.0213C160.362 6.03142 169.104 3.91436 181.923 2.25416Z"/><path fill="white" transform="scale(2 2)" d="M181.923 28.1024C196.33 25.386 215.878 38.121 218.894 52.4866C220.872 61.9033 220.159 74.6253 220.16 84.5026L220.151 126.764L190.625 126.764L151.7 126.764C151.501 123.46 151.683 117.885 151.687 114.486L151.679 70.2939C151.626 49.8758 158.051 30.7978 181.923 28.1024Z"/><path fill="white" transform="scale(2 2)" d="M70.8226 290.778L125.879 290.778L125.879 359.36L82.375 359.36L68.2522 359.382C65.6693 359.386 63.0228 359.495 60.4268 359.348C23.0926 357.243 14.6054 310.037 47.9579 293.984C55.2081 290.494 62.8971 290.757 70.8226 290.778Z"/><path fill="white" transform="scale(2 2)" d="M386.022 291.451L450.908 291.508C481.51 291.767 495.973 328.196 474.518 350.13C462.024 361.992 447.882 359.362 432.014 359.352L386.022 359.36L386.022 291.451Z"/><path fill="white" transform="scale(2 2)" d="M326.625 28.1024C341.347 27.7933 356.172 38.9822 359.171 53.3189C360.795 61.0804 360.117 73.8483 360.108 82.0903L360.114 126.764L326.625 126.764L292.248 126.764L292.246 83.4343C292.232 67.5457 289.844 51.7464 301.568 39.3191C308.981 31.462 315.965 28.6396 326.625 28.1024Z"/><path fill="white" transform="scale(2 2)" d="M387.279 152.351L429.94 152.341C438.539 152.338 450.399 151.658 458.702 153.355C485.497 158.833 492.246 189.627 474.518 209.773C466.304 216.475 459.043 219.021 448.39 219.038L386.022 219.062L386.014 166.256C386.014 164.685 385.835 153.147 386.253 152.465L387.279 152.351Z"/><path fill="white" transform="scale(2 2)" d="M152.601 385.115L220.151 385.115L220.156 426.347C220.156 442.806 222.347 459.139 209.636 471.942C188.476 491.309 156.373 478.728 152.196 452.977C151.436 448.29 151.339 386.867 151.992 385.236L152.601 385.115Z"/><path fill="white" transform="scale(2 2)" d="M60.2173 152.351C65.926 152.012 75.7912 152.34 81.71 152.341L125.879 152.351L125.879 219.062C116.414 218.258 103.669 219.073 93.875 219.062L75.3095 219.073C62.8315 219.07 49.2462 219.518 39.1074 210.788C16.4811 191.292 28.489 154.483 60.2173 152.351Z"/><path fill="white" transform="scale(2 2)" d="M332.136 385.115L360.114 385.115L360.113 429.424C360.115 436.328 360.453 444.332 360.049 451.089C358.849 471.168 339.942 483.018 321.012 481.214C290.876 473.214 292.241 454.273 292.243 427.511L292.248 385.115L332.136 385.115Z"/><path fill="white" transform="scale(2 2)" d="M307.244 307.238L360.114 307.238L360.114 359.36C355.841 359.651 347.544 359.372 343.022 359.371L307.244 359.36L307.241 324.689C307.239 319.029 307.087 312.841 307.244 307.238Z"/><path fill="white" transform="scale(2 2)" d="M151.7 307.238L204.313 307.238L204.313 359.36C200.815 359.652 191.46 359.375 187.586 359.374L151.7 359.36L151.7 307.238Z"/><path fill="white" transform="scale(2 2)" d="M308.382 152.351L360.114 152.351L360.121 186.142C360.12 190.561 360.359 199.621 359.933 203.657L359.503 203.89L307.244 203.89C307.243 198.641 307.044 153.15 307.5 152.478L308.382 152.351Z"/><path fill="white" transform="scale(2 2)" d="M307.244 230.22C308.769 230.057 313.402 230.185 315.09 230.192L349.744 230.209C352.847 230.198 357.178 229.995 360.114 230.22L360.114 281.181C356.77 281.486 347.237 281.174 343.271 281.171L307.244 281.181L307.244 230.22Z"/><path fill="white" transform="scale(2 2)" d="M152.601 152.351L204.313 152.351L204.302 183.256C204.302 189.877 204.11 196.984 204.646 203.537L204.313 203.89L151.7 203.89L151.7 170.488C151.7 167.756 151.476 154.318 152.054 152.559L152.601 152.351Z"/><path fill="white" transform="scale(2 2)" d="M151.7 230.22L204.313 230.22C204.313 246.79 204.677 264.763 204.313 281.181L151.7 281.181L151.7 230.22Z"/><path fill="white" transform="scale(2 2)" d="M230.392 307.238L281.328 307.238L281.328 359.36L230.392 359.36C230.393 342.272 230.088 324.236 230.392 307.238Z"/><path fill="white" transform="scale(2 2)" d="M230.392 152.351C247.23 152.352 264.543 152.134 281.328 152.351C281.327 157.692 281.625 203.176 281.328 203.89L230.392 203.89C230.223 198.489 230.381 192.14 230.382 186.671L230.392 152.351Z"/><path fill="white" transform="scale(2 2)" d="M268.425 230.22C272.622 230.247 277.186 230.009 281.328 230.22L281.328 281.181L243.625 281.181L230.392 281.181L230.392 230.22L268.425 230.22Z"/></svg>