<?xml version="1.0" encoding="utf-8" ?><svg xmlns="http://www.w3.org/2000/svg" xmlns:xlink="http://www.w3.org/1999/xlink" width="1024" height="1024" viewBox="0 0 1024 1024"><path fill="#1F2A44" transform="scale(2 2)" d="M69.4081 23.9659L470.213 23.9596C478.483 23.9617 487.664 23.0739 495.147 26.8906C510.635 34.7904 511.269 47.7397 511.243 62.3543L511.448 450.43C511.602 464.942 499.459 479.354 484.896 481.373C479.529 482.118 472.8 481.781 467.295 481.78L443.625 481.769L34.0136 481.871C24.912 481.915 16.7053 478.366 10.1779 472.082C0.398088 462.668 1.21549 452.697 1.23002 440.439L1.19175 54.9982C1.16218 27.1209 21.0647 23.9511 43.7834 23.9586L69.4081 23.9659ZM494.264 134.255L17.9648 134.255L17.9474 441.82C17.9137 452.774 18.7564 464.747 33.2808 464.746L462.034 464.693C469.966 464.694 483.297 466.49 489.292 460.405C495.835 453.34 494.283 447.047 494.274 438.006L494.268 156.63C494.268 149.505 494.473 141.307 494.264 134.255ZM17.9648 117.234L451.562 117.234L494.264 117.234C494.708 95.8048 495.113 71.2872 493.804 50.3003C493.466 44.8852 486.39 41.0295 481.249 41.0632L61.9931 41.2087L42.4882 41.1909C13.4452 41.1835 17.951 49.4838 17.9583 73.3611L17.9648 117.234Z"/><path fill="#1F2A44" transform="scale(2 2)" d="M146.205 188.005C148.985 187.784 152.534 187.969 155.398 187.982L364.305 188.028C375.002 188.067 376.063 202.611 366.643 204.965C360.76 205.196 353.032 204.968 347.016 204.967L188.575 204.967C183.159 204.968 147.969 205.532 145.438 204.583C137.272 201.522 138.234 190.703 146.205 188.005Z"/><path fill="#1F2A44" transform="scale(2 2)" d="M294.867 280.166L433.785 280.081C449.94 280.057 447.521 297.869 434.562 297.473L306.257 297.48C301.355 297.482 296.397 297.603 291.459 297.361C282.681 296.932 279.043 280.295 294.867 280.166Z"/><path fill="#1F2A44" transform="scale(2 2)" d="M291.479 243.877C293.408 243.658 302.432 243.872 304.992 243.873L436.074 244.027C446.873 244.117 447.942 258.884 438.383 260.885C434.534 261.213 424.866 260.887 420.447 260.885L293.255 260.863C280.828 260.116 281.642 245.641 291.479 243.877Z"/><path fill="#1F2A44" transform="scale(2 2)" d="M292.399 384.87C300.561 384.608 310.429 384.867 318.693 384.867L436.561 384.869C447.184 384.962 448.266 400.992 437.313 401.788L310.78 401.792C306.203 401.792 291.971 402.826 288.199 400.621C282.096 397.118 281.998 386.251 292.399 384.87Z"/><path fill="#1F2A44" transform="scale(2 2)" d="M292.399 348.286C300.919 348.012 310.902 348.285 319.568 348.284L436.688 348.36C446.914 348.444 448.509 363.563 436.53 365.009L292.281 365.008C283.318 365.314 279.766 350.596 292.399 348.286Z"/><path fill="#1F2A44" transform="scale(2 2)" d="M76.6719 280.166C79.6927 279.884 89.2902 280.163 92.8926 280.164L211.015 280.157C220.683 280.208 221.661 295.262 211.487 297.473L93.1136 297.481C87.6851 297.479 82.2969 297.574 76.8621 297.28C65.8662 296.686 65.5101 280.842 76.6719 280.166Z"/><path fill="#1F2A44" transform="scale(2 2)" d="M76.6719 384.87C77.6463 384.636 83.3306 384.862 84.7709 384.864L206.828 384.907C209.089 385.122 212.449 384.837 214.447 385.931C221.624 389.857 219.426 399.932 211.487 401.788L75.6284 401.858C66.831 401.748 64.5777 385.586 76.6719 384.87Z"/><path fill="#1F2A44" transform="scale(2 2)" d="M75.0594 348.286C83.4467 348.106 92.5973 348.287 101.063 348.287L189.354 348.278C196.256 348.277 203.076 348.249 209.977 348.439C221.194 348.748 221.592 362.932 211.487 365.465C206.645 365.727 199.177 365.471 194.07 365.471L97.7385 365.461C94.5261 365.46 75.1684 366.169 72.9128 364.822C67.0291 361.31 66.7803 351.772 75.0594 348.286Z"/><path fill="#1F2A44" transform="scale(2 2)" d="M78.9541 243.877L196.556 243.875C201.238 243.874 205.869 243.802 210.606 243.906C220.691 244.126 223.11 260.513 208.666 260.885L77.4065 260.764C67.352 260.713 63.2646 244.674 78.9541 243.877Z"/><path fill="#1F2A44" transform="scale(2 2)" d="M318.251 70.1225L338.093 70.1073C343.825 70.0736 353.227 68.559 355.84 75.0657C362.114 90.6922 337.215 87.0904 329.158 87.0877L287.125 87.0977L265.654 87.1071C262.98 87.1144 257.697 87.5316 255.338 87.0142C246.458 85.1423 247.048 71.1173 255.946 70.336C262.266 69.7812 269.616 70.1308 275.967 70.1318L318.251 70.1225Z"/><path fill="#1F2A44" transform="scale(2 2)" d="M384.741 70.1225L442.836 70.1376C459.044 70.6599 454.249 87.4064 444.813 87.0977C437.065 86.9296 383.001 88.688 379.48 85.5024C373.079 79.7121 375.718 70.7803 384.741 70.1225Z"/><path fill="#1F2A44" transform="scale(2 2)" d="M159.296 64.7625C164.579 63.6511 170.052 65.4638 173.627 69.5092C177.202 73.5547 178.328 79.2089 176.575 84.3153C174.823 89.4217 170.462 93.1927 165.156 94.1899C157.074 95.7088 149.276 90.4395 147.67 82.3747C146.064 74.31 151.249 66.4553 159.296 64.7625Z"/><path fill="#1F2A44" transform="scale(2 2)" d="M108.091 64.6783C116.185 64.1979 123.171 70.2906 123.796 78.3743C124.42 86.458 118.453 93.5516 110.382 94.3202C105.031 94.8298 99.8221 92.4117 96.7578 87.996C93.6935 83.5803 93.2511 77.8544 95.6007 73.0204C97.9503 68.1863 102.726 64.9968 108.091 64.6783Z"/><path fill="#1F2A44" transform="scale(2 2)" d="M53.8709 64.7881C61.9031 63.7054 69.3088 69.294 70.4708 77.3151C71.6329 85.3363 66.1178 92.7968 58.1086 94.0381C49.9865 95.2969 42.3979 89.6871 41.2194 81.553C40.041 73.4189 45.7256 65.8861 53.8709 64.7881Z"/></svg>