<?xml version="1.0" encoding="utf-8" ?><svg xmlns="http://www.w3.org/2000/svg" xmlns:xlink="http://www.w3.org/1999/xlink" width="12" height="11" viewBox="0 0 12 11"><path fill="#6FAF8E" transform="matrix(0.0103896 0 0 0.0107422 1.52588e-05 0)" d="M1008.34 324.151C1046.41 323.844 1089.18 315.246 1119.83 344.29C1129.6 353.557 1141.74 375.331 1144.05 388.733C1152.94 441.56 1151.89 496.988 1154.72 550.503C1156.04 575.34 1149.03 598.437 1131.29 616.382C1099.05 649.031 1034.07 644.658 990.185 647.153C930.607 650.588 870.992 653.665 811.362 656.382L342.126 681.841C304.358 683.604 266.606 685.567 228.861 687.732C215.575 688.512 183.471 689.765 172.361 692.895C160.305 691.747 123.473 692.462 111.935 695.702C62.4877 693.28 19.2071 685.382 8.92107 625.212C2.19245 585.862 5.30347 544.167 1.63071 504.19C-1.24463 472.889 -2.38641 436.212 16.4588 409.347C45.4997 369.949 101.098 373.514 144.701 371.299L267.289 365.191L767.178 338.402L903.825 330.99C926.526 329.609 952.255 328.94 974.37 325.187C978.45 325.686 1002.79 324.374 1008.34 324.151Z"/><path fill="#E1A948" transform="matrix(0.0103896 0 0 0.0107422 1.52588e-05 0)" d="M111.935 695.702C123.473 692.462 160.304 691.747 172.361 692.895L742.388 725.274L887.777 733.291C931.608 735.548 1000.45 731.603 1031.11 766.144C1038.98 774.949 1044.87 785.362 1048.34 796.665C1059.38 833.183 1052.89 893.166 1052.52 931.928C1052.19 968.658 1015.85 1004.24 979.819 1008.62C944.965 1012.85 909.223 1012.98 873.783 1014.2C807.566 1016.81 741.335 1018.62 675.084 1019.63C550.291 1021.83 426.436 1025.24 301.513 1022.46C258.696 1021.51 215.233 1021.68 172.441 1019.96C145.526 1018.87 110.529 1002.26 92.6468 981.17C58.1142 939.025 57.4825 881.046 54.8229 829.279C53.9135 811.597 53.3583 793.111 54.6072 775.684C57.5141 735.089 75.5285 711.4 111.935 695.702Z"/><path fill="#6B5C7A" transform="matrix(0.0103896 0 0 0.0107422 1.52588e-05 0)" d="M1007.76 325.481C996.257 328.821 959.452 329.854 947.392 328.811L377.4 301.355L232.022 294.591C188.194 292.713 119.425 297.254 88.4847 262.978C80.5392 254.241 74.5683 243.88 70.9955 232.609C59.6532 196.185 65.6186 136.149 65.6519 97.3873C65.6692 60.6541 101.685 24.7611 137.653 20.0737C172.453 15.5401 208.173 15.0977 243.583 13.5776C309.742 10.3954 375.922 8.01257 442.127 6.43213C566.833 3.15054 690.59 -1.32536 815.469 0.372001C858.27 0.953826 901.707 0.411298 944.491 1.76259C971.401 2.61217 1006.52 18.924 1024.57 39.8589C1059.45 81.704 1060.58 139.675 1063.69 191.416C1064.75 209.091 1065.46 227.57 1064.37 245.008C1061.81 285.625 1044.01 309.469 1007.76 325.481Z"/></svg>