<svg width="87" height="69" viewBox="0 0 87 69" fill="none" xmlns="http://www.w3.org/2000/svg">
<rect x="2" y="2" width="46.3282" height="64.2" fill="white" stroke="black" stroke-width="4" stroke-linejoin="round"/>
<rect x="9.64374" y="11.5251" width="14.1094" height="14.1094" rx="2" fill="black" stroke="black" stroke-linejoin="round"/>
<line x1="11.1437" y1="37.3032" x2="40.125" y2="37.3032" stroke="black" stroke-width="3" stroke-linecap="round"/>
<line x1="11.1437" y1="46.7094" x2="26.0156" y2="46.7094" stroke="black" stroke-width="3" stroke-linecap="round"/>
<line x1="11.1437" y1="56.1157" x2="33.5406" y2="56.1157" stroke="black" stroke-width="3" stroke-linecap="round"/>
<path d="M55.0005 43.869V68.2H50.5565H46.1125V0.0350037H64.9995C67.8275 0.0350037 70.5545 0.607338 73.1805 1.75201C75.8065 2.82934 78.1295 4.378 80.1495 6.398C82.1695 8.48533 83.7182 10.8757 84.7955 13.569C85.9402 16.195 86.5125 18.9893 86.5125 21.952C86.5125 24.9147 85.9402 27.7427 84.7955 30.436C83.7182 33.062 82.1695 35.385 80.1495 37.405C78.1295 39.425 75.8065 41.0073 73.1805 42.152C70.5545 43.2967 67.8275 43.869 64.9995 43.869H55.0005ZM55.0005 9.22601V34.88H64.9995C68.5008 34.88 71.4635 33.6007 73.8875 31.042C76.3788 28.5507 77.6245 25.5207 77.6245 21.952C77.6245 18.4507 76.3788 15.4543 73.8875 12.963C71.3962 10.4717 68.4335 9.22601 64.9995 9.22601H55.0005Z" fill="black"/>
</svg>
