<?xml version="1.0" encoding="utf-8" ?><svg xmlns="http://www.w3.org/2000/svg" xmlns:xlink="http://www.w3.org/1999/xlink" width="1024" height="1024" viewBox="0 0 1024 1024"><path fill="#1F2A44" transform="scale(2 2)" d="M485.316 292.617C500.621 292.061 509.185 303.717 509.287 317.835L509.285 365.96C509.294 388.491 511.42 408.399 500.053 428.957C481.352 462.78 455.054 470.057 420.035 470.008L296.53 470.002C296.23 485.36 291.524 497.507 274.014 498.485C260.441 499.244 253.474 489.266 244.561 480.682C235.872 472.313 227.407 463.332 218.502 455.046C209.396 445.99 199.946 437.237 190.772 428.067C174.185 411.488 181.692 395.948 195.512 382.518L224.106 354.577C234.038 344.968 243.886 335.158 253.613 325.338C264.431 314.418 278.167 311.744 289.805 323.169C297.239 330.467 296.542 338.118 296.53 347.753L407.432 347.753C411.789 347.755 416.694 347.91 420.97 347.753C432.38 337.993 444.048 324.882 455.257 314.36C465.064 305.156 470.88 293.825 485.316 292.617Z"/><path fill="#F6F7F9" transform="scale(2 2)" d="M485.316 312.641C490.26 312.863 488.708 321.281 488.715 324.619L488.727 378.089C488.729 385.622 489.048 393.344 488.101 400.839C485.453 421.79 469.946 440.395 449.916 447C437.141 451.213 420.452 450.714 406.889 450.703L295.484 450.685C281.914 450.673 273.94 449.696 275.68 467.003C275.688 469.287 276.546 478.871 273.34 479.233C270.463 478.035 228.336 436.347 222.625 430.736C218.147 426.258 202.863 413.625 202.825 407.596C202.79 401.957 208.538 397.985 212.28 394.349L228.319 378.822C241.871 365.802 255.324 352.706 268.56 339.359C280.414 327.406 274.1 350.634 276.225 359.99C278.333 369.269 286.612 368.046 293.641 368.041L425.737 368.134C429.345 368.171 432.875 364.543 435.245 362.259C451.713 346.389 468.125 328.035 484.982 312.938L485.316 312.641Z"/><path fill="#1F2A44" transform="scale(2 2)" d="M235.538 11.2843C249.738 10.0024 256.302 19.5436 265.267 28.6194L309.445 72.489C319.582 82.3424 330.265 89.3883 329.241 105.173C328.544 115.924 320.591 121.515 313.524 128.413L268.308 172.858C263.723 177.394 259.381 181.989 254.605 186.362C237.681 201.859 212.843 188.548 215.123 162.892C211.248 162.685 205.442 162.885 201.4 162.886L92.8239 162.892C88.9356 167.747 83.7838 172.369 79.2126 176.645C70.0631 185.389 61.271 194.833 51.922 203.406C43.9515 210.715 37.2416 220.833 25.5482 221.37C0.309739 222.529 1.3304 198.527 1.36702 181.486L1.37006 132.677C1.37902 114.028 2.12991 99.866 11.9677 83.1108C32.3967 48.3175 59.0923 42.6043 95.6568 42.6155L184.331 42.6158C194.155 42.6173 205.423 42.9067 215.123 42.6184C215.048 28.1295 215.914 12.1454 235.538 11.2843Z"/><path fill="#F6F7F9" transform="scale(2 2)" d="M236.085 30.9993C240.427 30.6765 249.516 41.9093 253.526 45.7288C269.242 60.6965 284.143 76.4669 299.72 91.5596C314.491 105.871 311.137 102.272 296.031 117.363L252.715 160.221C249.796 163.124 242.416 172.72 238.053 172.578C229.521 172.301 245.03 143.276 225.202 142.827C215.338 142.604 205.419 142.814 195.55 142.814L109.335 142.818C94.0612 142.811 86.6962 141.066 75.0415 152.29C67.1101 159.863 28.8069 199.512 24.1812 201.393C22.9055 201.128 22.7395 200.608 21.9853 199.46C21.9665 198.932 21.9507 198.403 21.9488 197.875L21.9819 151.502C21.9756 125.057 18.7727 101.5 38.9155 80.8468C57.8914 61.3903 73.5046 62.4106 98.0497 62.4198L231.744 62.4247C240.192 56.4065 232.687 39.2528 236.085 30.9993Z"/><path fill="#1F2A44" transform="scale(2 2)" d="M41.5169 346.245C30.4336 346.095 21.735 347.779 13.1349 338.964C-2.24612 323.2 10.4038 310.102 21.4095 299.219L66.3814 254.188C77.6495 242.813 87.3898 228.066 104.345 228.452C116.044 228.719 122.395 237.171 130.123 244.69C152.185 266.154 173.479 288.441 195.583 309.864C203.812 317.84 201.559 333.182 193.393 340.298C184.482 348.063 175.315 345.567 164.919 346.245L164.919 435.806C174.126 446.099 184.93 455.591 194.496 465.597C201.945 473.387 210.248 478.857 209.253 490.936C208.193 503.79 200.395 507.679 190.139 512L115.557 512C113.252 511.475 110.838 511.157 108.503 510.733C76.234 504.872 49.2312 480.54 42.7804 447.982C41.3852 440.941 41.5108 433.631 41.5077 426.475L41.5169 346.245Z"/><path fill="#F6F7F9" transform="scale(2 2)" d="M103.205 249.086C108.907 249.647 124.689 268.124 129.57 272.962L162.009 304.892C164.701 307.538 180.971 322.244 180.211 324.807C175.405 328.849 146.219 319.181 144.613 336.572C143.859 344.737 144.146 353.168 144.144 361.394L144.145 423.847C144.136 444.111 143.211 444.611 158.059 458.854L175.562 475.843C178.325 478.501 194.957 490.908 185.385 491.417C181.425 491.627 177.395 491.541 173.415 491.541L149.062 491.531L130.527 491.541C100.206 491.535 72.4212 480.497 63.7482 447.873C61.2955 438.647 61.5736 430.704 61.5831 421.291L61.6034 343.973C61.5935 338.699 62.1247 332.995 58.0258 329.317C52.466 323.597 35.9684 325.761 28.0529 325.778L26.7956 322.508C28.5835 319.358 35.7432 313.126 38.6502 310.342L86.5932 262.808C90.6463 258.8 97.7989 249.923 103.205 249.086Z"/><path fill="#1F2A44" transform="scale(2 2)" d="M357.603 0L395.696 0C398.798 1.05404 404.413 1.59155 407.9 2.34184C440.051 9.25925 465.311 36.5348 469.375 69.216C470.122 75.2263 470.001 81.8831 469.995 88.0576L469.986 164.251C480.285 164.203 488.501 163.545 496.572 171.268C504.961 178.688 506.211 194.277 499.672 203.254C494.934 209.759 486.466 216.509 480.613 222.477C465.228 238.162 449.162 253.296 433.92 269.135C414.768 289.036 399.399 284.059 381.509 266.158L334.018 219.151C328.842 214.01 320.596 206.994 316.814 201.448C310.197 191.746 311.352 179.62 319.661 171.412C328.42 162.759 336.33 163.522 347.5 163.525L347.5 77.0395C338.228 67.9878 329.143 58.4306 319.888 49.3068C311.698 41.2333 301.811 33.5328 303.641 20.646C307.638 -7.49457 339.51 2.5073 357.603 0Z"/><path fill="#F6F7F9" transform="scale(2 2)" d="M329.771 20.9516C332.277 20.7139 336.003 20.9205 338.59 20.9272L377.431 20.9496C387.225 20.9432 397.63 20.6244 407.183 23.1922C425.691 28.2458 442.436 43.9907 447.19 62.857C450.484 75.9296 449.482 93.0666 449.48 106.72L449.476 150.852C449.476 158.443 449.342 167.975 449.528 174.843C451.034 196.737 504.38 171.055 475.357 199.186L427.673 246.517C420.83 253.344 416.152 261.549 406.435 261.224C403.405 259.411 393.29 249.015 390.455 246.114L335.893 192.004C329.286 185.058 335.409 184.218 341.957 184.033C351.131 183.774 368.099 187.46 367.972 175.07C368.093 168.047 368.041 161 368.033 153.998L368.041 87.9574C368.042 67.2286 369.683 69.3084 354.558 54.9225L333.647 34.6792C328.758 29.8709 316.28 21.3712 329.771 20.9516Z"/></svg>