<svg width="475" height="421" viewBox="0 0 475 421" fill="none" xmlns="http://www.w3.org/2000/svg">
<path d="M414.685 133.269C430.34 133.143 447.933 129.608 460.535 141.549C464.556 145.359 469.548 154.311 470.497 159.821C474.154 181.54 473.721 204.328 474.883 226.33C475.426 236.541 472.545 246.037 465.251 253.415C451.989 266.838 425.266 265.04 407.219 266.066C382.717 267.478 358.2 268.743 333.677 269.86L140.701 280.327C125.169 281.052 109.643 281.859 94.1205 282.749C88.6562 283.07 75.4535 283.585 70.8844 284.872C65.9261 284.4 50.7791 284.694 46.034 286.026C25.6984 285.03 7.89903 281.783 3.66884 257.045C0.901656 240.867 2.18108 223.725 0.67064 207.289C-0.51186 194.42 -0.981426 179.341 6.76876 168.296C18.712 152.098 41.5769 153.564 59.509 152.653L109.924 150.142L315.506 139.128L371.703 136.081C381.039 135.513 391.62 135.238 400.715 133.695C402.393 133.9 412.403 133.361 414.685 133.269Z" fill="#6FAF8E"/>
<path d="M46.0339 286.026C50.779 284.694 65.926 284.4 70.8843 284.872L305.311 298.184L365.103 301.48C383.129 302.408 411.44 300.786 424.049 314.987C427.287 318.607 429.707 322.888 431.137 327.535C435.675 342.549 433.007 367.21 432.856 383.146C432.718 398.247 417.772 412.875 402.956 414.675C388.622 416.415 373.923 416.47 359.348 416.969C332.116 418.042 304.878 418.787 277.632 419.202C226.31 420.108 175.374 421.508 123.999 420.367C106.39 419.976 88.5159 420.045 70.9173 419.337C59.8485 418.892 45.4557 412.061 38.1015 403.391C23.8998 386.064 23.64 362.227 22.5462 340.944C22.1722 333.674 21.9439 326.074 22.4575 318.909C23.653 302.219 31.0615 292.48 46.0339 286.026Z" fill="#E1A948"/>
<path d="M414.447 133.816C409.716 135.189 394.58 135.614 389.62 135.185L155.208 123.897L95.4202 121.116C77.3958 120.344 49.1142 122.211 36.3898 108.119C33.1222 104.527 30.6666 100.267 29.1973 95.6331C24.5327 80.6579 26.986 55.9753 26.9997 40.0391C27.0068 24.9369 41.8187 10.1801 56.6107 8.25294C70.9222 6.38906 85.6123 6.20716 100.175 5.5822C127.383 4.2739 154.6 3.29423 181.827 2.64446C233.113 1.29529 284.009 -0.544898 335.366 0.152942C352.968 0.392149 370.832 0.169098 388.427 0.724659C399.494 1.07395 413.937 7.78029 421.362 16.3873C435.706 33.5912 436.171 57.4249 437.448 78.6973C437.885 85.964 438.178 93.5613 437.727 100.731C436.676 117.43 429.355 127.233 414.447 133.816Z" fill="#6B5C7A"/>
</svg>
