<?xml version="1.0" encoding="utf-8" ?><svg xmlns="http://www.w3.org/2000/svg" xmlns:xlink="http://www.w3.org/1999/xlink" width="1024" height="1024" viewBox="0 0 1024 1024"><path fill="#1F2A44" transform="scale(2 2)" d="M431.177 1.27225C449.287 0.725662 465.836 3.1988 480.469 14.7714C514.586 41.9458 520.538 94.0021 488.443 124.76C486.788 126.347 484.399 128.304 483.072 130.117C483.4 138.204 483.076 147.13 483.076 155.294L483.076 232.274C483.081 253.649 484.032 249.19 469.066 264.005L244.266 487.024C231.511 499.737 224.783 505.947 205.847 506.218C185.063 506.516 173.437 491.338 160.232 478.08L134.18 452.149L17.5813 336.868C7.31695 326.64 1.89333 319.398 1.67664 304.452C1.38187 284.121 17.9957 272.691 31.182 259.42L252.748 37.5342C257.497 32.7888 260.471 27.8338 267.33 27.8007L382.94 27.7724C394.796 12.2454 411.969 3.11329 431.177 1.27225ZM405.728 27.7724L425.942 27.7638C443.556 27.6989 457.092 26.6111 470.703 39.814C485.484 54.151 483.096 72.6595 483.072 91.3099C483.359 96.4938 483.137 102.212 483.072 107.447C511.993 67.1707 478.508 10.5874 433.398 16.2565C424.38 17.4177 411.917 20.744 405.728 27.7724Z"/><path fill="#F6F7F9" transform="scale(2 2)" d="M327.559 42.7096L396.945 42.7081C410.979 42.7084 424.852 42.4063 438.859 43.2197C456.469 44.2423 465.17 49.6826 466.914 68.0604C468.124 80.8175 467.782 93.188 467.773 105.975L467.786 234.127C467.802 237.151 468.012 240.616 467.773 243.573C466.322 246.007 455.166 256.532 452.455 259.207L241.697 467.688C213.584 495.952 206.406 502.173 176.339 472.694L35.6026 333.971C22.5096 320.952 7.24602 308.38 22.6732 289.87C30.4722 280.513 39.4779 272.538 47.9797 263.936L254.428 56.4C271.014 39.8291 267.188 42.699 290.866 42.6982L327.559 42.7096Z"/><path fill="#1F2A44" transform="scale(2 2)" d="M391.135 68.6037C412.503 64.8613 439.355 95.4815 434.476 117.26C430.308 135.863 413.252 155.286 393.107 155.495C375.346 154.322 357.891 138.653 351.367 122.699C340.757 96.7521 365.677 70.384 391.135 68.6037Z"/><path fill="#F6F7F9" transform="scale(2 2)" d="M391.135 83.6005C397.467 83.0114 402.225 86.0046 407.734 88.7303C403.247 93.1971 383.949 107.505 389.893 114.825C397.703 124.442 411.498 106.086 417.283 101.344L417.613 101.077C420.318 111.692 420.658 116.49 414.485 125.889C397.425 154.398 366.099 131.361 364.104 113.629C362.424 98.6907 377.323 84.9057 391.135 83.6005Z"/><path fill="#1F2A44" transform="scale(2 2)" d="M100.279 275.531C108.453 275.296 131.765 302.786 137.977 309.119C147.38 318.705 156.986 328.136 166.489 337.604L203.131 374.119C211.211 382.119 219.363 390.055 227.239 398.256C232.54 403.777 237.151 410.78 226.614 413.721C218.155 415.077 196.297 388.073 189.58 381.399L107.064 299.668C102.798 295.396 83.8902 279.052 100.279 275.531Z"/><path fill="#1F2A44" transform="scale(2 2)" d="M88.4809 320.042C94.9598 319.669 100.511 327.156 104.842 331.405C134.272 360.276 162.681 390.209 192.832 418.327C198.45 423.565 200.661 431.247 191.719 434.406C184.378 435.072 175.479 423.255 170.756 418.446L111.073 358.477C103.09 350.526 94.8227 342.79 86.6519 335.032C81.1791 329.836 79.5718 322.374 88.4809 320.042Z"/><path fill="#1F2A44" transform="scale(2 2)" d="M166.566 287.024C173.654 286.398 183.886 299.523 189.032 304.547L208.356 323.785C214.514 329.965 234.539 345.264 218.424 351.082C214.576 351.869 210.084 348.665 207.604 345.967C195.292 332.573 182.388 319.76 169.711 306.704C164.021 300.844 154.156 292.352 166.566 287.024Z"/><path fill="#1F2A44" transform="scale(2 2)" d="M127.386 247.547C134.213 247.366 165.076 273.327 145.312 278.495C139.01 278.392 107.801 252.382 127.386 247.547Z"/><path fill="#1F2A44" transform="scale(2 2)" d="M239.906 359.566C249.627 359.085 274.687 386.747 256.836 389.383C248.936 389.116 221.007 363.997 239.906 359.566Z"/></svg>