<?xml version="1.0" encoding="utf-8" ?><svg xmlns="http://www.w3.org/2000/svg" xmlns:xlink="http://www.w3.org/1999/xlink" width="614" height="614" viewBox="0 0 614 614"><path fill="#1F2A44" transform="scale(1.19922 1.19922)" d="M53.7624 14.3537C54.0601 14.3261 54.4489 14.2848 54.746 14.2871L445.852 14.3544C465.006 14.2726 479.203 16.0228 494.161 30.5008C512.53 48.2808 510.565 66.619 510.557 89.1406L510.575 383.126C510.582 387.146 510.814 393.123 510.164 396.904C506.502 418.196 493.26 434.755 471.75 439.764C464.102 441.544 452.17 440.98 443.986 440.979L406.938 440.97L372.154 440.964C353.793 440.962 334.075 441.132 320.665 456.59C317.878 459.803 315.565 463.743 312.898 466.982C283.013 504.222 220.604 499.842 194.231 459.509C180.779 438.937 146.996 440.963 125.72 440.966L70.7789 440.958C67.9492 440.957 63.4506 440.718 60.7524 441.006C31.5812 444.123 4.15549 419.508 1.76874 390.705C1.27083 384.696 1.47187 377.695 1.47522 371.309L1.46679 83.6235C1.45314 77.6704 1.04314 70.2641 1.7695 64.4886C5.28558 36.5313 26.0087 17.2456 53.7624 14.3537Z"/><path fill="#F6F7F9" transform="scale(1.19922 1.19922)" d="M397.133 27.7162L436.316 27.7077C456.498 27.6896 474.716 26.3341 488.448 44.5299C498.847 58.3087 497.052 75.4802 497.051 91.9454L497.053 376.715C497.106 397.321 496.271 418.299 471.927 426.003C463.416 428.696 450.543 427.962 441.381 427.96L383.684 427.965C356.702 427.947 329.324 425.541 309.897 449.398C304.293 456.281 301.188 461.31 293.754 466.765C271.384 483.184 240.17 483.812 218.206 466.215C197.686 450.033 199.667 434.654 164.345 429.078C153.142 427.361 134.827 427.969 122.961 427.97L55.7949 428.066C30.7222 428.179 15.1098 406.847 15.0486 383.201L15.0683 99.6304C15.0669 87.5779 14.5069 73.9736 16.0284 62.1907C18.2464 45.0144 34.5044 29.8117 51.6053 28.1394C56.5638 27.6546 61.2683 27.7093 66.2158 27.7088L397.133 27.7162Z"/><path fill="#1F2A44" transform="scale(1.19922 1.19922)" d="M252.769 70.5041C273.856 68.5625 294.746 78.3616 309.499 92.8893C329.276 112.364 328.295 135.793 328.297 160.98L328.289 202.909C364.645 209.221 376.559 229.761 376.53 265.476L376.522 284.147C376.522 303.794 376.729 323.822 376.523 343.442C371.682 349.784 365.622 347.996 357.873 348.003L334.984 347.995C331.153 386.965 300.121 416.779 261.063 420.005C217.984 421.407 179.069 391.919 176.807 347.995L153.98 348.003C132.846 348.056 136.148 345.025 136.176 325.657L136.177 271.733C136.177 253.255 135.195 236.792 147.893 221.645C156.475 211.406 170.963 203.456 184.202 202.261L184.195 161.833C184.192 150.537 183.525 137.184 185.924 126.266C193.029 93.9235 220.755 73.1986 252.769 70.5041Z"/><path fill="#F6F7F9" transform="scale(1.19922 1.19922)" d="M185.65 215.522L187.399 215.492L306.589 215.513C342.71 215.498 363.301 222.562 363.136 261.916L363.128 334.649L334.984 334.649L334.877 332.963C333.393 312.254 323.54 293.328 307.918 279.736C280.386 255.071 235.737 254.149 207.203 277.529C188.68 292.706 178.853 311.017 176.272 334.649C168.502 334.295 157.655 334.643 149.652 334.649L149.64 261.857C149.628 237.599 159.026 218.057 185.65 215.522Z"/><path fill="#F6F7F9" transform="scale(1.19922 1.19922)" d="M253.088 273.84C289.892 272.271 320.995 300.843 322.548 337.647C324.101 374.451 295.515 405.542 258.71 407.078C221.929 408.614 190.862 380.05 189.31 343.269C187.758 306.488 216.308 275.409 253.088 273.84Z"/><path fill="#1F2A44" transform="scale(1.19922 1.19922)" d="M254.987 297.104C273.142 295.41 288.346 311.46 288.027 329.235C287.827 340.331 283.491 345.377 275.987 352.765C282.045 378.977 288.472 383.539 258.028 383.565C252.292 383.585 228.508 386.23 232.467 373.813C234.26 368.187 234.947 357.834 237.222 352.765C214.476 337.786 224.527 299.287 254.987 297.104Z"/><path fill="#F6F7F9" transform="scale(1.19922 1.19922)" d="M253.521 310.066C274.622 308.401 281.55 331.636 269.154 341.419C266.529 343.569 261.346 345.201 262.075 349.511C263.23 356.33 264.66 363.788 266.436 370.467C264.132 370.386 262.105 370.413 259.812 370.467L246.015 370.467C247.41 364.907 250.246 355.82 250.869 350.434C251.773 342.62 239.309 342.349 238.186 331.517C237.095 320.992 242.501 311.814 253.521 310.066Z"/><path fill="#F6F7F9" transform="scale(1.19922 1.19922)" d="M252.769 83.5218C281.959 81.2707 309.311 101.432 314.399 130.396C315.621 137.347 315.318 144.591 315.313 151.625L315.34 190.732C315.449 207.037 312.099 202.268 293.71 202.27L259.812 202.261L217.955 202.271C198.121 202.271 196.999 207.18 196.988 189.646L196.976 151.785C196.957 145.16 196.594 136.514 198.005 130.207C204.058 103.152 225.585 86.6445 252.769 83.5218Z"/><path fill="#1F2A44" transform="scale(1.19922 1.19922)" d="M254.987 90.6035C283.233 87.6865 309.837 113.307 308.656 141.458C308.522 144.638 308.625 148.06 308.618 151.26L308.604 174.862C308.626 182.297 311.126 190.72 305.408 195.502C300.5 195.673 294.572 195.515 289.571 195.513L258.028 195.502L206.074 195.502C205.113 194.568 204.463 193.762 203.618 192.738L203.599 143.498C203.503 113.593 226.028 92.228 254.987 90.6035Z"/><path fill="#F6F7F9" transform="scale(1.19922 1.19922)" d="M253.521 103.6C265.718 102.285 276.211 106.82 284.817 115.189C297.293 127.322 295.791 140.609 295.793 156.383L295.784 182.415L259.812 182.415L216.85 182.415L216.84 157.123C216.84 149.793 216.43 139.44 218.139 132.464C222.211 115.853 237.258 105.078 253.521 103.6Z"/><path fill="#1F2A44" transform="scale(1.19922 1.19922)" d="M457.738 339.543C460.945 338.106 462.626 339.847 464.936 341.938C465.166 343.961 464.959 347.783 464.949 349.993L464.946 382.57C464.958 388.765 466.479 392.568 461.021 396.522C456.736 396.814 448.491 396.531 443.852 396.529L408.164 396.522C395.675 396.576 398.518 384.546 405.359 383.907C410.895 383.39 416.511 383.559 422.07 383.557L451.621 383.565L451.614 359.793C451.614 351.969 448.881 340.704 457.738 339.543Z"/><path fill="#1F2A44" transform="scale(1.19922 1.19922)" d="M409.909 59.0382L442.654 59.0264C447.976 59.0253 453.383 58.9332 458.697 59.135C468.159 59.4944 465.752 71.9002 465.767 78.7384C465.786 87.2992 465.783 95.8923 465.737 104.428C465.704 110.567 464.986 115.792 457.738 115.487C450.693 113.707 452.718 103.7 452.718 97.8125L452.731 72.4657C449.63 72.29 444.712 72.4521 441.502 72.4553L419.783 72.4731C415.575 72.476 411.59 72.5672 407.317 72.2516C400.472 71.746 397.208 59.7498 409.909 59.0382Z"/><path fill="#1F2A44" transform="scale(1.19922 1.19922)" d="M52.1915 339.543C62.3033 338.866 59.9516 353.661 59.9582 360.778L59.9499 383.565L88.0131 383.55C92.9217 383.548 97.8464 383.487 102.749 383.638C110.686 383.676 112.038 394.456 104.08 396.522C102.648 396.737 99.5824 396.564 97.9919 396.547L65.3221 396.528C58.1794 396.527 51.851 398.269 47.0089 392.785C46.2504 389.684 46.4786 384.484 46.476 381.168L46.4725 366.071C46.4728 358.074 43.3412 341.572 52.1915 339.543Z"/><path fill="#1F2A44" transform="scale(1.19922 1.19922)" d="M50.865 60.0038C60.6749 59.6259 73.4086 59.9993 83.4495 60.0006L96.1343 59.9723C98.9411 59.9546 101.557 59.9582 104.396 60.0598C111.307 60.3071 111.865 71.4211 105.612 72.6464C103.009 73.1564 97.8653 72.4816 94.8372 72.4751L62.5625 72.4657L58.7519 72.4657C58.6339 82.7033 60.1188 101.94 58.463 111.313C57.4822 116.865 49.2538 117.529 46.4753 113.04C45.2252 109.691 45.526 105.207 45.5232 101.622L45.5162 87.3192C45.5148 79.9406 42.3767 61.6498 50.865 60.0038Z"/></svg>