<?xml version="1.0" encoding="utf-8" ?><svg xmlns="http://www.w3.org/2000/svg" xmlns:xlink="http://www.w3.org/1999/xlink" width="1024" height="1024" viewBox="0 0 1024 1024"><path fill="#212021" d="M545.807 119.187C551.983 118.427 552.37 120.912 554.61 126.104C560.073 138.771 561.93 152.999 565.143 166.292L584.62 244.854C591.869 227.617 597.214 205.495 603.308 187.551C606.278 178.806 608.843 162.932 613.645 156.041C629.368 157.987 647.817 164.224 663.495 168.075C693.229 175.17 723.022 182.013 752.872 188.601C759.51 190.053 780.157 192.347 784.242 196.631C785.774 198.239 780.543 211.11 779.657 215.064L779.471 215.915C830.92 217.082 882.543 212.406 934.088 217.429C947.33 218.719 984.785 214.508 985.887 234.935C986.179 240.347 983.779 252.527 982.896 258.722C980.892 272.284 979.259 285.898 977.997 299.549C976.808 313.902 976.554 328.822 975.136 343.009C971.872 375.659 970.85 408.243 968.044 440.895C967.686 445.066 967.044 450.051 963.75 453.112C957.626 458.802 945.349 456.022 937.779 455.587C916.204 452.986 894.733 451.261 873.053 450.042C865.016 449.59 856.381 448.164 848.433 448.225L847.68 448.234C847.456 451.383 847.584 455.659 847.592 458.904C856.277 458.792 898.328 456.802 903.405 461.259C906.445 463.926 906.341 471.217 906.47 475.024C906.532 476.864 906.193 478.113 904.839 479.436C901.046 483.142 894.843 482.503 889.94 482.586C887.741 485.553 887.278 486.449 885.699 489.784C894.626 499.226 892.824 507.036 885.543 517.063C883.308 520.14 882.62 520.436 878.88 521.653C891.462 521.055 904.057 520.761 916.653 520.771C927.855 520.871 937.171 520.781 932.773 534.335C931.639 537.826 932.42 538.607 932.555 541.724C932.921 550.137 919.559 549.225 914.091 548.997L914.979 555.187C913.752 556.406 912.182 557.769 910.886 558.96C923.694 575.641 904.176 574.694 893.644 575.545C894.957 584.583 895.135 589.387 895.026 598.337L890.962 602.911C897.681 617.29 900.495 624.635 882.14 628.869C896.658 633.759 898.208 644.782 887.171 654.755C891.867 664.753 897.966 674.319 887.218 682.45C889.29 690.071 889.685 692.206 889.454 700.012C922.189 699.937 954.57 702.842 987.29 701.881C991.913 701.745 998.989 701.956 1002.41 705.407C1002.92 707.184 1002.98 706.325 1002.15 708.061C999.666 709.985 996.973 710.393 993.852 710.286C981.96 709.877 970.019 708.823 958.159 707.971C947.838 707.329 937.508 706.863 927.171 706.574C883.901 705.199 840.61 704.544 797.318 704.609C773.704 704.663 751.303 704.579 727.675 705.449C733.654 715.037 733.214 721.261 730.655 731.802C741.256 738.351 754.644 747.422 765.187 753.21C772.358 748.039 781.312 743.58 790.08 742.11C826.104 736.069 872.756 753.15 879.779 792.72C879.576 793.254 879.358 793.781 879.124 794.301C873.97 805.631 859.407 806.511 848.713 805.705C834.51 804.635 821.041 801.156 807.244 797.928C794.023 794.908 780.697 792.943 768.29 787.161C754.895 780.919 753.824 770.974 760.199 758.634C750.083 751.669 739.812 744.934 729.392 738.433C727.014 740.87 725.577 742.048 722.436 743.337C719.079 744.074 716.966 744.297 713.56 744.649C708.894 751.824 707.658 752.763 699.248 753.986C698.51 754.948 697.739 755.885 696.938 756.796C686.797 768.409 679.202 755.837 675.102 756.1C672.136 758.671 671.422 762.832 671.346 766.729C670.895 789.684 657.447 794.681 636.816 794.401C627.169 794.269 614.438 793.73 604.306 793.998L490.635 796.081C480.262 796.225 469.9 796.962 459.525 797.13C440.199 797.445 362.002 798.228 348.871 789.66C337.325 782.127 335.064 759.593 332.43 746.957C329.289 751.567 327.626 754.473 322.63 757.205C319.704 757.163 316.664 757.218 313.727 757.236C308.593 771.455 303.27 768.113 291.025 764.672C287.754 763.753 282.558 763.683 279.626 761.721C278.078 760.686 276.315 758.226 274.739 756.981C272.068 754.871 268.557 753.448 267.089 750.182C263.43 741.469 267.799 725.914 270.842 717.792C259.941 716.697 229.744 719 217.6 719.676L133.719 723.751C124.864 724.171 112.858 725.462 104.001 724.584C102.793 724.464 101.537 722.874 100.932 721.804L101.155 721.169C104.678 718.737 110.584 720.716 112.84 717.049C112.449 714.208 110.221 712.792 108.039 710.986C85.3923 712.432 62.7535 713.457 40.1563 715.793C35.7158 716.252 23.237 718.245 20.5482 714.306L20.7524 713.27C24.4444 709.159 36.8402 709.489 42.5341 709.06C54.9656 708.096 67.4051 707.239 79.8512 706.489C85.6907 706.181 94.2502 706.169 99.8549 704.596C101.549 704.12 105.234 697.625 106.97 696.115C108.587 694.708 109.998 693.9 111.845 692.775C110.047 690.353 110.065 689.165 109.682 686.193C90.6738 678.039 104.513 673.505 103.122 669.142C101.846 668.832 101.686 668.783 100.497 668.234C99.1227 666.013 98.941 663.904 98.4439 661.316C97.7525 661.228 94.5582 660.926 94.2592 660.746C82.3785 653.591 96.3978 645.658 101.71 643.423C101.408 640.313 101.454 637.167 101.435 634.039C87.5767 633.353 84.6281 630.527 85.0939 616.687C79.5751 615.386 66.0216 612.736 70.9616 603.826C75.339 595.93 84.2952 594.117 92.3481 591.929C91.5699 585.45 92.2533 575.464 92.6058 568.679C88.9631 567.363 87.3977 566.558 84.2949 564.429C82.1177 560.283 80.869 553.495 81.2432 548.829C81.7354 542.69 82.9415 541.931 87.0134 538.255C86.8655 536.181 86.5197 533.831 86.2657 531.742C87.1264 529.627 88.2285 527.469 89.2274 525.404C86.4202 520.388 85.6409 518.276 84.1048 512.743C82.4005 513.254 79.9524 514.208 78.2778 513.66C72.5553 511.789 69.7116 502.012 71.5273 496.88C78.82 491.52 160.852 481.457 175.116 479.674C173.672 473.455 173.23 459.707 172.415 452.484C161.31 452.531 149.873 454.261 138.864 455.706C121.381 458.002 103.903 460.614 86.3528 462.325C79.6097 462.982 70.8054 464.523 64.1665 463.299C62.7109 463.03 61.4626 462.213 60.6631 460.963C58.3976 457.42 55.452 393.194 55.2078 384.709C54.8129 370.988 55.196 357.259 54.7187 343.536C53.7564 315.867 51.5012 287.918 51.899 260.244C51.9806 254.566 52.3932 249.077 53.8426 243.577C62.0496 241.436 76.2606 240.252 84.6913 239.634C98.1779 238.712 111.673 237.914 125.174 237.241C172.269 234.298 219.441 232.734 266.628 232.553C266.479 225.757 265.136 207.524 268.961 202.491C276.079 199.254 359.215 204.341 371.21 205.801C369.816 198.725 360.726 167.446 361.276 163.536C364.771 159.346 377.056 157.808 382.703 156.231C400.038 151.827 417.568 147.259 435.23 144.345C472.351 138.222 509.711 130.128 545.807 119.187ZM442.125 790.098L581.755 788.02C591.943 787.858 602.133 787.852 612.321 788.002C620.816 788.099 630.598 788.703 638.886 787.395C651.714 785.371 660.125 783.061 662.725 769.151C667.528 743.45 669.793 718.05 673.728 692.283C678.589 661.493 684.176 630.836 687.999 599.889C689.604 586.896 692.571 570.078 691.941 557.207C688.041 552.223 687.326 551.157 680.55 550.501C663.358 548.835 645.908 548.673 628.658 548.421C607.577 547.966 586.489 547.896 565.406 548.211C552.369 548.91 539.505 548.95 526.498 549.298L457.443 551.321C432.818 552.06 334.347 553.424 316.634 565.545C308.807 577.771 326.885 670.974 330.691 690.507C334.528 709.686 337.78 729.25 341.997 748.329C343.899 756.933 348.951 778.847 354.913 784.295C359.892 788.844 381.865 788.971 388.925 789.26C406.647 790.033 424.387 790.313 442.125 790.098ZM714.751 223.687C712.967 233.272 712.216 253.945 711.585 264.347C709.215 300.993 708.018 337.705 707.997 374.427C707.943 389.467 707.517 415.393 710.49 429.741C722.642 432.165 735.598 433.004 747.99 433.764C775.258 435.437 803.395 439.718 830.619 440.613C840.432 441.947 851.441 442.215 861.394 442.783C889.999 444.415 918.423 447.663 946.934 450.111C950.228 420.447 951.008 392.086 954.086 362.844C957.475 333.02 960.431 303.149 962.953 273.239C964.19 259.429 966.807 238.105 965.917 224.998C943.277 221.893 919.319 221.007 896.446 220.475C883.196 220.167 865.629 219.416 852.649 220.277C834.716 221.155 815.581 220.508 797.567 220.52C769.929 220.354 742.296 221.411 714.751 223.687ZM369.593 168.504C371.512 180.214 375.1 192.948 378.218 204.447C385.844 232.574 395.21 260.249 402.244 288.547C403.111 292.032 404.036 295.884 405.193 299.26C409.621 293.071 412 290.558 417.633 285.404C439.392 263.92 460.185 251.465 490.73 245.194C514.013 240.414 536.709 240.901 557.385 254.542C561.587 257.314 564.959 261.004 568.859 264.111C571.617 263.68 574.885 263.092 577.609 262.808C577.393 250.307 575.008 237.987 572.194 225.844C566.008 199.153 559.502 172.53 552.657 146C551.387 141.081 549.801 134.388 546.414 130.452C544.782 128.555 542.706 128.254 540.307 128.558C532.467 130.632 523.594 131.527 516.011 133.267C499.512 137.052 482.781 141.465 466.293 144.67C444.131 148.978 386.865 157.024 369.593 168.504ZM588.103 263.668C610.045 268.287 634.74 278.169 647.577 297.545C660.401 316.902 655.413 339.001 656.75 361.085C671.237 365.696 687.149 369.382 701.128 374.006L701.943 329.125C702.598 297.631 705.753 265.637 707.607 234.183C707.827 230.437 708.036 222.83 710.612 220.16C724.641 215.626 754.746 218.503 769.701 216.447C771.954 210.895 774.557 205.322 776.727 199.905C767.156 197.142 755.437 194.876 745.59 192.674L696.161 181.385C673.232 176.087 638.642 165.674 616.827 164.649C607.954 197.855 598.378 230.868 588.103 263.668ZM272.866 232.897C280.324 232.819 314.64 231.583 319.177 235.848C321.146 237.7 322.097 240.068 322.515 242.691C324.252 253.603 323.402 265.413 324.137 276.498C325.591 296.278 327.178 316.047 328.895 335.806C329.831 346.644 330.626 359.797 332.061 370.411C343.912 371.93 355.79 373.236 367.687 374.33C372.428 374.787 381.913 375.884 386.423 375.756L387.521 365.25C389.476 347.58 392.483 323.699 399.801 307.221C391.816 275.304 382.952 243.614 373.217 212.187C339.413 207.788 307.125 209.214 273.835 206.884C272.316 216.007 272.764 223.656 272.866 232.897ZM385.941 382.32C370.376 380.848 348.422 378.877 332.866 378.465C334.598 396.761 335.751 415.137 337.744 433.435C338.692 442.128 328.895 442.552 322.694 442.991C306.497 444.138 290.273 445.055 274.078 446.231C263.083 446.865 247.782 448.459 237.074 448.174L239.058 471.691C253.808 469.591 268.639 468.017 283.295 465.374C288.632 464.411 296.865 463.194 301.979 461.508C317.279 459.041 342.31 469.819 357.188 474.783C366.439 477.869 378.629 482.308 387.631 486.207C388.647 469.228 387.171 448.412 386.457 431.251C385.828 414.948 385.656 398.632 385.941 382.32ZM99.384 566.285C100.977 569.8 101.81 570.967 104.461 573.775C102.412 574.53 98.8761 575.49 98.4108 577.486C97.6251 580.855 97.3419 584.873 98.6473 588.003C100.389 589.533 103.051 589.092 105.324 588.888C114.429 588.07 123.551 587.049 132.619 585.898C186.312 579.281 240.257 581.119 293.593 572.261C297.886 571.548 302.396 570.805 306.693 570.261C307.553 565.899 308.409 561.532 312.581 559.276C324.019 553.089 344.609 551.201 357.541 549.525C348.554 545.983 323.782 537.425 314.823 537.193C293.051 540.241 271.256 543.67 249.378 545.726C197.988 550.556 149.692 553.334 99.384 566.285ZM140.764 688.712C175.416 687.638 210.083 687.069 244.752 687.005C263.645 686.989 282.732 687.182 301.616 687.024C306.607 686.983 314.651 684.338 321.498 683.921C320.176 675.824 319.08 667.51 317.358 659.522C306.499 659.392 295.639 659.458 284.782 659.72C242.609 661.63 201.154 664.445 159.155 669.064C146.4 670.467 117.155 671.563 106.579 676.182L106.378 676.914C108.745 680.21 117.739 681.24 122.006 682.952C120.31 683.864 118.494 684.528 117.717 686.198C118.844 690.643 136.598 689.02 140.764 688.712ZM385.843 493.518C376.68 488.264 323.868 469.358 313.728 469.078C313.256 469.627 312.778 470.169 312.293 470.706C306.739 469.481 310.074 466.736 300.607 468.187C288.506 469.438 274.827 472.165 262.58 473.919L190.934 483.54C155.468 488.305 119.866 492.654 84.532 498.452C82.0706 498.856 78.9367 499.925 77.1201 501.665C76.6471 502.152 76.962 502.602 77.1092 503.642C82.1551 507.103 88.0552 505.388 93.7875 505.052C121.613 503.424 150.121 503.593 177.877 501.133C193.339 500.7 209.305 499.073 224.7 497.803C243.478 496.253 262.752 495.144 280.758 489.324C290.513 486.171 299.818 482.224 309.183 478.081C310.288 477.601 311.158 477.541 312.311 477.94C313.35 479.677 313.033 480.522 312.82 482.789C316.885 483.365 319.767 482.523 324.169 483.145C327.716 483.646 337.737 487.595 340.285 487.812C345.22 488.231 350.322 485.823 357.014 486.872C367.05 488.445 376.023 491.632 385.843 493.518ZM167.116 549.393C197.648 545.655 228.202 543.579 258.622 539.537C266.31 538.543 273.969 537.336 281.59 535.916C291.046 534.143 309.965 529.946 318.609 530.969C333.225 532.699 357.077 541.151 370.343 547.499C374.673 546.873 379.601 546.283 383.812 545.289C364.759 536.915 324.228 515.312 304.431 518.708C269.255 521.967 232.799 527.687 197.366 531.853C178.276 534.165 159.169 536.335 140.046 538.364C132.543 539.125 92.0057 542.191 87.9599 545.247C86.9383 547.251 86.9442 546.328 87.3335 548.078C88.8449 549.175 89.3602 549.278 91.0759 549.892L91.4424 550.57C89.7433 553.502 87.7896 555.952 88.3079 559.232C91.2966 563.015 101.612 559.607 106.078 558.844C126.277 555.39 146.691 551.288 167.116 549.393ZM150.624 717.002C155.673 716.61 160.723 716.313 165.779 716.058C201.6 714.253 237.271 712.007 273.137 711.478C273.598 710.732 276.067 706.777 276.492 706.453C281.711 702.476 289.205 696.305 294.688 693.133C281.409 690.759 262.793 690.928 249.097 691.25L123.332 695.573C117.553 700.686 113.761 695.895 110.248 705.564C114.455 706.916 122.914 706.631 124.379 710.506C122.744 712.565 121.318 710.786 119.743 712.957C120.313 714.89 120.678 715.817 121.506 717.658C131.375 718.117 140.791 717.516 150.624 717.002ZM684.636 540.928C690.046 541.809 695.65 545.167 699.239 545.073C706.333 544.252 716.885 544.753 724.252 544.859C734.65 544.956 745.048 544.976 755.446 544.92L837.711 544.852C859.899 544.799 881.962 545.248 904.014 542.829C908.002 542.391 921.71 543.497 924.257 540.646C923.488 537.325 920.778 537.481 922.44 534.634C923.858 532.203 926.201 531.224 927.191 528.642C926.162 525.625 918.954 526.65 916.227 526.78C896.068 527.362 876.091 527.149 855.943 527.239C839.251 527.312 822.413 529.983 805.725 530.568C778.648 531.793 751.203 532.732 724.229 535.17C711.373 536.332 697.428 538.766 684.636 540.928ZM772.707 645.088C787.79 646.431 877.215 652.288 884.207 647.175C885.451 646.265 886.536 644.455 886.522 642.849C886.51 641.551 886.266 640.942 885.243 640.126C881.221 636.916 874.588 639.753 872.623 632.55C872.422 631.794 872.24 631.032 872.076 630.266C856.924 627.736 823.024 627.059 807.615 627.715L691.616 634.288L690.001 645.25C715.237 642.758 747.404 643.836 772.707 645.088ZM108.537 641.858C110.416 643.848 126.883 641.447 130.094 640.949C166.9 635.247 203.197 631.393 240.438 629.612C264.234 628.474 288.083 626.67 312 626.422C311.424 621.66 309.996 606.668 308.23 603.262C306.957 602.935 307.577 602.936 306.37 603.204C256.414 609.77 207.041 618.564 157.322 626.582C149.803 627.795 113.434 631.482 109.227 633.374C108.505 635.364 108.243 636.799 109.385 638.72C112.288 639.316 112.239 636.838 114.327 637.603C114.633 639.553 114.829 638.718 114.106 640.251C110.885 640.722 111.462 640.002 108.537 641.858ZM841.374 793.825C849.441 797.199 857.34 800.306 866.061 796.878C872.395 794.389 873.275 789.265 870.31 783.542C862.99 769.41 848.607 757.786 833.675 752.673C823.48 749.182 812.209 747.284 801.554 748.29C788.907 749.245 775.89 753.054 767.1 762.716C765.649 764.31 764.443 767.355 767.004 768.594C780.707 775.22 796.826 775.307 811.129 780.229C823.682 784.393 830.408 788.602 841.374 793.825ZM98.4825 621.514C94.9852 623.439 93.2999 623.606 92.6216 627.771C97.9668 628.846 117.853 625.702 124.621 624.848C146.978 622.16 169.271 618.956 191.481 615.237C202.805 613.246 214.073 610.741 225.389 608.806C243.462 605.862 261.587 603.237 279.753 600.933C288.22 599.816 299.933 597.95 308.199 597.345C307.841 594.882 307.511 592.415 307.208 589.944C306.11 589.977 303.22 589.99 302.314 590.21C275.899 592.855 249.166 594.329 222.648 596.555C190.549 599.06 158.576 602.979 126.823 608.301C117.648 609.856 106.324 611.414 97.3979 613.913C96.5683 614.145 91.9267 617.334 90.9216 618.015L90.7059 618.841C93.2251 620.35 95.6248 620.744 98.4825 621.514ZM656.469 466.48C656.612 471.918 656.844 477.352 657.167 482.781C687.035 478.498 715.257 477.758 745.225 475.473C777.655 472.149 810.28 471.137 842.853 472.446C854.298 473.019 889.243 478.264 897.408 474.884L897.721 474.132C896.971 472.986 896.65 472.502 896.035 471.247C896.747 469.122 898.48 467.396 899.959 465.626C886.98 462.607 862.065 463.103 847.785 462.791C836.495 462.545 821.134 462.303 809.766 462.736L727.482 464.436C702.676 465.18 681.649 466.608 656.469 466.48ZM694.751 615.949C694.168 620.733 693.645 625.042 692.751 629.795C705.135 628.883 723.699 626.415 735.483 626.479C767.243 624.276 799.065 623.089 830.901 622.92C840.351 622.89 849.802 622.964 859.25 623.143C866.075 623.293 882.353 624.857 888.771 619.915C889.407 619.425 889.003 615.407 888.769 614.298C885.56 614.011 885.483 617.485 882.186 614.337C882.224 610.92 885.404 612.415 887.187 609.818C884.7 607.2 855.529 607.63 850.398 607.731C823.437 608.575 797.133 609.221 770.164 611.097C745.695 612.799 719.191 616.193 694.751 615.949ZM315.225 488.229C317.488 490.391 322.118 494.005 320.076 497.563C318.203 497.897 319.132 497.952 317.216 497.163C311.642 491.271 318.69 487.893 306.713 488.629C293.571 491.108 281.178 495.206 267.905 497.218C247.357 500.333 226.545 501.934 205.828 503.504C180.047 505.583 154.224 507.127 128.379 508.137C122.612 508.345 94.2352 508.69 91.1955 511.417C91.814 513.155 93.0814 513.704 94.7149 514.487C95.0686 514.656 95.4242 514.82 95.7817 514.98C95.4211 516.78 94.4167 519.824 95.0141 521.126C97.1575 521.722 118.759 518.738 122.679 518.224C142.615 515.607 162.663 515.291 182.524 513.697C206.793 512.524 231.01 510.436 255.121 507.437C263.946 506.242 272.739 504.822 281.491 503.179C287.232 502.095 304.571 497.697 309.428 498.607C330.649 502.585 351.32 509.784 372.027 515.532C374.959 516.346 377.529 513.921 377.26 510.681C374.441 505.878 355.299 500.065 349.289 498.257C338.55 495.025 326.15 489.988 315.225 488.229ZM696.815 601.311C707.457 599.278 723.026 598.025 734.063 596.87C752.907 594.839 771.766 592.946 790.639 591.19C802.032 590.245 813.434 589.406 824.843 588.672C833.701 588.115 884.008 586.192 888.516 583.21C887.915 580.231 882.543 580.583 880.522 577.751C881.829 577.367 883.475 577.105 884.345 576.276L880.915 575.479C839.656 570.011 795.673 576.195 754.596 580.617C735.637 582.658 717.571 583.906 698.722 586.966C697.859 590.602 697.02 597.439 696.815 601.311ZM861.25 698.348C865.515 698.308 871.379 698.379 875.569 697.933C877.612 696.453 880.673 694.396 882.411 692.695C881.578 690.295 877.915 690.279 876.491 687.816C877.375 686.607 880.305 685.774 881.872 685.181C873.637 683.911 865.33 684.219 856.992 684.147C849.076 684.045 841.161 683.857 833.249 683.582C807.719 682.712 782.179 682.212 756.635 682.081C748.043 682.071 735.077 681.7 726.821 682.224C718.784 682.634 705.047 683.01 697.577 684.331C704.357 686.359 708.205 687.229 713.576 692.369C714.957 693.689 716.985 696.037 718.278 697.121C749.066 697.761 779.86 698.071 810.655 698.05C827.236 698.129 844.796 699.071 861.25 698.348ZM494.222 503.043C517.28 510.478 543.331 505.229 564.731 494.968C570.727 492.649 594.203 476.831 595.052 470.468C598.948 441.265 603.037 408.59 603.414 379.301C603.747 353.34 552.347 319.617 547.302 298.036C546.217 297.327 546.803 297.445 545.6 297.412C536.482 300.849 520.713 306.325 512.705 310.68C489.286 323.413 449.616 353.023 433.482 373.954C434.111 380.698 434.486 387.765 434.75 394.489C436.129 429.654 441.765 465.531 470.521 489.32C478.218 495.688 484.76 499.752 494.222 503.043ZM685.423 508.752C720.269 505.178 754.883 507.161 789.849 507.072C797.528 507.052 805.199 507.11 812.876 507.327C821.231 507.396 829.586 507.563 837.937 507.827C846.996 508.196 875.748 510.392 882.749 508.322L883.329 507.712C882.464 504.29 884.401 503.373 886.766 500.926C883.393 500.357 880.105 499.778 876.705 499.381C879.01 498.457 882.556 497.272 883.815 495.236C880.593 491.724 820.595 492.369 811.672 492.36C798.534 492.347 780.954 491.537 768.072 492.222C760.134 492.519 750.954 492.452 743.269 493.618C736.081 494.709 727.56 497.271 720.414 499.237C708.778 502.507 697.114 505.679 685.423 508.752ZM658.359 487.096C658.677 493.091 659.715 499.372 660.769 505.296C675.642 503.129 690.388 500.167 704.945 496.425C713.925 494.136 722.236 490.957 731.453 489.652C751.467 486.54 772.343 487.332 792.6 487.324C808.679 487.318 824.741 487.171 840.81 487.175C853.864 487.178 866.052 488.531 879.185 486.825C880.794 484.716 882.221 482.872 883.661 480.627C858.149 477.537 822.84 475.382 797.09 476.711C750.779 479.207 704.525 482.669 658.359 487.096ZM224.212 238.25C206.939 238.924 64.9725 243.62 58.9624 248.673C55.2811 259.154 59.746 320.485 59.7656 335.044C59.8202 375.65 62.4923 417.467 65.6012 457.988C83.6034 456.327 101.586 454.456 119.544 452.376C129.795 451.115 143.155 448.738 153.118 447.88C167.286 446.279 181.465 444.786 195.655 443.401C204.884 442.472 214.482 441.374 223.726 440.905C231.15 440.528 238.784 440.737 246.245 440.499C263.657 439.93 281.058 439.069 298.442 437.917C307.512 437.319 321.179 436.739 329.694 434.675C326.169 414.673 325.822 390.593 324.462 370.194C321.803 330.32 317.563 290.627 315.694 250.699C315.591 248.494 314.47 243.509 313.229 241.782C305.519 238.403 236.545 237.147 224.212 238.25ZM685.048 679.759C704.398 677.375 722.371 677.553 741.878 677.666L792.099 678.007C801.854 677.975 811.609 678.088 821.361 678.348C832.841 678.623 878.664 681.507 885.367 673.488C884.889 672.107 884.544 672.09 883.361 671.012C882.931 667.857 884.667 669.437 883.84 666.675C881.224 665.128 869.604 666.558 864.864 666.427C849.673 665.995 834.487 665.427 819.306 664.724C808.465 664.248 790.718 663.479 780.062 664.219C748.263 665.902 717.847 666.928 686.041 670.043C685.735 673.121 685.469 676.742 685.048 679.759ZM96.0523 527.162L91.494 538.348L151.55 532.186C180.942 529.264 210.287 525.895 239.575 522.08C256.952 519.695 274.244 516.988 291.572 514.282C298.64 513.178 309.278 514.662 315.569 512.358C314.15 510.775 312.26 511.227 310.376 509.127C309.931 507.336 309.907 508.228 310.661 506.371C312.243 505.432 313.616 505.615 315.41 506.256C329.217 511.188 342 516.188 356.146 520.317C350.83 516.492 313.123 502.602 308.859 503.622C260.814 514.24 205.395 516.883 156.441 520.568C135.212 522.167 116.861 524.802 96.0523 527.162ZM461.786 544.972C462.992 537.835 464.756 532.836 467.634 526.2C467.966 525.435 467.861 525.605 467.764 524.691L467.529 524.464C454.439 529.796 444.994 535.233 434.933 544.964L434.821 545.598L435.155 545.747C444.027 545.338 452.906 545.08 461.786 544.972ZM766.156 775.598L764.489 775.209L764.378 775.914C765.446 777.168 766.052 777.917 767.31 779.024C773.977 786.245 803.388 789.766 813.249 792.216C820.461 794.008 828.339 796.243 835.519 798.221C808.817 783.58 792.969 783.93 766.156 775.598ZM107.885 654.437C144.543 648.627 187.671 648.681 224.843 646.998C254.889 645.637 284.705 643.651 314.731 641.891C314.152 638.606 313.734 635.845 313.358 632.532C309.964 632.32 307.052 632.117 303.648 632.204C236.713 636.703 169.256 637.393 103.026 649.335C101.067 649.688 97.8268 652.206 97.0677 654.073C98.7092 656.921 105.214 654.992 107.885 654.437ZM381.202 516.156C383.095 516.456 385.06 516.799 386.957 517.026C389.127 514.918 388.44 503.87 388.227 500.6C378.521 497.5 359.769 490.997 350.319 491.552C364.869 498.067 373.048 493.052 384.255 508.853C383.268 511.37 382.381 513.714 381.202 516.156ZM427.673 315.942C424.951 318.197 422.11 321.986 423.495 325.704C424.693 323.592 428.09 318.179 427.673 315.942ZM686.68 664.925C692.453 663.885 699.794 663.571 705.764 663.157C750.2 660.077 794.755 658.844 839.279 660.438C845.608 660.665 852.257 660.515 858.625 660.506C864.301 660.484 877.686 660.76 881.69 656.881L881.509 656.046C879.543 654.82 876.859 654.39 874.579 654.41C848.084 654.639 821.977 652.154 795.572 650.645C775.805 649.482 756.008 648.902 736.206 648.906C727.371 648.874 713.478 648.525 704.939 649.276C700.198 649.477 693.852 649.413 689.401 650.148C688.558 654.568 687.221 660.582 686.68 664.925ZM434.183 477.364C433.073 481.231 434.39 530.145 435.78 534.509L436.385 535.119C437.83 533.735 438.292 532.834 438.105 530.573C437.463 522.79 436.707 481.773 434.183 477.364ZM656.34 537.027C656.19 534.892 647.828 518.245 646.273 516.762C646.081 523.499 645.85 531.003 646.259 537.736C649.151 537.616 653.634 537.562 656.34 537.027ZM704.902 434.834C701.352 425.347 701.233 393.086 701.177 381.172C686.298 376.694 671.167 372.293 656.354 367.657C656.078 376.044 656.139 385.001 656.303 393.439C656.732 415.459 654.915 438.565 655.539 460.433C686.256 462.122 715.772 458.195 746.487 459.211C759.502 459.642 772.873 459.574 785.884 459.239L787.999 458.994C790.46 455.819 788.575 447.629 788.5 443.252C771.736 441.583 754.284 441.03 737.451 439.387C728.512 438.514 713.209 437.777 704.902 434.834ZM802.064 569.434C804.265 569.188 806.344 569.136 808.552 569.051C815.186 568.904 821.81 568.471 828.407 567.753C824.929 567.286 812.338 567.803 808.741 568.398C806.6 568.439 802.353 568.4 800.409 568.746C788.584 569.696 715.211 574.268 708.372 577.709L708.87 577.476L709.248 577.817C739.811 575.677 771.357 571.726 802.064 569.434ZM280.905 712.218C276.341 719.093 269.925 741.655 274.536 748.189C275.225 746.823 281.89 713.642 281.724 712.677L280.905 712.218ZM450.98 526.14C450.593 519.922 449.042 493.014 447.13 488.785L446.456 488.243C446.424 493.539 445.946 523.789 448.172 526.194C449.253 526.206 449.896 526.21 450.98 526.14ZM418.867 547.83C420.477 547.36 421.916 547.272 422.817 546.231C423.087 541.96 422.078 524.679 420.551 521.26C419.561 525.275 416.097 543.209 416.98 546.555C418.018 547.494 417.61 547.256 418.867 547.83ZM587.539 487.923C590.09 490.965 592.553 495.107 593.771 498.901L595.921 503.344C596.144 498.61 597.057 485.408 594.862 481.516C592.402 483.745 590.103 485.815 587.539 487.923ZM316.822 653.603C316.434 651.217 316.23 648.438 315.023 646.448C314.013 646.202 314.292 646.162 313.308 646.258L237.455 650.449C219.86 651.35 113.165 654.97 105.238 661.106C103.896 663.643 105.802 666.861 107.762 668.517L108.375 668.554C141.008 667.684 172.617 663.112 204.984 659.912C242.15 656.131 279.467 654.026 316.822 653.603ZM463.901 520.146C463.624 515.318 462.622 499.813 459.957 495.379C459.765 495.06 458.815 494.746 458.547 494.634C458.616 499.192 459.219 516.338 460.055 520.465C461.616 520.834 462.216 520.483 463.901 520.146ZM374.657 526.46C370.806 524.931 366.999 523.32 362.997 522.248C365.482 523.843 370.651 525.792 373.536 526.833C377.268 527.996 386.646 533.068 389.208 530.757C389.577 528.498 388.784 525.751 387.523 523.854C382.642 522.086 380.63 528.009 374.657 526.46ZM79.6994 609.866C91.8844 609.35 109.179 606.377 121.367 604.273C137.823 601.432 152.764 599.143 169.383 597.195C192.637 594.399 215.948 592.098 239.299 590.294C262.521 588.499 283.48 587.454 306.808 584.872C306.74 582.232 306.868 579.137 306.077 576.691C305.606 576.62 305.161 576.495 304.731 576.565C295.234 578.73 285.964 579.85 276.266 580.622C234.335 583.959 192.284 585.28 150.374 588.803C132.496 590.306 113.842 592.612 96.0965 595.754C92.7023 596.355 83.3297 600.178 80.6703 602.668C79.9177 603.373 81.4363 604.506 80.5548 606.471L77.1621 607.61L76.9516 608.168C78.1819 609.376 78.0692 609.33 79.6994 609.866ZM388.067 539.488C381.544 533.814 368.034 528.264 359.538 527.114C363.982 529.621 383.023 537.944 388.067 539.488ZM359.253 516.578C362.589 518.214 369.488 521.115 373.152 520.987C370.42 517.969 363.291 516.763 359.253 516.578ZM900.932 561.489C885.217 559.66 861.322 559.279 845.098 559.492C822.192 559.792 798.544 557.864 776.121 558.102C749.243 558.388 728.437 560.173 701.02 558.543C700.899 563.901 700.546 568.959 700.366 574.239C710.961 572.14 728.207 570.948 739.511 569.804C770.076 566.709 800.528 564.27 831.243 563.683C850.222 563.321 883.673 566.968 901.356 563.319C904.093 564.177 906.109 566.951 907.045 567.069L907.432 566.249C906.372 563.981 903.277 562.154 900.932 561.489ZM704.375 610.094C715.702 609.627 727.64 608.501 739.008 607.713C758.134 606.428 777.272 605.327 796.419 604.412C814.724 603.621 833.081 603.358 851.384 602.808C860.442 602.536 879.852 602.165 886.931 596.873C886.793 593.966 883.585 596.463 886.502 591.481L886.061 590.908C883.52 590.847 882.289 590.917 879.76 591.199C854.632 593.067 829.46 593.673 804.365 595.547C770.284 598.091 736.467 603.469 702.305 605.439C699.426 605.605 696.464 605.979 695.902 609.026C697.351 611.58 701.701 610.407 704.375 610.094ZM839.673 567.736C842.955 568.117 850.557 569.254 853.356 568.243C850.171 567.377 843.032 567.407 839.673 567.736ZM770.291 524.926L713.071 524.988C698.109 524.985 680.373 524.899 665.502 526.565C666.8 529.997 667.838 532.463 669.409 535.777C693.087 531.625 721.211 529.091 745.116 527.106C756.847 526.131 770.337 526.909 782.179 525.747C789.543 525.508 796.905 525.229 804.266 524.911C806.946 525.155 821.788 524.029 825.406 523.799C819.999 522.954 804.316 523.892 798.482 524.427L793.079 524.573C786.218 524.463 777.039 524.257 770.291 524.926ZM467.403 544.617C471.416 544.848 475.123 544.617 479.123 544.432C485.412 544.026 491.66 544.127 497.884 543.753C496.612 538.967 490.41 513.915 487.968 512.252C478.597 519.344 471.09 533.617 467.403 544.617ZM540.302 542.549C544.467 537.103 548.245 531.878 549.831 525.071C550.971 520.175 551.784 512.429 548.547 508.299L547.901 508.071C531.452 512.732 510.491 515.108 494.085 509.001C495.884 518.435 499.366 528.021 501.322 537.23C501.884 539.39 502.547 541.728 503.043 543.884C514.989 543.882 528.449 543.574 540.302 542.549ZM473.752 512.315C474.369 509.075 474.55 507.363 473.399 504.292C472.929 503.835 472.71 503.539 472.162 503.214C471.81 506.22 470.831 510.389 473.752 512.315ZM891.24 549.929C883.976 549.479 873.801 550.032 866.179 549.932L795.635 549.549L731.952 549.438C720.95 549.329 709.898 548.743 698.914 548.969L700.462 555.071C730.529 554.428 759.59 553.367 789.791 553.486L840.784 553.867C854.871 554.072 869.634 554.615 883.753 554.105C886.492 554.006 891.314 554.35 893.215 552.531C894.4 551.315 893.752 551.152 895.781 550.487C897.217 550.62 898.284 550.478 899.722 550.385L900.261 549.916L900.428 550.282L900.521 549.948L899.651 550.267L900.865 550.021C897.444 549.141 894.718 549.599 891.24 549.929ZM676.255 748.928C676.529 746.299 677.23 741.233 676.521 738.826C675.519 741.801 674.663 746.008 676.255 748.928ZM592.924 541.559C592.801 534.252 593.855 526.292 594.193 520.09C594.416 516.013 585.476 496.235 582.553 492.741L581.76 492.414C578.631 494.003 575.638 496.094 572.581 497.937C569.405 499.852 566.142 501.258 563.071 502.992C569.72 511.706 580.628 525.248 582.825 536.105C582.984 537.975 583.328 540.936 583.288 542.726C586.494 542.283 589.706 541.894 592.924 541.559ZM621.268 339.12C621.046 342.657 620.903 344.617 623.627 347.164C623.755 344.255 624.415 340.577 621.268 339.12ZM440.452 335.495C442.683 333.377 444.048 332.176 444.954 329.244L444.737 327.863C442.15 330.014 440.011 331.855 440.452 335.495ZM297.71 701.533C296.579 702.672 291.555 707.663 291.064 708.638C285.636 719.416 280.102 743.692 283.779 755.096C285.611 755.384 286.278 755.629 288.083 755.126C289.98 753.541 290.065 747.541 290.512 744.516C292.602 730.385 293.321 715.842 297.735 702.15C297.726 701.945 297.718 701.739 297.71 701.533ZM324.272 703.011C323.032 704.219 320.27 706.897 320.044 708.549C318.488 719.949 315.353 737.868 315.977 749.122C317.221 749.919 318.383 749.524 319.763 749.018C326.413 742.07 328.318 731.197 328.317 721.833C328.316 717.364 326.82 706.699 324.272 703.011ZM556.647 507.163C556.161 525.691 558.792 526.638 549.031 542.968C555.166 542.931 561.725 542.495 567.671 542.545L576.026 542.297C576.461 534.85 574.318 529.89 570.318 523.668C568.155 520.302 560.251 508.413 556.647 507.163ZM797.032 444.124C797.546 449.116 798.097 454.104 798.685 459.089C810.292 458.885 828.625 459.316 839.473 458.427L839.498 447.548L811.951 445.442C808.462 445.183 800.227 444.737 797.032 444.124ZM313.617 693.561C310.347 694.425 304.427 695.512 302.494 698.062C302.508 700.459 302.891 703.136 302.658 705.505C301.89 713.316 292.942 754.86 298.056 758.84C299.574 760.022 301.861 759.826 303.652 759.711C312.564 753.696 309.091 717.57 313.515 706.963C315.4 702.443 320.957 697.827 320.945 696.033L320.94 695.315C319.563 693.66 315.643 693.524 313.617 693.561ZM793.413 511.725C761.871 513.395 729.666 512.381 698.11 514.431C692.586 514.79 682.906 515.714 677.722 517.027C702.349 517.804 727.434 519.03 751.97 519.398C780.702 519.584 809.435 519.26 838.155 518.426C847.956 518.096 858.715 518.343 868.289 517.454C847.121 514.057 815.01 510.966 793.413 511.725ZM216.803 448.221C204.32 448.735 192.452 451.287 180.717 452.118C180.919 461.199 181.098 469.818 181.762 478.891C183.926 478.583 192.178 477.684 193.646 477.322L230.985 472.569C229.972 465.259 230.485 456.026 229.711 447.956C225.574 447.993 220.888 447.926 216.803 448.221ZM959.103 448.997C965.67 434.288 964.215 400.953 965.46 383.2L970.16 322.465C971.724 301.315 972.427 280.879 976.347 259.991C978.519 248.412 984.475 232.723 972.02 226.28C971.316 242.281 968.879 262.098 967.554 278.481L957.528 399.234L954.567 432.196C954.126 436.823 952.363 445.198 953.719 449.131C955.546 450.875 956.95 450.194 959.103 448.997ZM705.423 743.947C711.146 737.339 711.457 727.741 711.435 719.308C711.424 715.148 708.647 709.074 709.425 707.08C710.845 706.33 710.729 706.334 712.322 706.491C720.309 710.837 714.764 732.348 719.29 735.998C720.148 735.964 721.545 735.84 722.004 734.97C726.692 725.974 726.956 712.049 718.038 705.461C716.502 704.326 712.243 702.544 711.257 701.548C701.94 692.139 696.767 690.856 683.196 690.782C680.249 694.387 684.03 722.838 684.125 728.829C684.227 735.143 683.306 745.711 683.845 751.469C685.1 753.268 688.571 754.255 690.106 752.457C698.727 742.359 691.43 716.161 694.898 707.197L695.813 706.383C705.373 707.956 699.243 742.096 702.062 745.69C703.838 745.476 703.738 745.151 705.423 743.947Z"/><path fill="#212021" d="M827.042 229.743C864.353 230.734 901.581 228.281 938.711 233.369C944.015 234.096 950.066 234.177 954.699 236.721C957.347 240.021 954.039 275.493 953.623 281.338L948.214 353.085L944.907 399.11C944.212 408.631 943.577 418.396 942.061 427.832C941.408 431.405 939.747 435.487 936.929 437.909C932.956 441.218 926.612 440.397 921.925 440.521C896.987 441.184 872.608 437.622 847.879 436.299C819.97 432.839 790.663 432.694 762.586 428.948C747.265 426.904 733.586 428.893 718.285 423.471C712.219 406.085 714.384 369.221 714.728 349.763C715.407 311.317 716.505 268.836 721.812 230.723C732.108 230.125 743.126 230.34 753.425 230.286L797.313 230.03C806.344 230.028 818.433 230.389 827.042 229.743ZM727.816 235.358C725.049 257.428 722.906 279.571 721.389 301.762C720.113 323.087 719.777 343.199 719.959 364.514C720.117 383.08 719.384 399.676 722.771 418.183C742.005 423.402 765.703 424.104 785.84 425.684C807.614 427.392 832.947 430.532 854.65 431.112C866.766 432.032 926.526 437.381 933.931 431.843C935.526 430.65 935.875 427.817 936.084 425.982C939.969 391.875 941.098 357.408 944.318 323.224L949.216 273.095C950.105 264.562 952.982 248.055 951.053 240.253C937.33 235.794 901.936 235.283 886.059 234.954C865.589 234.529 841.471 233.982 821.069 234.259L765.882 234.931C755.175 234.975 738.097 234.452 727.816 235.358Z"/><path fill="#212021" d="M273.387 245.791C280.251 245.348 305.111 245.544 311.016 246.766C311.103 247.184 311.19 247.603 311.276 248.021C315.694 282.113 315.744 318.49 316.825 352.543C317.233 365.025 317.787 377.501 318.485 389.97C318.98 399.158 319.695 408.039 319.482 417.271C319.219 428.678 318.144 431.192 306.34 432.227C299.92 432.789 293.49 431.932 287.189 432.238L225.377 435.821C214.338 436.428 203.283 437.085 192.25 437.795C164.817 439.561 137.423 443.132 110.118 446.361C100.791 447.127 82.6735 449.422 74.6463 445.655C72.3009 444.555 71.4672 419.708 71.3281 415.913C70.6702 397.962 60.6547 265.503 67.7234 255.627C72.2903 253.693 113.614 252.273 121.868 251.884C172.348 249.231 222.858 247.201 273.387 245.791ZM71.588 258.577C70.1148 297.571 71.2914 335.6 73.6694 374.521C75.0116 396.489 75.715 419.686 78.9214 441.393C92.1592 443.21 110.225 440.166 123.858 438.959C129.079 438.497 139.741 437.464 144.807 436.601C156.992 435.491 168.937 434.008 181.173 433.094C211.913 430.8 243.089 429.497 273.778 426.809C284.751 425.847 302.596 426.863 311.959 425.39C312.191 414.775 312.426 403.808 311.68 393.22C309.06 356.07 310.538 318.891 307.099 281.745C306.226 272.307 305.897 262.477 303.857 253.234C295.88 251.517 275.368 251.44 266.577 251.361C257.645 251.281 243.701 250.796 234.864 251.222L139.986 255.293C117.453 256.37 93.969 258.02 71.588 258.577Z"/><path fill="#212021" d="M497.467 385.688C506.415 384.881 501.465 396.845 499.015 400.808C494.009 408.847 486.035 414.588 476.823 416.784C467.084 419.077 459.165 417.14 450.857 411.91C445.278 407.926 430.981 396.189 445.591 393.246C451.896 391.976 459.586 392.84 466.126 391.682C476.608 389.828 486.935 387.206 497.467 385.688ZM446.088 400.854C447.227 401.924 449.377 404.082 450.498 404.985C458.242 410.654 463.079 413.304 473.481 411.863C479.733 410.997 487.295 407.058 491.095 401.978L491.064 401.242L490.857 401.09C475.878 407.145 462.303 407.867 447.102 401.312C446.762 401.165 446.424 401.012 446.088 400.854Z"/><path fill="#212021" d="M529.677 384.413C538.55 384.829 549.602 388.208 558.809 389.555C573.46 391.699 610.167 382.885 583.171 406.975C582.016 407.754 580.852 408.519 579.679 409.271C562.051 420.509 545.164 416.205 533.952 398.882C531.483 395.067 528.629 388.964 529.677 384.413ZM574.399 406.233L575.839 405.053L575.454 404.594C570.312 404.502 567.233 406.377 561.779 405.496C555.683 404.512 547.275 401.736 541.741 398.994C549.407 411.662 562.004 412.761 574.399 406.233Z"/><path fill="#212021" d="M507.544 401.971C510.172 402.075 511.22 401.853 512.892 403.979C513.757 409.147 501 428.58 499.084 436.122C502.82 438.965 505.241 439.866 502.917 444.879C493.898 445.547 490.778 437.955 493.821 431.265C497.271 423.684 502.876 408.2 507.544 401.971Z"/><path fill="#212021" d="M497.239 339.343C506.859 338.876 500.654 348.59 496.769 351.772C487.807 359.112 474.269 359.453 463.246 359.75C461.028 358.972 459.283 358.264 459.063 355.698C461.07 353.061 463.978 354.779 466.772 354.435C481.594 352.61 490.529 354.716 497.239 339.343Z"/><path fill="#212021" d="M519.369 340.256C525.722 340.639 525.166 345.768 532.762 348.864C539.982 351.806 556.915 350.769 561.9 354.11C562.787 355.802 562.56 354.866 562.137 357.094C555.446 358.613 544.197 356.717 537.588 355.443C528.469 353.685 520.004 350.792 519.369 340.256Z"/><path fill="#212021" d="M507.267 460.654C514.761 460.159 535.983 464.556 536.434 474.055C534.399 476.779 530.775 473.661 528.622 472.196C521.817 468.008 514.84 464.476 506.865 467.124C505.043 467.729 501.55 468.702 499.731 468.336C497.813 467.95 498.139 467.984 497.148 466.639C497.04 461.299 503.101 461.256 507.267 460.654Z"/><path fill="#212021" d="M313.123 522.878C315.865 522.864 316.937 522.45 318.1 525.168C317.999 527.268 317.544 527.759 316.509 529.682L314.774 529.876C311.908 528.068 312 525.737 313.123 522.878Z"/><path fill="#DDDBDD" fill-opacity="0.019607844" d="M802.064 569.434C771.357 571.726 739.811 575.677 709.248 577.817L708.87 577.476L708.372 577.709C715.211 574.268 788.584 569.696 800.409 568.746L802.064 569.434Z"/><path fill="#B3B3B3" fill-opacity="0.0078431377" d="M420.551 521.26C422.078 524.679 423.087 541.96 422.817 546.231C421.916 547.272 420.477 547.36 418.867 547.83C417.61 547.256 418.018 547.494 416.98 546.555C416.097 543.209 419.561 525.275 420.551 521.26Z"/><path fill="#3B3B3C" d="M869.712 568.332C876.257 569.148 884.004 567.453 892.078 569.26C887.633 569.887 872.73 570.581 869.712 568.332Z"/><path fill="#888A89" fill-opacity="0.36862746" d="M798.482 524.427C804.316 523.892 819.999 522.954 825.406 523.799C821.788 524.029 806.946 525.155 804.266 524.911C802.474 524.633 800.322 524.553 798.482 524.427Z"/><path fill="#757677" fill-opacity="0.22745098" d="M808.741 568.398C812.338 567.803 824.929 567.286 828.407 567.753C821.81 568.471 815.186 568.904 808.552 569.051L808.741 568.398Z"/><path fill="#B3B3B3" fill-opacity="0.035294119" d="M793.079 524.573L798.482 524.427C800.322 524.553 802.474 524.633 804.266 524.911C796.905 525.229 789.543 525.508 782.179 525.747L780.883 524.996C784.788 525.013 789.283 525.18 793.079 524.573Z"/><path fill="#DDDBDD" fill-opacity="0.011764706" d="M900.932 561.489C903.277 562.154 906.372 563.981 907.432 566.249L907.045 567.069C906.109 566.951 904.093 564.177 901.356 563.319C900.055 563.007 900.383 563.204 899.29 562.54L900.932 561.489Z"/><path fill="#757677" fill-opacity="0.24705882" d="M373.536 526.833C370.651 525.792 365.482 523.843 362.997 522.248C366.999 523.32 370.806 524.931 374.657 526.46L373.536 526.833Z"/><path fill="#3B3B3C" fill-opacity="0.81960785" d="M839.673 567.736C843.032 567.407 850.171 567.377 853.356 568.243C850.557 569.254 842.955 568.117 839.673 567.736Z"/><path fill="#888A89" fill-opacity="0.49411765" d="M770.291 524.926C777.039 524.257 786.218 524.463 793.079 524.573C789.283 525.18 784.788 525.013 780.883 524.996C777.292 525.073 773.882 525.005 770.291 524.926Z"/><path fill="#DDDBDD" fill-opacity="0.054901961" d="M891.24 549.929C894.718 549.599 897.444 549.141 900.865 550.021L899.651 550.267L900.521 549.948L900.428 550.282L900.261 549.916L899.722 550.385C898.284 550.478 897.217 550.62 895.781 550.487C895.219 550.202 892.084 550.005 891.24 549.929Z"/><path fill="#888A89" fill-opacity="0.14117648" d="M800.409 568.746C802.353 568.4 806.6 568.439 808.741 568.398L808.552 569.051C806.344 569.136 804.265 569.188 802.064 569.434L800.409 568.746Z"/><defs><linearGradient id="gradient_0" gradientUnits="userSpaceOnUse" x1="766.97949" y1="776.24628" x2="765.52051" y2="777.25372"><stop offset="0" stop-color="white" stop-opacity="0"/><stop offset="1" stop-color="#FDFBFC" stop-opacity="0.031372551"/></linearGradient></defs><path fill="url(#gradient_0)" d="M767.31 779.024C766.052 777.917 765.446 777.168 764.378 775.914L764.489 775.209L766.156 775.598L767.666 777.264C767.565 777.801 767.457 778.517 767.31 779.024Z"/><path fill="#DDDBDD" fill-opacity="0.10588235" d="M880.915 575.479L884.345 576.276C883.475 577.105 881.829 577.367 880.522 577.751L880.915 575.479Z"/><path fill="#212021" d="M352.313 818.157C403.551 818.633 454.936 820.387 506.187 821.112C508.12 821.139 511.762 821.557 513.236 822.718C514.707 825.213 513.946 827.653 513.458 830.453C518.652 840.717 522.25 851.999 527.268 862.435C530.596 869.356 547.018 897.112 547.379 901.109C545.673 905.924 537.449 904.573 533.047 904.312C512.86 903.118 492.872 904.895 472.758 906.249C456.652 907.452 440.52 908.26 424.375 908.674C411.805 909.286 397.283 908.593 384.595 908.156C345.979 906.828 307.525 902.953 268.951 900.403C256.749 899.315 244.406 900.399 232.252 898.928C230.814 898.895 229.521 895.208 230.289 894.273C234.159 889.565 243.163 886.123 248.483 883.462C256.648 879.392 264.709 875.116 272.659 870.639C291.615 859.727 310.228 848.04 328.299 835.685C334.139 831.693 346.672 819.971 352.313 818.157ZM411.919 903.119C438.39 903.184 464.741 900.754 491.137 898.997C506.471 897.976 521.84 898.046 537.067 895.963C531.373 883.026 523.876 872.147 517.415 859.6C512.792 850.621 509.367 836.792 503.835 829.147C486.128 825.9 457.414 827.802 439.075 827.138C418.877 826.408 396.693 824.517 376.688 825.803C369.619 826.434 357.885 826.985 351.365 829.298C345.632 831.332 338.056 838.756 332.388 841.926C317.234 850.4 302.685 859.894 287.855 868.915C275.351 876.522 262.564 881.818 251.813 891.962C284.008 895.573 316.287 898.405 348.619 900.455C368.927 901.824 391.537 903.198 411.919 903.119Z"/><path fill="#212021" d="M723.956 800.295C729.673 799.95 736.45 799.566 742.083 800.75C748.348 802.067 754.694 805.585 760.611 808.049C767.025 810.72 773.561 813.09 779.981 815.747C795.363 822.114 809.879 829.622 824.853 836.776C834.048 841.17 878.922 860.564 881.03 868.891C881.405 870.371 881.131 870.677 880.422 871.924C875.038 875.515 852.843 873.155 845.205 872.911C804.176 871.596 764.454 872.933 723.621 877.89C711.34 879.398 698.761 881.033 686.662 883.67C680.315 885.053 673.561 888.146 667.078 889.297C665.569 889.565 664.037 889.255 662.61 888.748C658.112 887.151 653.269 883.582 649.587 880.58C635.959 869.465 623.554 856.946 610.11 845.511C600.357 837.215 590.552 829.528 580.516 821.599C578.877 820.304 577.705 818.694 576.762 816.841C576.646 815.648 576.827 814.75 577.595 813.774C583.663 806.062 707.952 801.112 723.956 800.295ZM588.198 817.707C609.069 834.576 628.379 853.346 649.066 870.406C652.486 873.226 661.51 881.777 665.486 880.556C683.656 874.972 703.388 874.76 722.171 871.88C725.544 871.362 729.156 871.217 732.546 870.624C768.575 867.294 803.722 864.969 839.943 865.818C848.311 866.014 857.935 866.683 866.159 865.9C843.455 851.423 821.221 841.225 796.709 830.202C779.551 822.486 760.484 813.812 742.338 808.641C736.749 807.048 720.182 806.506 714.308 807.217C681.697 808.956 648.509 809.827 616.21 813.399C608.301 814.274 595.884 815.825 588.198 817.707Z"/></svg>