<svg width="332" height="90" viewBox="0 0 332 90" fill="none" xmlns="http://www.w3.org/2000/svg">
<rect x="2" y="2" width="46.3282" height="64.2" fill="#0E0F12" stroke="white" stroke-width="4" stroke-linejoin="round"/>
<rect x="9.64374" y="11.5251" width="14.1094" height="14.1094" rx="2" fill="white" stroke="white" stroke-linejoin="round"/>
<line x1="11.1437" y1="37.3032" x2="40.125" y2="37.3032" stroke="white" stroke-width="3" stroke-linecap="round"/>
<line x1="11.1437" y1="46.7094" x2="26.0156" y2="46.7094" stroke="white" stroke-width="3" stroke-linecap="round"/>
<line x1="11.1437" y1="56.1157" x2="33.5406" y2="56.1157" stroke="white" stroke-width="3" stroke-linecap="round"/>
<path d="M55.0005 43.869V68.2H50.5565H46.1125V0.0350037H64.9995C67.8275 0.0350037 70.5545 0.607338 73.1805 1.75201C75.8065 2.82934 78.1295 4.378 80.1495 6.398C82.1695 8.48533 83.7182 10.8757 84.7955 13.569C85.9402 16.195 86.5125 18.9893 86.5125 21.952C86.5125 24.9147 85.9402 27.7427 84.7955 30.436C83.7182 33.062 82.1695 35.385 80.1495 37.405C78.1295 39.425 75.8065 41.0073 73.1805 42.152C70.5545 43.2967 67.8275 43.869 64.9995 43.869H55.0005ZM55.0005 9.22601V34.88H64.9995C68.5008 34.88 71.4635 33.6007 73.8875 31.042C76.3788 28.5507 77.6245 25.5207 77.6245 21.952C77.6245 18.4507 76.3788 15.4543 73.8875 12.963C71.3962 10.4717 68.4335 9.22601 64.9995 9.22601H55.0005Z" fill="white"/>
<path d="M110.635 27.396C109.019 26.6553 107.572 26.285 106.292 26.285C103.599 26.285 101.377 27.2277 99.6265 29.113C97.7412 31.133 96.7985 33.456 96.7985 36.082V68.2H88.1125V36.082C88.1125 32.446 89.0215 29.113 90.8395 26.083C92.7248 23.053 95.2835 20.6963 98.5155 19.013C100.939 17.8683 103.532 17.296 106.292 17.296C108.514 17.296 110.635 17.7 112.655 18.508C114.675 19.316 116.796 20.629 119.018 22.447L110.635 27.396Z" fill="white"/>
<path d="M137.566 68.705C134.132 68.705 130.867 68.0317 127.769 66.685C124.672 65.3383 121.945 63.4867 119.588 61.13C117.232 58.7733 115.38 56.0463 114.033 52.949C112.687 49.8517 112.013 46.586 112.013 43.152C112.013 39.6507 112.687 36.3177 114.033 33.153C115.38 29.9883 117.232 27.2277 119.588 24.871C121.945 22.5143 124.672 20.6963 127.769 19.417C130.867 18.0703 134.132 17.397 137.566 17.397C141.068 17.397 144.401 18.0703 147.565 19.417C150.73 20.6963 153.491 22.5143 155.847 24.871C158.204 27.2277 160.022 29.9883 161.301 33.153C162.648 36.3177 163.321 39.6507 163.321 43.152C163.321 46.586 162.648 49.8517 161.301 52.949C160.022 56.0463 158.204 58.7733 155.847 61.13C153.491 63.4867 150.73 65.3383 147.565 66.685C144.401 68.0317 141.068 68.705 137.566 68.705ZM137.566 26.386C133.055 26.386 129.183 28.002 125.951 31.234C124.403 32.7827 123.191 34.6007 122.315 36.688C121.44 38.7753 121.002 40.93 121.002 43.152C121.002 45.374 121.44 47.495 122.315 49.515C123.191 51.535 124.403 53.3193 125.951 54.868C127.5 56.4167 129.251 57.6287 131.203 58.504C133.223 59.3793 135.344 59.817 137.566 59.817C139.788 59.817 141.943 59.3793 144.03 58.504C146.118 57.6287 147.902 56.4167 149.383 54.868C150.865 53.3193 152.043 51.535 152.918 49.515C153.794 47.495 154.231 45.374 154.231 43.152C154.231 40.93 153.794 38.7753 152.918 36.688C152.043 34.6007 150.865 32.7827 149.383 31.234C147.902 29.6853 146.118 28.507 144.03 27.699C142.01 26.8237 139.856 26.386 137.566 26.386Z" fill="white"/>
<path d="M205.676 68.2V60.423C203.522 62.9817 200.963 65.0017 198 66.483C195.105 67.9643 192.075 68.705 188.91 68.705C185.342 68.705 182.009 68.0653 178.911 66.786C175.814 65.4393 173.121 63.554 170.831 61.13C168.475 58.706 166.623 55.9453 165.276 52.848C163.997 49.6833 163.357 46.3503 163.357 42.849C163.357 39.3477 163.997 36.0483 165.276 32.951C166.623 29.7863 168.475 26.992 170.831 24.568C173.121 22.144 175.814 20.2923 178.911 19.013C182.009 17.6663 185.342 16.993 188.91 16.993C192.412 16.993 195.576 17.7 198.404 19.114C201.3 20.528 203.724 22.4807 205.676 24.972V1.136H214.564V68.2H205.676ZM188.91 26.184C186.688 26.184 184.567 26.6217 182.547 27.497C180.527 28.305 178.777 29.4833 177.295 31.032C175.814 32.5807 174.636 34.3987 173.76 36.486C172.885 38.506 172.447 40.627 172.447 42.849C172.447 47.3603 174.063 51.2993 177.295 54.666C178.777 56.2147 180.527 57.4267 182.547 58.302C184.567 59.1773 186.688 59.615 188.91 59.615C191.132 59.615 193.253 59.1773 195.273 58.302C197.361 57.4267 199.145 56.2147 200.626 54.666C203.858 51.2993 205.474 47.3603 205.474 42.849C205.474 40.627 205.037 38.506 204.161 36.486C203.286 34.3987 202.108 32.5807 200.626 31.032C199.145 29.4833 197.361 28.305 195.273 27.497C193.253 26.6217 191.132 26.184 188.91 26.184Z" fill="white"/>
<path d="M218.572 68.2V1.035H227.062V68.2L218.572 68.2Z" fill="white"/>
<path d="M255.204 68.705C251.77 68.705 248.504 68.0317 245.407 66.685C242.309 65.3383 239.582 63.4867 237.226 61.13C234.869 58.7733 233.017 56.0463 231.671 52.949C230.324 49.8517 229.651 46.586 229.651 43.152C229.651 39.6507 230.324 36.3177 231.671 33.153C233.017 29.9883 234.869 27.2277 237.226 24.871C239.582 22.5143 242.309 20.6963 245.407 19.417C248.504 18.0703 251.77 17.397 255.204 17.397C258.705 17.397 262.038 18.0703 265.203 19.417C268.367 20.6963 271.128 22.5143 273.485 24.871C275.841 27.2277 277.659 29.9883 278.939 33.153C280.285 36.3177 280.959 39.6507 280.959 43.152C280.959 46.586 280.285 49.8517 278.939 52.949C277.659 56.0463 275.841 58.7733 273.485 61.13C271.128 63.4867 268.367 65.3383 265.203 66.685C262.038 68.0317 258.705 68.705 255.204 68.705ZM255.204 26.386C250.692 26.386 246.821 28.002 243.589 31.234C242.04 32.7827 240.828 34.6007 239.953 36.688C239.077 38.7753 238.64 40.93 238.64 43.152C238.64 45.374 239.077 47.495 239.953 49.515C240.828 51.535 242.04 53.3193 243.589 54.868C245.137 56.4167 246.888 57.6287 248.841 58.504C250.861 59.3793 252.982 59.817 255.204 59.817C257.426 59.817 259.58 59.3793 261.668 58.504C263.755 57.6287 265.539 56.4167 267.021 54.868C268.502 53.3193 269.68 51.535 270.556 49.515C271.431 47.495 271.869 45.374 271.869 43.152C271.869 40.93 271.431 38.7753 270.556 36.688C269.68 34.6007 268.502 32.7827 267.021 31.234C265.539 29.6853 263.755 28.507 261.668 27.699C259.648 26.8237 257.493 26.386 255.204 26.386Z" fill="white"/>
<path d="M306.447 89.713C298.434 89.713 291.499 86.1443 285.641 79.007L293.62 74.26C297.256 78.502 301.532 80.623 306.447 80.623C308.669 80.623 310.79 80.1853 312.81 79.31C314.83 78.4347 316.581 77.2227 318.062 75.674C319.543 74.1253 320.688 72.341 321.496 70.321C322.371 68.301 322.809 66.18 322.809 63.958V61.534C318.23 66.6513 312.743 69.21 306.346 69.21C302.912 69.21 299.613 68.503 296.448 67.089C293.351 65.6077 290.657 63.6213 288.368 61.13C286.079 58.6387 284.261 55.8107 282.914 52.646C281.635 49.4813 280.995 46.2157 280.995 42.849C280.995 39.415 281.635 36.183 282.914 33.153C284.261 30.0557 286.112 27.3287 288.469 24.972C290.826 22.6827 293.519 20.8983 296.549 19.619C299.646 18.3397 302.912 17.7 306.346 17.7C310.049 17.7 313.349 18.508 316.244 20.124C319.139 21.74 321.328 23.558 322.809 25.578V18.609H331.899V63.958C331.899 67.4593 331.226 70.7587 329.879 73.856C328.6 76.9533 326.782 79.714 324.425 82.138C322.136 84.4947 319.409 86.3463 316.244 87.693C313.147 89.0397 309.881 89.713 306.447 89.713ZM306.346 26.891C304.124 26.891 302.003 27.3287 299.983 28.204C297.963 29.012 296.212 30.1903 294.731 31.739C293.25 33.2877 292.071 35.1057 291.196 37.193C290.321 39.213 289.883 41.334 289.883 43.556C289.883 45.778 290.321 47.9327 291.196 50.02C292.071 52.04 293.25 53.7907 294.731 55.272C296.212 56.7533 297.963 57.9317 299.983 58.807C302.003 59.6823 304.124 60.12 306.346 60.12C308.568 60.12 310.689 59.6823 312.709 58.807C314.729 57.9317 316.48 56.7533 317.961 55.272C319.442 53.7907 320.587 52.04 321.395 50.02C322.27 47.9327 322.708 45.778 322.708 43.556C322.708 41.334 322.27 39.213 321.395 37.193C320.587 35.1057 319.442 33.2877 317.961 31.739C316.48 30.1903 314.729 29.012 312.709 28.204C310.689 27.3287 308.568 26.891 306.346 26.891Z" fill="white"/>
<rect x="88.1125" y="17.3" width="8.6" height="20" fill="white"/>
</svg>
