<?xml version="1.0" encoding="utf-8" ?><svg xmlns="http://www.w3.org/2000/svg" xmlns:xlink="http://www.w3.org/1999/xlink" width="600" height="600" viewBox="0 0 600 600"><path fill="#1F2A44" transform="scale(1.17188 1.17188)" d="M248.535 0.86357C292.614 0.769587 326.751 7.33232 367.426 26.8505C466.894 74.5806 523.319 184.48 506.965 292.648C491.05 397.907 406.364 484.606 301.47 503.139C288.508 505.429 277.693 505.989 264.77 507.082C235.884 506.642 211.798 505.347 183.417 496.439C68.5614 460.391 -8.02059 348.563 4.55951 227.313C11.2563 162.767 42.5975 107.212 89.6068 63.6628C133.596 24.1131 189.957 3.29458 248.535 0.86357Z"/><path fill="#F6F7F9" transform="scale(1.17188 1.17188)" d="M226.173 19.1563C288.009 11.7286 352.204 28.2684 401.24 67.2296C403.482 69.0107 405.991 70.8208 408.324 72.4354L408.108 72.6139C395.449 82.8507 386.31 88.7017 384.248 107.839C380.186 145.546 402.905 137.026 402.216 128.018C402.15 124.92 401.113 121.787 400.664 118.736C398.169 101.764 408.15 92.2936 421.746 85.4462C439.501 100.127 460.145 131.151 469.557 151.214C528.572 277.017 471.613 423.621 341.32 474.643C195.533 531.732 37.328 431.952 20.8983 277.93C18.5443 255.291 19.667 224.141 25.1652 201.752C26.1188 198.748 26.7783 195.373 27.6011 192.295C51.8714 101.516 131.95 29.4697 226.173 19.1563Z"/><path fill="#6E7380" transform="scale(1.17188 1.17188)" d="M25.1652 201.752C26.1188 198.748 26.7783 195.373 27.6011 192.295C51.8714 101.516 131.95 29.4697 226.173 19.1563C226.181 25.1374 225.366 39.5113 221.898 44.0984C230.649 49.608 222.208 63.3937 218.252 69.6524C191.9 111.343 158.182 90.5067 137.904 119.892C132.51 127.709 132.316 134.649 129.232 143.022C121.314 164.523 102.959 183.342 80.447 189.141C64.3623 194.149 53.2762 197.581 35.9315 200.308C32.4604 200.854 28.542 201.055 25.1652 201.752Z"/><path fill="#1F2A44" transform="scale(1.17188 1.17188)" d="M80.447 189.141C78.606 188.152 75.995 187.566 74.7769 185.752C71.1907 180.409 73.2353 175.141 78.7569 172.995C102.957 163.589 110.302 148.63 117.239 126.218C123.7 105.66 140.482 90.4796 161.668 86.3347C182.028 82.3516 196.54 75.9112 206.844 56.9886C211.085 49.3974 210.754 41.9637 221.898 44.0984C230.649 49.608 222.208 63.3937 218.252 69.6524C191.9 111.343 158.182 90.5067 137.904 119.892C132.51 127.709 132.316 134.649 129.232 143.022C121.314 164.523 102.959 183.342 80.447 189.141Z"/><path fill="#1F2A44" transform="scale(1.17188 1.17188)" d="M252.894 102.751C254.321 102.481 260.111 102.898 261.764 103C329.712 107.16 366.646 183.907 326.143 238.388C312.597 256.61 286.997 268.39 283.686 293.074C282.581 301.306 284.116 309.778 279.255 317.247C271.774 329.174 254.525 333.459 242.551 325.782C220.571 311.688 230.932 271.368 242.296 253.392C257.091 227.421 294.776 217.012 290.815 185.443C286.135 148.144 230.745 140.627 221.614 181.45C218.44 195.642 215.553 209.944 197.871 212.058C183.997 213.717 170.957 204.552 170.007 190.088C168.72 170.485 179.586 147.179 191.8 132.085C208.161 113.651 228.7 104.564 252.894 102.751Z"/><path fill="#6E7380" transform="scale(1.17188 1.17188)" d="M248.535 119.453L253.786 119.433C258.979 119.436 265.046 119.436 270.146 120.441C302.847 126.885 325.993 155.594 326.148 188.789C326.394 241.673 270.028 246.116 266.554 294.653C265.827 300.608 268.332 305.28 263.577 309.982C259.597 313.917 252.863 314.535 249 310.373C245.724 306.844 247.282 296.728 247.439 292.069C248.189 269.824 260.602 254.468 276.767 240.693C297.101 225.649 311.473 207.711 307.079 180.853C298.152 126.28 221.359 120.966 205.495 177.124C203.564 183.223 202.325 203.716 189.415 194.068C184.505 190.397 186.999 183.353 187.789 178.355C192.686 148.219 217.687 122.859 248.535 119.453Z"/><path fill="#1F2A44" transform="scale(1.17188 1.17188)" d="M445.294 182.539C448.608 182.33 452.455 184.069 453.646 187.356C456.654 195.653 447.548 200.275 443.583 206.308C427.273 231.129 461.097 255.491 422.067 287.898C394.899 310.455 399.968 312.002 395.606 345.707C393.213 364.196 383.281 379.632 366.617 388.262C350.043 396.846 334.23 401.746 329.616 423.987C328.305 430.307 328.681 436.671 321.648 439.199C306.704 440.645 312.093 423.187 314.729 415.094C327.237 376.681 359.537 381.498 372.829 360.572C387.034 338.208 372.332 309.217 398.961 285.255C418.593 268.04 428.166 266.399 422.874 238.248C419.998 222.778 421.904 208.789 430.649 195.604C434.113 190.382 438.782 183.969 445.294 182.539Z"/><path fill="#1F2A44" transform="scale(1.17188 1.17188)" d="M61.9629 258.551C67.3469 258.135 72.869 260.748 77.56 263.114C97.2505 273.045 105.404 293.358 103.075 314.7C101.741 326.924 98.6083 340.026 102.644 352.075C111.178 377.552 156.206 378.584 158.944 388.225C160.308 393.03 158.295 397.826 153.353 399.213C149.389 399.447 145.044 397.684 141.312 396.476C93.5485 381.013 80.6844 367.723 85.8669 317.774C90.8851 269.409 58.3082 280.9 55.3424 267.93C54.2629 263.209 57.4254 259.474 61.9629 258.551Z"/><path fill="#1F2A44" transform="scale(1.17188 1.17188)" d="M252.531 352.049C269.13 350.628 283.751 362.904 285.222 379.499C286.694 396.095 274.462 410.752 257.872 412.275C241.209 413.804 226.474 401.507 224.996 384.84C223.518 368.173 235.86 353.476 252.531 352.049Z"/><path fill="#6E7380" transform="scale(1.17188 1.17188)" d="M253.795 368.465C261.323 367.738 268.011 373.261 268.719 380.791C269.427 388.321 263.887 394.994 256.355 395.684C248.85 396.37 242.206 390.854 241.5 383.351C240.794 375.848 246.294 369.189 253.795 368.465Z"/></svg>