<?xml version="1.0" encoding="utf-8" ?><svg xmlns="http://www.w3.org/2000/svg" xmlns:xlink="http://www.w3.org/1999/xlink" width="1024" height="1024" viewBox="0 0 1024 1024"><path transform="scale(2 2)" d="M178.822 396.08L174.084 396.755C162.201 398.346 148.766 397.482 136.712 397.618C126.63 397.732 112.372 399.992 108.994 387.687C106.902 380.064 111.066 375.372 115.333 369.949C131.01 350.022 130.604 322.664 121.433 300.057C110.11 272.15 106.905 259.782 110.282 227.81C117.266 161.695 148.954 83.7253 224.444 76.5124C231.222 76.2012 254.57 79.7536 255.508 79.5935C270.217 77.0808 282.602 75.0407 297.673 77.6828C367.777 89.9729 398.497 173.415 402.732 235.811C404.362 259.823 401.644 278.465 390.598 299.668C379.554 320.868 383.526 350.553 395.72 370.325C399.429 376.282 404.146 379.281 402.387 387.526C399.632 400.448 381.834 397.996 371.629 397.625C359.394 397.181 344.577 398.818 332.812 396.08C319.047 411.93 306.51 420.679 286.763 427.764C246.648 441.889 206.203 426.366 178.822 396.08ZM228.175 88.5003C158.756 89.4391 127.843 171.367 122.069 229.169C119.227 257.621 121.621 270.325 132.316 295.407C143.61 321.894 142.844 354.513 124.574 377.789C121.574 381.611 117.184 385.96 124.976 385.711C158.989 384.625 190.257 393.358 208.093 356.26C182.649 331.718 167.111 312.156 159.561 275.558C133.379 265.061 131.841 226.901 161.509 218.775C161.998 215.684 163.082 213.609 166.332 213.078C201.622 207.304 254.173 193.637 269.854 159.056C268.248 150.09 275.559 147.137 281.966 156.206C299.256 179.02 321.011 197.254 343.765 214.472C350.735 219.746 361.073 223.206 365.807 228.937C379.211 245.162 371.171 266.174 353.494 275.558C351.816 279.171 351.448 282.366 350.402 286.16C343.777 310.185 324.849 341.969 303.483 356.26C309.576 371.406 323.441 383.537 339.941 385.397C345.494 386.023 388.338 386.434 390.934 385.168C390.401 382.225 387.338 378.485 385.783 375.879C369.274 348.207 367.079 324.095 379.677 294.2C381.114 290.79 382.929 287.567 384.427 284.189C401.564 245.529 384.219 177.063 364.318 142.739C344.133 107.924 309.403 82.2333 267.356 89.7962C256.166 91.8089 258.384 92.8969 246.68 90.2481C240.776 88.9122 234.226 87.8972 228.175 88.5003ZM277.597 170.112C258.21 201.075 208.606 220.867 172.442 223.873C160.26 272.265 183.372 326.537 225.194 353.468C229.099 355.983 233.497 358.479 237.938 359.855C251.625 363.806 268.822 363.785 281.311 356.792C323.062 333.415 349.193 283.656 341.798 235.932C341.319 232.84 340.686 228.864 339.634 225.979C318.092 208.828 299.82 196.285 281.346 174.164C280.544 173.204 278.541 170.738 277.597 170.112ZM158.194 232.72C150.366 238.606 149.433 249.606 155.042 257.359C155.721 258.22 156.589 259.391 157.313 260.176C157.441 253.51 157.009 247.179 157.807 240.504C157.948 239.319 158.646 233.667 158.362 232.88L158.194 232.72ZM353.494 233.866C355.382 244.538 355.28 249.412 355.249 260.176L357.625 257.359C361.137 249.618 361.873 238.876 353.494 233.866ZM217.662 363.459C211.398 379.136 202.723 382.613 190.924 391.507C220.147 421.948 257.93 428.587 295.517 411.04C304.722 405.814 313.7 399.697 320.562 391.507C307.518 384.587 300.139 376.284 293.311 363.459C277.806 374.091 261.532 376.184 243.098 373.561C232.491 372.052 226.775 367.749 217.662 363.459Z"/><path transform="scale(2 2)" d="M216.541 242.885C211.829 242.41 210.651 244.081 207.284 247.013C196.751 256.182 190.159 232.968 213.7 230.599C230.548 229.611 239.318 248.385 227.692 248.735C223.315 249.156 221.676 244.092 216.541 242.885Z"/><path transform="scale(2 2)" d="M299.436 242.885C290.495 241.264 288.503 252.285 282.38 248.187C272.895 241.839 287.453 231.753 295.517 230.599C308.523 229.374 322.164 242.857 311.842 248.232C307.66 250.409 304.11 244.606 299.436 242.885Z"/><path transform="scale(2 2)" d="M269.854 294.81C248.784 304.521 227.864 289.137 243.344 282.498C249.304 281.872 253.298 289.639 265.231 283.507C272.526 279.759 279.083 289.554 269.854 294.81Z"/><path transform="scale(2 2)" d="M300.199 316.53C297.978 317.456 295.366 319.066 293.147 320.206C270.482 331.849 239.755 332.057 217.633 319.318C214.208 317.073 207.288 314.438 206.268 310.136C205.366 306.329 207.538 303.448 211.156 302.533C214.294 302.542 216.601 304.119 219.036 305.877C238.741 320.098 273.079 320.42 292.992 306.268C302.305 299.649 310.331 307.437 300.199 316.53Z"/></svg>