<?xml version="1.0" encoding="utf-8" ?><svg xmlns="http://www.w3.org/2000/svg" xmlns:xlink="http://www.w3.org/1999/xlink" width="1024" height="1024" viewBox="0 0 1024 1024"><path fill="#1B1819" d="M697.763 143.21C728.85 141.757 764.023 144.722 795.034 147.169C816.916 148.895 835.058 149.653 856.914 150.12C856.646 154.039 856.976 160.019 856.952 164.199C856.889 174.888 857.265 185.775 856.973 196.459C854.926 265.431 856.019 334.46 860.249 403.333C862.821 444.332 867.533 484.274 870.191 524.903C872.141 525.011 874.396 525.253 876.324 524.916C877.086 524.782 877.975 524.462 878.436 523.819C881.714 519.244 881.517 503.764 882.208 497.637C884.293 479.155 888.649 450.042 900.38 435.533C905.89 428.717 913.969 426.456 922.354 425.685C938.468 424.203 984.484 424.361 997.096 435.246C1003.54 440.809 1005.43 450.703 1005.91 458.804C1006.68 471.623 1002.94 484.565 1000.42 497.054C998.535 506.353 996.829 515.688 995.307 525.054C992.954 539.387 990.701 553.736 988.549 568.101C980.004 627.472 983.033 629.238 920.999 632.557C921.049 650.046 920.089 667.634 920.666 685.165C920.819 689.806 921.178 696.439 920.659 700.846C942.531 707.465 962.949 718.17 980.833 732.395C986.528 732.102 1000.49 730.838 1004.62 734.007L1004.68 734.809C1001.08 738.262 993.552 737.62 988.492 737.688C990.153 741.732 991.598 745.289 990.864 749.8C988.781 762.603 970.043 764.083 964.027 753.575C961.306 748.822 962.135 744.926 963.479 739.998C950.76 739.775 938.471 740.435 925.782 741.045C926.406 747.973 926.429 754.339 920.027 758.802C916.81 761.011 912.832 761.815 909.01 761.029C898.44 758.957 896.229 750.145 897.967 740.828C896.294 740.924 884.714 741.692 884.414 743.48C881.81 759.003 873.808 766.578 859.335 755.89C854.77 758.574 851.564 760.441 846.702 762.659C848.111 772.874 847.934 774.889 837.784 778.373C838.753 786.324 839.794 794.311 841.18 802.199C842.273 808.414 843.694 814.604 844.53 820.859C844.772 822.67 845.589 828.425 844.351 829.709C838.519 835.761 785.068 842.931 774.273 843.005C771.139 843.026 766.364 842.88 764.2 840.236C763.358 839.207 763.265 838.088 763.481 836.823C764.225 832.454 770.039 828.742 773.305 826.193C763.669 826.13 709.974 831.079 703.871 826.502C702.873 825.754 702.302 824.984 702.184 823.702C701.336 814.459 747.528 800.506 754.742 791.525C756.204 789.704 756.544 787.483 756.129 785.223C755.272 780.564 751.39 776.693 749.744 772.291C747.131 765.305 746.562 750.788 745.924 743.011C729.43 742.814 711.165 743.97 694.432 743.991C677.381 744.013 660.121 744.007 643.098 744.509C643.434 749.748 643.887 764.779 642.718 770.218C642.437 771.53 638.716 772.375 637.369 772.727C641.636 775.799 646.086 778.61 650.693 781.143C663.381 788.022 691.66 800.054 695.154 812.826C702.061 838.074 652.562 812.976 648.525 811.855C634.783 808.037 625.673 807.429 614.057 800.947C614.49 790.541 614.637 783.504 613.924 773.115C598.864 770.244 601.72 757.797 601.504 745.195C593.164 744.878 582.311 745.639 573.467 745.666C573.715 751.891 574.624 761.578 572.171 767.262C570.797 770.446 569.362 770.918 566.298 772.139C566.786 777.145 571.267 803.648 566.868 805.862C545.79 816.276 520.604 821.464 497.583 826.027C482.282 829.06 472.293 821.793 487.704 808.986C503.676 795.711 522.567 787.957 540.892 778.871C542.687 775.838 543.03 774.719 544.104 771.431L540.046 768.999C538.683 762.27 538.032 753.631 536.836 746.397C523.362 745.554 503.595 746.529 489.757 746.747C457.748 747.321 425.744 748.133 393.747 749.185C393.399 752.959 392.739 757.272 392.05 761.005C387.055 788.09 382.642 815.232 379.354 842.592C385.804 844.531 392.027 847.175 398.528 849.042C410.532 852.491 423.231 855.154 434.901 859.556C438.133 860.775 442.253 863.135 443.493 866.611C443.935 867.848 443.678 869.012 443.17 870.175C442.266 872.245 440.007 873.867 437.94 874.59C426.356 878.638 352.751 883.596 343.216 878.396C339.886 876.579 339.068 872.054 338.14 868.717C327.782 870.775 295.952 873.617 286.936 866.508C280.335 860.188 291.396 848.173 291.261 843.311C290.421 813.118 296.041 780.983 297.154 750.997C274.626 752.386 253.381 751.37 231.687 752.551C231.972 759.688 232.507 768.391 231.411 775.283C230.645 780.098 216.811 779.611 213.338 778.261C205.368 775.163 214.689 756.869 206.296 754.257L205.508 754.852C204.156 760.549 208.723 765.639 203.428 771.403C197.949 777.368 187.794 779.088 181.538 773.339C176.821 769.003 176.91 762.168 176.954 756.215C168.825 755.667 146.32 756.926 137.62 757.505C139.023 763.619 139.322 769.817 134.568 774.661C128.897 780.441 118.363 780.633 112.858 774.5C108.659 769.822 109.177 764.569 109.512 758.793C102.018 758.932 86.6251 758.757 79.9469 760.009C82.9316 765.04 85.6834 771.665 82.4476 777.078C74.3582 790.608 48.7866 783.284 55.6477 765.966C56.6714 763.382 57.8748 761.724 59.4017 759.494C53.2107 759.346 28.4469 762.276 24.9436 759.638L24.8621 758.639C29.5712 754.131 57.0722 754.617 65.1042 754.429C81.9669 740.712 100.42 729.075 120.064 719.769C120.026 698.624 119.148 677.518 118.912 656.341C105.266 655.223 91.1934 658.39 77.6899 656.376C61.8765 654.018 59.6388 636.55 56.2289 623.907C53.9004 615.275 51.8521 606.218 49.7212 597.437C47.1148 586.746 44.3595 576.092 41.456 565.478C36.0775 545.792 28.9994 527.056 24.9152 506.915C17.0996 468.372 37.4797 456.427 72.5978 452.308C86.6666 450.658 101.266 447.88 115.669 450.955C125.348 453.021 129.201 460.493 133.772 468.188C130.337 421.226 129.088 369.757 128.027 322.723C126.772 283.499 126.075 244.259 125.936 205.016C125.919 197.509 125.28 167.427 127.156 162.803C128.37 161.836 129.736 161.604 131.273 161.543C145.966 160.969 160.734 160.686 175.423 160.186L306.018 156.881L530.655 148.637L625.154 145.253C649 144.563 674.036 144.403 697.763 143.21ZM156.703 562.583L188.014 561.455C187.071 557.06 184.312 545.503 186.683 541.347C187.627 539.692 192.875 538.992 194.889 538.77C230.553 534.837 267.907 537.173 303.339 535.644C304.043 517.444 304.426 499.234 304.486 481.021C290.027 481.042 273.581 480.7 259.284 481.31C258.504 469.164 258.466 456.489 257.465 444.501C255.596 422.1 254.927 401.189 254.693 378.753C264.994 377.474 274.731 378.02 285.045 378.528C284.341 374.14 282.986 369.059 285.598 365.289C289.741 362.879 300.022 362.324 304.777 363.158C308.265 363.769 307.519 373.381 307.441 376.433C309.522 376.547 311.72 376.711 313.793 376.739C316.099 370.825 318.656 365.13 321.219 359.326C315.999 359.156 310.457 358.809 305.314 358.701C304.288 351.973 303.369 333.565 303.018 326.208C302.151 308.062 299.064 282.197 300.157 264.629L305.3 262.58C306.851 250.974 307.42 249.358 312.916 238.646C310.222 237.421 306.74 235.541 306.151 232.357C308.363 229.598 313.378 232.262 316.181 233.062C316.014 229.455 315.234 223 317.319 220.242L318.145 220.211C320.361 222.455 320.979 225.668 321.812 228.695C327.449 223.842 336.623 215.264 344.226 214.394C345.411 214.84 345.851 215.693 346.634 216.727C351.875 213.977 343.926 180.238 349.724 178.714C358.201 176.486 377.739 178.13 387.451 177.182C423.686 175.771 459.564 176.684 495.795 175.36C513.087 174.73 530.375 173.977 547.657 173.099C563.341 172.325 577.71 171.17 593.394 172.569L593.511 185.124C608.456 190.132 616.48 195.672 623.673 209.921C633.175 228.744 634.06 244.558 628.501 264.488C628.211 265.527 627.366 267.191 626.882 268.216C628.264 277.344 630.103 288.157 624.508 296.381C621.16 301.302 612.812 304.671 606.968 303.923C604.913 302.182 605.38 295.25 605.317 292.359C602.366 294.616 594.985 299.339 594.889 303.527C594.865 304.579 595.175 305.308 596.001 305.942C599.033 308.267 604.224 309.762 607.726 311.58C612.238 313.922 616.586 316.654 620.843 319.431C634.403 328.277 637.673 335.039 642.133 350.298C647.15 367.466 662.699 443.653 655.795 456.42C654.291 459.201 651.225 460.771 648.277 461.543C643.307 462.846 637.717 462.672 632.6 462.992C630.346 485.096 631.088 507.403 634.804 529.309C656.631 528.694 680.132 528.886 701.841 527.326C703.565 523.543 704.028 516.749 706.708 514.825L707.659 514.914C712.381 522.006 699.282 543.348 709.88 563.262C711.103 566.029 712.127 568.203 713.537 570.885L711.841 563.626C710.464 558.032 707.904 548.576 709.944 542.681C710.227 541.865 712.759 539.721 712.919 538.821C713.386 536.196 711.962 534.275 714.577 532.349C718.2 532.89 718.056 540.063 720.622 542.551C721.654 538.756 719.322 517.583 718.527 512.882C714.596 512.545 707.857 512.465 704.843 510.387C698.924 500.76 708.982 434.028 712.647 419.757C714.035 414.353 717.164 402.329 718.978 396.671C703.13 395.753 683.064 396.452 667.073 397.625C666.278 391.176 665.972 373.898 665.699 367.191C665.294 357.269 661.785 318.654 664.258 311.847C667.881 309.763 683.266 311.331 687.977 311.611C687.705 295.8 687.401 280.817 687.522 264.914C679.732 265.367 649.448 267.493 643.07 265.661C640.349 262.671 640.995 236.517 641 231.511C641.008 223.021 638.336 188.398 641.063 183.139C645.016 182.145 654.909 182.441 659.563 182.247C675.445 181.586 692.567 182.329 708.351 181.441C709.277 198.915 709.949 216.401 710.367 233.894C710.566 240.26 712.215 256.735 709.858 262.555C708.953 264.789 695.118 264.282 691.851 264.307C691.815 277.824 691.352 298.024 692.565 311.076C697.058 310.323 702.014 309.598 706.431 308.633C703.784 307.594 700.542 306.896 699.531 304.048C701.677 299.636 713.8 303.226 714.962 308.609C716.575 316.076 706.33 325.614 700.947 329.238C686.131 320.689 684.98 319.564 668.353 315.009C667.433 337.788 671.106 369.513 671.603 393.067C675.637 392.468 680.985 392.282 685.166 392.29C696.534 392.31 708.499 391.204 719.784 391.414C722.136 374.615 729.159 349.451 740.67 336.993C734.284 338.241 718.57 342.279 713.072 338.603C711.102 334.706 721.431 325.034 724.368 321.179C738.297 302.894 730.219 288.075 730.852 267.173C726.141 259.557 724.281 254.211 726.536 245.093C735.951 207.028 797.997 202.681 816.605 234.895C829.111 256.39 816.701 280.852 831.422 301.379C837.413 309.877 841.501 312.891 851.493 315.939C852.347 303.348 851.181 281.941 851.161 268.263C850.89 230.493 851.163 192.72 851.983 154.957C844.714 154.63 837.401 154.414 830.125 154.189C809.505 153.551 789.02 151.115 768.47 149.742C749.912 148.447 731.312 147.839 712.709 147.92C661.999 147.815 614.55 150.752 564.245 152.51C446.479 157.626 328.655 161.345 210.801 163.668C190.559 164.093 170.702 165.091 150.499 165.763C144.344 165.968 137.302 166.519 131.254 166.538C130.755 237.574 131.939 308.611 134.803 379.591C135.817 409.804 137.212 440.46 139.419 470.641C139.782 475.601 139.487 480.345 139.844 485.267C142.041 495.3 145.156 505.093 147.414 515.315C150.795 530.621 152.717 547.611 156.703 562.583ZM307.534 542.743C306.084 555.978 306.543 570.565 305.839 583.953C303.992 619.046 306.927 654.203 305.874 689.245C304.938 720.364 302.274 751.646 300.049 782.695C298.762 800.114 296.193 820.11 295.825 837.252C307.327 840.368 313.539 840.605 325.15 838.115C330.284 812.771 337.364 784.518 341.34 759.492C343.053 748.704 342.138 713.685 342.097 701.74C342.01 676.091 345.159 635.183 339.591 610.97C338.243 605.592 336.625 600.285 334.743 595.069C333.276 591.117 328.01 579.875 329.953 576.236C333.924 576.066 336.238 583.613 337.492 586.781C352.627 624.992 346.418 669.846 347.064 710.108C347.436 733.347 347.476 756.853 346.805 779.586C346.488 791.506 345.991 803.421 345.316 815.327C344.783 823.626 343.126 836.409 344.064 844.205C351.004 849.079 366.494 844.416 373.793 841.584C383.509 785.659 391.132 729.391 396.647 672.898C400.512 635.299 405.292 597.294 404.171 559.442C404.068 555.936 404.606 543.368 402.789 541.034C370.65 553.68 339.13 560.81 307.534 542.743ZM409.514 560.434C409.432 566.706 409.324 572.986 409.261 579.259C408.919 613.546 403.885 647.959 400.485 682.034L397.062 718.026C396.338 726.299 395.777 735.78 394.537 743.894C402.982 743.732 411.429 743.655 419.875 743.663C458.676 742.623 497.483 741.853 536.294 741.353C534.366 731.608 532.937 719.91 531.52 709.892C527.21 680.107 524.363 650.129 522.989 620.065C522.064 599.316 522.041 578.534 520.99 557.972L508.397 558.213C484.318 560.313 457.744 558.889 433.478 559.851C426.963 560.109 415.384 559.722 409.514 560.434ZM934.803 625.951C944.796 625.179 965.283 625.314 971.636 617.541C978.766 608.815 980.62 588.46 982.284 577.31L988.783 533.497C990.82 521.332 992.975 509.188 995.248 497.065C997.791 483.27 1006.03 449.23 993.744 439.664C983.496 431.686 950.284 429.433 937.15 430.238C927.186 430.542 912.38 430.026 905.344 437.829C899.459 444.699 896.229 454.437 894.143 463.115C886.967 492.972 884.866 523.682 880.943 554.076C878.946 569.551 876.087 584.911 874.317 600.482C873.587 606.904 872.845 620.783 878.281 625.795C886.169 631.695 902.137 628.915 911.595 628.492C919.159 627.992 927.378 626.37 934.803 625.951ZM98.3768 651.576C110.44 650.533 122.774 651.047 134.877 651.028C140.831 651.019 147.282 651.494 153.123 650.179C156.021 649.527 158.35 648.568 160.261 646.246C164.892 640.619 163.959 633.867 163.136 627.169C160.241 603.624 154.758 580.598 150.092 557.377C145.818 536.105 136.723 472.697 121.07 459.775C114.778 454.58 101.884 454.052 94.1173 455.084C93.8439 455.12 93.5714 455.162 93.2984 455.201C77.4011 456.254 46.0879 459.742 35.1439 471.734C29.334 478.101 27.6201 489.68 28.5763 497.973C31.2422 521.09 41.3068 544.313 47.3469 566.908C51.2443 581.872 54.9893 596.874 58.5814 611.914C60.783 620.889 62.8873 630.117 65.814 638.874C71.1992 654.988 85.256 652.609 98.3768 651.576ZM636.584 555.971C640.595 597.447 641.442 641.754 642.486 683.472C642.948 701.923 642.443 721.848 643.255 739.988C665.4 739.508 690.088 738.864 712.125 738.84L744.864 738.503C741.647 706.887 736.59 674.22 732.785 642.439L728.291 603.799C727.075 592.806 725.947 580.682 723.705 569.9C720.933 567.023 720.13 566.154 717.888 562.925L716.706 561.233C719.004 566.549 720.493 571.152 718.346 576.875C717.385 579.435 714.576 581.22 712.273 579.592C706.141 575.259 702.5 561.465 700.808 554.876C696.896 554.993 692.852 555.059 688.954 555.25C671.648 556.167 653.463 555.033 636.584 555.971ZM229.044 564.597C230.101 593.63 229.835 622.329 230.255 651.32C230.885 677.122 231.187 702.931 231.16 728.74C231.187 735.184 231.556 741.596 231.493 748.044L249.125 747.991C262.952 747.792 284.436 748.122 297.545 746.525C304.407 686.876 298.843 623.43 301.454 563.45C295.858 562.952 288.844 563.169 283.118 563.25C265.453 563.721 246.55 563.453 229.044 564.597ZM526.229 334.525C529.222 349.342 530.207 367.768 530.995 382.908C531.733 397.085 530.622 409.266 534.717 423.201C541.857 422.373 549.322 421.488 556.4 420.297C558.135 417.431 561.657 410.999 565.84 413.104C566.508 416.649 563.339 418.446 560.735 420.249C578.586 419.2 596.723 417.313 614.606 416.705C616.183 416.837 617.332 417.137 618.698 416.424C624.515 406.536 629.555 345.808 629.654 332.477C623.359 326.125 608.884 318.56 600.467 313.834C597.228 321.525 588.525 344.165 581.519 347.199C575.324 349.88 562.709 316.839 556.537 313.428C543.179 320.111 537.269 323.767 526.229 334.525ZM215.075 564.714C212.42 570.604 214.256 588.027 214.269 595.558C223.519 602.983 226.454 622.854 215.546 629.588L214.911 629.989C214.782 630.066 214.654 630.144 214.525 630.222C213.826 644.603 213.227 768.883 216.341 773.269L218.124 773.679C220.821 773.758 223.611 773.874 226.3 773.904C226.785 759.108 226.242 744.776 226.066 729.986C225.987 707.87 225.721 685.756 225.269 663.646C224.781 630.76 225.495 597.452 224.004 564.58C221.028 564.601 218.051 564.645 215.075 564.714ZM652.248 453.878C652.43 447.507 652.288 441.248 651.747 434.896C650.384 418.918 641.836 351.45 634.218 341.985C634.015 341.733 633.765 341.525 633.538 341.295C632.742 359.089 631.763 373.218 629.06 391.036C628.421 395.383 627.624 399.704 626.669 403.993C625.272 410.045 622.46 413.871 627.302 419.094C629.369 421.324 632.955 424.279 634.157 426.891C633.978 428.519 634.325 427.86 633.073 428.929C630.55 428.492 628.666 426.741 626.488 425.353C620.909 421.798 615.838 421.982 609.657 422.315C610.172 424.892 611.324 429.409 609.624 431.495C603.946 438.468 580.526 446.982 572.089 449.861C575.139 450.009 577.632 450.005 580.616 450.717C602.236 454.317 632.255 462.794 652.248 453.878ZM190.435 544.157C191.121 548.774 191.815 555.669 192.783 559.943C197.999 559.5 202.763 559.414 207.979 559.309C229.39 558.099 252.959 559.081 274.608 558.343C282.473 558.075 293.866 558.535 301.382 557.674C301.635 551.923 302.138 546.381 302.64 540.652C297.501 540.503 291.02 540.318 285.885 540.721C267.205 541.229 248.523 541.642 229.838 541.959C216.332 542.283 203.882 542.407 190.435 544.157ZM882.969 712.048C887.694 708.982 892.655 706.294 897.805 704.011C900.382 702.944 902.943 701.839 905.487 700.696C906.373 678.535 905.624 656.09 905.967 633.907C896.843 634.923 889.55 634.79 880.497 633.253C881.833 659.377 881.724 685.925 882.969 712.048ZM409.032 539.561C409.15 544.831 409.299 550.101 409.48 555.369C413.777 555.206 418.076 555.097 422.375 555.041C455.348 554 488.432 554.355 521.216 553.413C520.461 548.995 520.335 542.103 520.474 537.517C515.311 537.432 511.163 537.54 506.04 537.781C482.558 539.28 458.858 538.832 435.369 539.335C428.367 539.485 415.31 538.954 409.032 539.561ZM122.712 774.064C129.922 772.968 132.214 771.004 134.166 763.897C132.694 760.031 131.071 757.895 128.64 754.555C128.892 749.914 130.036 741.103 128.384 737.126C127.173 736.155 127.087 736.32 125.483 736.211C122.621 741.588 123.58 749.292 124.895 755.095C112.142 758.6 110.238 770.801 122.712 774.064ZM134.503 736.403C134.365 741.327 133.992 747.828 134.228 752.636C146.891 752.24 163.57 752.423 175.618 751.52L176.53 751.177C174.775 748.15 149.128 740.003 144.244 738.706C141.019 737.848 137.771 737.08 134.503 736.403ZM169.438 637.905C185.444 634.621 191.498 633.135 206.757 627.303C209.898 626.135 212.186 625.403 215.039 623.624C217.871 610.518 218.221 600.437 201.956 597.978C193.591 596.713 185.15 596.086 176.754 595.044C172.752 594.521 167.305 594.073 163.493 592.993C166.638 610.276 168.037 620.607 169.438 637.905ZM308.424 413.603L309.001 398.904C302.809 399.086 278.702 401.198 275.072 398.282L274.991 397.549C277.12 395.107 279.194 394.997 282.462 394.868C291.283 394.52 300.929 394.039 309.733 394.133C310.337 389.324 310.761 385.907 311.92 381.157L308.013 381.203C291.849 382.178 275.663 382.746 259.471 382.906C259.47 403.146 261.191 423.467 262.497 443.666C263.208 454.652 263.411 465.519 263.958 476.467C276.849 475.501 293.425 477.053 305.127 475.93C305.637 466.923 305.88 454.235 306.837 445.623C307.335 436.69 308.017 427.115 308.322 418.21C294.718 418.028 284.552 420.19 270.669 417.424C285.424 410.838 294.695 414.928 308.424 413.603ZM796.961 814.492C805.416 808.939 809.19 806.401 815.845 798.666C814.623 792.343 813.272 785.817 812.172 779.491C804.134 773.589 801.146 752.185 799.288 742.47C796.512 742.287 793.99 742.067 791.199 742.231C790.274 742.379 788.664 742.398 788.512 743.025C786.208 752.513 791.153 767.399 786.462 776.202C785.63 777.763 782.992 779.319 781.377 780.212C781.679 794.375 783.203 808.69 783.488 822.305C788.031 819.791 792.523 817.186 796.961 814.492ZM323.098 354.985C324.223 351.078 325.442 346.371 326.71 342.575C329.151 333.812 329.529 331.275 339.207 331.219C338.491 326.55 337.815 321.875 337.177 317.194C324.06 307.878 312.322 297.372 308.212 281.163C307.559 278.586 306.504 271.658 305.11 269.864C304.494 281.686 306.816 303.661 307.709 316.123C308.518 327.426 308.894 343.4 310.084 354.148C314.263 354.32 319.005 354.393 323.098 354.985ZM509.446 363.238C510.118 360.679 512.687 351.949 512.342 349.867C510.496 353.46 507.657 359.254 509.446 363.238ZM613.428 250.374C603.91 247.611 597.899 246.372 589.182 241.709C582.506 238.138 567.984 222.018 563.272 220.946C547.478 228.538 551.667 234.543 543.856 244.624C547.087 260.251 550.774 286.598 564.738 295.512C570.858 299.419 579.004 300.401 586.025 298.695C592.094 297.2 597.479 293.696 601.304 288.754C607.092 280.828 608.446 277.291 611.261 267.815C613.003 268.07 615.135 268.446 616.854 268.583C620.88 266.631 623.499 264.702 624.915 260.307C625.768 257.66 626.323 254.331 623.293 253.192C618.564 254.192 618.524 258.871 615.131 257.38C613.542 255.281 613.582 253.016 613.428 250.374ZM157.662 567.693C158.961 574.079 160.242 581.034 161.716 587.337C164.944 587.745 168.164 588.202 171.377 588.709C183.458 591.101 197.676 591.374 209.548 594.318C208.888 585.415 208.956 575.181 208.934 566.162C207.046 566.163 204.133 566.07 202.335 566.221C187.314 567.4 172.211 566.673 157.662 567.693ZM811.403 824.364C822.471 822.559 828.982 820.809 838.315 814.325C835.626 802.67 833.876 791.333 832.34 779.474C830.022 779.501 824.896 779.436 822.821 779.713L818.467 780.074C817.132 782.57 822.746 796.9 818.67 804.14C814.688 811.211 799.511 817.622 799.455 823.387C801.671 826.05 808.264 824.693 811.403 824.364ZM520.226 797.935C536.109 798.895 550.551 797.709 561.704 784.958C561.312 780.568 561.06 776.165 560.947 771.758C550.208 770.766 549.133 770.257 546.533 780.826C540.473 786.952 532.363 788.395 525.856 792.675C524.534 794.089 521.737 796.538 520.226 797.935ZM372.676 354.74L372.378 355.56C374.273 357.759 380.27 361.222 383.004 362.296C382.218 359.251 381.632 357.357 380.544 354.408C378.151 354.543 375.011 354.814 372.676 354.74ZM125.394 722.192C122.11 724.892 118.092 726.679 114.381 728.742C99.4155 737.065 83.8969 745.481 70.7854 756.59C87.796 749.672 108.13 733.672 125.767 729.997C131.997 729.589 137.162 731.218 143.132 732.659C157.09 736.028 169.775 742.189 183.061 747.37C184.253 747.835 184.228 747.713 185.328 747.335L185.003 747.798L185.46 747.411C180.799 740.397 139.631 725.016 130.079 721.542C130.06 706.048 130.115 674.765 128.807 657.601C128.539 657.313 128.27 657.024 128.001 656.736C126.259 656.353 125.888 656.339 124.174 656.245C124.814 678.222 125.22 700.206 125.394 722.192ZM520.096 532.511C520.435 511.483 520.987 486.281 518.549 465.356C514.993 466.075 512.108 466.91 508.513 466.511C504.319 466.046 502.14 465.03 497.844 465.217C476.701 466.958 453.177 466.006 431.735 466.92C424.968 467.208 417.872 466.957 411.124 467.485C412.313 480.08 413.275 523.125 410.937 534.542C417.194 534.459 429.476 533.9 435.119 534.217C463.093 533.142 492.668 533.807 520.096 532.511ZM768.492 384.515C776.899 373.981 783.643 363.749 791.209 352.591C794.561 347.227 801.011 338.666 800.029 332.532L799.578 332.048C792.671 332.914 783.939 365.794 767.174 352.804C757.859 345.587 760.966 330.582 757.004 327.287C752.343 344.588 760.18 369.307 768.492 384.515ZM413.965 383.259C413.039 372.436 411.445 354.515 410.911 344.05C410.275 331.605 412.671 248.009 409.482 243.52C405.732 245.458 398.811 246.205 396.892 249.035C396.279 255.777 404.209 260.646 403.606 265.654C398.972 269.355 393.852 261.014 391.981 257.892C381.022 258.183 376.311 260.73 365.712 256.055C365.855 265.906 366.858 272.192 362.135 281.063C359.965 279.118 356.366 275.198 353.634 275.198C344.039 280.759 367.884 294.76 359.892 300.231C359.109 300.217 358.687 300.389 358.31 299.844C354.934 294.972 355.696 294.428 350.951 290.182C352.457 302.287 352.397 309.349 343 318.084C343.451 322.878 343.537 326.506 343.585 331.289C352.311 333.072 361.15 333.801 369.76 336.23C369.9 332.701 369.988 329.17 370.026 325.639C376.974 323.139 378.201 322.647 383.174 316.995C387.376 311.114 387.963 309.523 390.395 302.671C392.206 304.582 393.447 305.464 393.402 308.231C393.314 313.592 387.594 319.821 383.919 323.42C381.017 326.261 375.898 328.941 375.205 332.94C376.355 337.32 380.153 337.828 382.088 342.984C384.475 349.344 386.798 356.69 389 362.745C391.471 369.541 407.195 379.316 413.965 383.259ZM585.035 335.373C588.943 327.695 592.203 319.929 595.418 311.94L591.255 309.194L590.886 302.506C580.069 305.216 577.83 304.767 567.067 302.184C566.608 307.943 567.209 309.018 561.53 311.426C568.57 321.682 574.222 332.585 581.016 342.731C582.319 340.424 583.938 337.744 585.035 335.373ZM442.096 385.265C435.499 385.384 424.54 385.2 418.393 385.847C422.274 389.164 425.59 391.466 429.75 394.378C432.682 396.291 435.738 398.353 438.704 400.18C442.006 395.003 444.221 391.03 446.706 385.404L442.096 385.265ZM498.149 240.788L493.325 240.736C466.982 241.642 441.01 240.753 414.48 241.982C415.29 267.577 414.962 293.179 416.12 318.664L422.28 318.397C441.785 317.548 460.612 317.507 480.121 317.332C485.676 308.856 490.631 302.275 499.96 297.749C500.363 283.55 499.82 270.88 498.814 256.718C498.45 251.589 498.682 245.74 498.149 240.788ZM118.142 738.502C113.65 740.398 91.0084 750.686 89.3126 753.845L89.9459 754.045C101.214 754.036 106.858 754.097 117.966 751.625C118.653 747.279 119.222 743.415 118.838 738.997L118.142 738.502ZM847.247 756.947L855.236 752.341C853.487 746.453 854.891 742.622 853.771 739.462C852.62 739.089 853.188 739.153 852.075 739.217L844.164 739.559C844.352 742.889 844.829 755.011 846.851 756.93L847.247 756.947ZM207.973 633.035C191.75 638.721 185.554 640.904 168.395 643.684C165.234 649.168 161.734 653.778 155.305 655.581C151.01 656.784 137.437 654.873 135.408 657.616C133.231 660.56 134.25 712.319 136.206 717.629C136.593 718.678 137.386 719.089 138.372 719.543C144.933 722.563 152.201 724.222 158.879 727.19C172.943 732.078 187.278 740.741 199.638 748.925C203.063 748.612 206.494 748.355 209.928 748.157C208.968 733.77 209.755 635.531 208.453 633.132L207.973 633.035ZM585.376 183.733C587.195 183.656 586.45 183.985 587.732 182.819C588.298 180.761 588.118 179.682 588.042 177.511C581.725 177.501 574.558 177.349 568.321 177.625C565.843 179.549 566.441 182.335 566.399 185.351C573.542 183.405 577.94 183.265 585.376 183.733ZM787.512 737.66C790.305 737.583 795.486 737.573 798.055 737.21C796.54 730.243 795.112 723.257 793.771 716.254C792.584 709.74 788.471 682.312 786.065 678.318C786.135 691.407 786.379 704.494 786.797 717.577C787.002 723.948 787.587 731.464 787.512 737.66ZM418.534 380.115C428.27 379.913 437.992 379.87 447.731 380.019C449.402 380.045 449.936 379.385 450.919 378.218C460.241 362.823 465.484 348.787 473.678 334.407L477.278 332.676C477.762 329.121 478.214 325.561 478.633 321.997C466.408 321.656 455.015 322.07 442.821 322.218C434.052 322.715 425.834 323.388 417.105 324.105C416.572 340.284 417.9 356.442 418.17 372.613C418.212 375.121 418.299 377.616 418.534 380.115ZM699.397 549.549C699.624 546.73 700.995 533.955 700.139 532.207L699.639 532.217C685.431 533.001 671.217 533.699 657 534.312C650.264 534.549 640.785 534.329 634.392 534.827C634.781 539.231 635.357 546.904 636.15 551.169C655.278 549.188 679.478 551.244 699.397 549.549ZM743.88 243.293C733.991 263.644 728.668 297.979 752.66 311.289C759.545 315.108 771.196 308.509 774.658 310.985C774.526 314.046 769.068 316.009 766.513 317.365C763.093 319.18 763.099 319.621 762.903 323.602C762.548 330.789 765.077 351.523 775.755 349.278C782.318 347.898 790.109 336.477 792.273 330.129C792.492 328.758 792.705 327.99 791.637 326.905C786.192 321.373 786.679 315.231 786.636 307.451C784.355 308.552 781.425 310.288 778.849 309.357C779.242 305.504 789.805 300.261 792.303 297.155C792.549 296.85 793.373 293.62 793.507 293.093C797.182 291.27 804.518 287.994 803.08 282.56C799.549 279.523 795.502 283.064 792.514 285.313C792.665 283.539 793.237 278.215 792.133 277.345C788.189 274.238 778.97 270.159 774.564 267.882C773.855 270.208 773.374 272.523 771.203 273.84C770.628 274.194 769.933 274.296 769.28 274.121C767.981 273.786 767.273 273.006 766.561 271.995C765.842 268.967 767.862 266.94 769.741 264.749C766.533 261.523 759.952 258.213 755.729 254.956C752.138 252.187 746.262 244.963 743.88 243.293ZM539.681 263.092L541.543 263.476C544.993 261.095 540.268 246.874 537.868 245.27C531.036 252.284 531.52 256.935 539.681 263.092ZM503.399 235.99L510.019 235.887L532.411 234.888C533.837 210.232 539.089 197.523 561.896 186.826C561.917 183.23 561.865 182.102 561.257 178.545C559.948 178.449 557.585 178.209 556.364 178.234C538.205 178.833 520.054 180.173 501.942 180.481C501.927 196.475 501.423 220.623 503.399 235.99ZM578.949 551.773C584.302 549.444 583.702 541.589 580.292 538.278C578.135 541.869 575.185 546.247 576.175 550.434C577.459 551.848 576.676 551.258 578.949 551.773ZM192.471 749.402C188.121 753.116 178.288 761.286 184.274 768.108C185.893 769.954 188.608 771.352 191.05 771.823C205.789 769.18 201.919 756.366 192.471 749.402ZM337.85 843.59C338.528 836.117 342.76 793.559 340.613 788.789C337.254 804.856 333.036 821.722 330.862 838.046C330.722 839.096 331.048 839.857 331.608 840.715L332.833 841.46L337.85 843.59ZM688.883 316.575L695.001 320.338C696.758 321.496 698.56 322.721 700.336 323.836C703.829 320.391 707.264 317.264 709.466 312.83L709.421 312.107L708.749 312.093C702.204 313.546 695.334 314.92 688.883 316.575ZM488.078 331.375L489.816 333.959L490.156 333.342C492.434 329.288 494.31 328.971 497.323 325.781C503.492 319.25 507.224 309.662 499.518 302.973C496.02 306.438 476.831 323.554 483.702 330.848C484.37 331.558 486.731 331.085 488.078 331.375ZM69.444 759.311C67.5601 760.707 65.4078 762.148 63.9265 763.972C59.1918 769.802 58.931 778.231 68.0316 779.191C68.5506 779.25 69.0717 779.286 69.5937 779.301C73.2615 777.905 76.0008 776.882 77.7193 772.917C78.7325 770.629 78.6974 768.013 77.6232 765.753C76.2997 762.949 72.3316 760.143 69.444 759.311ZM334.888 335.287C333.221 339.452 332.055 342.857 330.697 347.14C342.977 345.698 347.901 348.096 359.981 349.847C364.086 350.442 369.988 350.149 374.126 349.896C376.67 349.642 376.759 350.05 378.464 348.751C379.051 346.286 377.847 344.344 376.819 341.856C367.219 339.029 347.203 338.083 334.888 335.287ZM394.273 181.777C380.075 182.33 366.508 182.165 352.378 182.146L353.087 217.369C364.584 216.085 366.292 218.394 377.146 220.616C378.507 220.895 384.355 219.675 386.123 219.337C389.505 218.755 391.656 217.916 394.619 219.56C397.139 223.211 393.31 228.387 391.207 231.727C397.325 232.962 403.688 234.111 409.756 235.387C409.217 218.831 408.335 198.163 409.303 181.857C403.595 181.405 399.84 181.726 394.273 181.777ZM525.59 240.227C518.219 240.582 510.065 240.331 502.971 240.915C503.075 252.281 503.726 263.79 504.005 275.175C504.202 283.225 504.04 291.573 504.501 299.563L508.32 302.035L509.82 307.472C524.303 307.673 539.513 306.95 553.712 307.404C556.758 307.058 558.171 306.9 561.202 306.063L563.045 299.556C559.529 296.808 556.092 294.198 552.809 291.164C552.603 294.028 552.862 298.149 550.576 300.071C547.203 299.344 547.944 292.393 547.972 289.681C543.635 282.255 540.145 275.188 539.204 266.494C523.586 259.172 529.933 252.973 532.295 240.316C530.489 240.251 527.273 240.038 525.59 240.227ZM575.228 556.014L574.676 646.265C574.228 676.808 573.202 710.426 573.592 740.84C578.651 740.136 591.755 740.489 597.755 740.409C598.458 740.241 599.928 740.156 600.236 739.477C602.921 733.555 588.126 613.239 586.786 599.716C585.236 585.215 584.201 570.664 583.683 556.09L575.228 556.014ZM508.51 461.256C518.695 459.299 529.929 458.411 539.831 455.354C554.303 450.885 568.519 445.05 582.893 440.043C590.412 436.82 597.967 433.681 605.558 430.629L605.02 422.103C591.652 422.675 578.298 423.529 564.966 424.663C558.467 425.24 517.593 430.569 514.446 429.727C515.076 426.029 526.683 423.971 529.806 423.469C528.428 417.317 527.199 411.242 526.913 405.248C526.465 395.854 525.802 345.165 521.658 339.834C519.31 345.008 517.352 351.727 515.763 357.211C509.065 380.381 506.265 404.487 501.547 428.096C500.48 433.438 496.596 437.963 495.502 442.872C493.999 449.613 503.501 458.144 508.51 461.256ZM684.183 186.714C680.553 186.878 677.409 186.515 674.658 188.826C673.949 192.08 681.175 193.311 683.343 195.745L683.107 196.45C678.259 198.221 661.632 200.453 658.491 195.938C660.628 192.862 669.654 194.758 668.906 189.213C667.667 187.716 667.098 187.333 664.77 187.159C658.165 186.666 651.115 187.547 644.476 187.5C644.953 209.35 644.859 231.276 646.092 253.08C646.227 255.996 646.422 259.088 646.483 261.994C665.253 259.992 689.066 261.151 707.196 258.275C705.281 238.626 705.33 218.3 704.184 198.554C703.954 194.591 703.913 190.515 703.937 186.544C698.649 186.303 689.536 186.334 684.183 186.714ZM830.509 326.845C833.137 329.515 837.86 334.333 835.796 338.176C831.382 341.11 823.872 336.807 820.328 339.028C820.707 341.925 826.388 349.436 827.996 352.639C836.457 369.487 834.017 389.954 835.108 408.053C837.138 441.745 837.922 475.281 842.227 508.764C842.561 511.334 840.627 514.119 839.372 516.267C840.596 518.881 842.638 523.604 844.203 525.771L845.375 525.984C851.826 525.723 858.516 525.544 864.941 525.174C862.316 489.176 858.401 453.6 855.771 417.663C853.574 387.633 854.537 356.789 851.87 326.697C845.935 327.87 836.345 328.545 830.509 326.845ZM480.864 180.79C466.765 181.525 452.411 181.168 438.271 181.336C430.274 181.431 420.921 180.73 413.072 181.512C413.443 199.3 413.524 219.208 414.363 236.851C418.997 236.73 424.561 236.442 429.125 236.578L498.086 236.021C497.862 218.139 497.683 198.306 496.963 180.506C491.948 180.09 485.964 180.551 480.864 180.79ZM509.827 312.084C507.066 324.005 504.038 327.223 494.423 334.202C494.324 337.547 493.869 341.55 492.861 344.779C484.073 372.924 475.809 401.52 465.126 429.011C463.475 433.26 460.531 439.15 457.568 442.547C439.559 438.747 425.191 432.168 408.392 427.355C409.866 437.833 410.725 451.397 411.441 462.035C420.154 461.994 433.314 462.258 441.619 461.393C451.982 460.321 466.056 460.593 476.597 460.48C482.903 460.413 494.04 460.231 499.983 460.806C495.671 457.258 491.266 452.024 490.533 446.263C489.586 438.813 494.982 433.79 496.4 427.342C500.614 408.187 503.469 388.494 507.888 369.369C494.014 347.575 531.691 321.15 547.39 312.131C534.869 312.014 522.348 311.998 509.827 312.084Z"/><path fill="#1B1819" d="M201.849 243.74C213.845 244.325 219.902 239.058 220.026 254.69C225.43 254.04 239.748 251.89 244.165 253.711C245.716 257.093 246.272 292.171 246.174 297.34C245.819 316.082 249.873 339.447 247.336 357.637C236.219 360.401 222.102 360.534 210.471 360.974C197.554 361.138 184.103 361.674 171.21 361.793C168.866 326.144 163.938 293.217 165.871 257.017C177.643 255.466 184.156 255.493 195.912 255.429C195.639 249.075 194.845 245.793 201.849 243.74ZM170.078 261.026C170.225 270.815 173.253 354.017 176.13 357.018C199.627 356.32 219.997 355.936 243.593 353.905C242.839 325.658 240.797 297.418 240.669 269.127C240.656 266.187 240.646 261.046 239.822 258.367C238.848 258.16 239.225 258.117 238.694 258.223C216.425 259.298 192.382 260.867 170.078 261.026Z"/><path fill="#1B1819" d="M207.481 270.257C211.124 270.153 227.407 268.902 228.739 272.625C225.621 276.044 209.447 275.462 204.375 275.388C199.247 275.539 188.394 277.533 184.399 274.738L184.414 273.937C188.496 270.222 201.569 270.452 207.481 270.257Z"/><path fill="#1B1819" d="M199.868 286.26C204.779 286.04 218.321 284.518 221.353 288.272L220.83 289.122C216.09 291.633 208.252 291.404 202.875 291.506C198.21 291.817 185.919 294.211 183.194 290.593L183.495 289.641C187.062 286.861 195.512 286.458 199.868 286.26Z"/><path fill="#1B1819" d="M208.202 302.263C211.776 302.024 217.311 300.683 218.966 304.379L218.468 305.26C214.037 308.067 199.38 307.976 193.876 308.203C190.672 308.456 185.209 309.601 183.811 305.855C186.25 302.099 203.593 302.595 208.202 302.263Z"/><path fill="#FDFDFD" d="M724.984 503.472C732.846 503.486 740.803 504.724 748.634 505.512C767.732 507.433 787.729 506.946 805.648 499.372C808.396 498.211 810.494 496.59 813.405 495.782C817.54 499.45 809.817 510.638 821.046 518.297L821.624 518.684C816.973 528.652 813.132 539.288 814.892 550.392C815.534 554.445 816.827 558.373 821.337 559.195C825.455 556.483 819.803 547.878 819.71 543.784C819.524 535.683 823.84 526.983 827.019 519.797C829.595 519.329 834.458 518.124 836.202 520.577C844.219 531.848 843.622 551.599 843.523 564.477L842.711 566.266L842.156 566.047C841.677 562.44 840.755 548.234 837.057 547.421C833.215 550.966 836.088 567.321 834.195 569.839C832.318 562.924 834.953 545.763 829.27 540.444C827.535 540.164 828.321 540 826.837 540.98C823.022 547.343 823.652 567.582 824.256 575.416C829.318 577.824 827.572 579.624 831.286 582.049C834.125 581.209 835.844 577.967 839.228 576.494L839.905 576.898C841.184 580.976 838.394 581.591 834.541 582.492C824.936 584.739 817.478 593.908 818.883 603.883C819.869 610.882 828.11 615.499 833.511 618.962C833.277 635.34 834.3 652.296 835.012 668.724C836.452 701.964 836.852 738.11 842.351 770.94C831.12 774.838 824.934 774.564 813.306 774.499C806.446 753.753 802.602 732.581 798.367 711.203C790.53 672.785 784.161 634.081 779.274 595.176C777.77 583.72 776.42 572.211 774.891 560.771C773.231 549.687 774.283 535.26 766.546 526.113C762.299 521.091 753.341 512.308 746.993 509.982C746.291 509.725 746.025 510.18 745.483 510.599L745.393 511.666C749.636 521.862 766.178 525.222 767.223 540.775C769.473 574.291 777.013 607.674 779.765 641.001C782.64 675.827 780.708 711.532 782.508 746.477C782.949 755.163 783.054 764.84 782.472 773.465C774.061 774.116 764.124 773.765 755.68 772.962C752.242 753.587 749.847 732.884 747.235 713.33C742.807 681.12 738.732 648.861 735.012 616.561C730.963 580.918 725.033 538.482 724.984 503.472Z"/><path fill="#1B1819" d="M458.858 262.794C466.324 261.917 471.629 261.652 478.404 264.842C469.278 268.485 454.946 268.408 444.952 268.178C442.053 268.073 428.791 269.403 428.371 266.219C431.413 262.616 453.23 263.116 458.858 262.794Z"/><path fill="#1B1819" d="M393.194 282.951C410.834 285.238 406.971 301.637 389.447 301.52C387.438 301.205 387.434 301.189 385.567 300.359C384.349 298.644 384.507 299.516 384.638 297.764C386.726 295.91 392.716 296.458 395.779 296.481C401.79 290.855 397.641 288.242 393.194 282.951Z"/><path fill="#1B1819" d="M384.621 264.428C387.655 264.525 391.036 264.383 393.145 266.858C398.216 272.808 395.431 280.952 390.391 285.746C388.363 285.295 386.899 284.56 385.467 283.078C384.291 278.784 388.664 277.351 389.777 273.643C390.555 271.05 386.026 266.978 384.621 264.428Z"/><path fill="#1B1819" d="M578.027 273.621C590.9 272.154 589.293 282.685 579.592 286.585C569.108 286.881 566.558 277.678 578.027 273.621ZM580.415 282.434C582.004 280.502 581.924 281.14 582.315 278.962C580.771 276.676 579.507 276.956 576.87 276.968C575.609 278.265 575.124 278.524 574.892 280.316C575.99 283.08 577.804 282.949 580.415 282.434Z"/><path fill="#1B1819" d="M590.451 248.833C597.331 248.974 595.544 255.664 593.086 259.484C585.986 258.2 587.306 253.269 590.451 248.833Z"/><path fill="#1B1819" d="M564.737 248.728C571.594 250.091 570.387 253.995 567.715 258.903C561.162 257.786 562.471 253.259 564.737 248.728Z"/><path fill="#1B1819" d="M561.666 234.569C564.443 234.39 568.169 233.796 569.818 236.635L569.336 237.579C567.678 238.493 566.53 238.285 564.625 238.27C561.948 238.232 559.712 240.982 557.754 239.139C558.139 236.419 559.443 235.8 561.666 234.569Z"/><path fill="#1B1819" d="M573.476 261.866C574.621 262.741 575.76 264.476 576.659 265.695C578.815 265.914 580.061 265.854 581.942 266.821C582.832 268.576 582.566 267.61 582.257 269.928C576.266 269.983 571.089 269.733 573.476 261.866Z"/><path fill="#1B1819" d="M749.837 287.611C758.252 286.916 773.288 291.923 761.516 300.511C751.99 302.768 739.629 296.132 749.837 287.611ZM759.913 296.576C761.411 295.255 761.01 296.039 761.381 294.273C759.486 291.314 754.765 290.933 751.591 290.967L751.273 290.967C748.37 297.764 755.31 297.907 759.913 296.576Z"/><path fill="#1B1819" d="M742.319 257.405C749.177 257.53 749.07 261.452 746.234 266.337C739.769 266.706 740.001 261.786 742.319 257.405Z"/><path fill="#1B1819" d="M755.033 269.394C758.01 271.092 752.822 274.971 752.905 277.268C753.005 280.052 755.634 280.6 755.844 283.18L754.894 284.113C745.964 280.764 749.2 274.047 755.033 269.394Z"/><path fill="#FDFDFD" d="M563.495 452.633C566.997 453.645 577.32 454.791 581.512 455.634C596.901 458.731 611.927 460.818 627.51 462.651C627.488 467.88 627.415 471.784 626.945 477.042C613.376 482.021 603.209 482.924 589.125 484.425C573.058 485.353 538.592 485.911 524.68 474.878C523.072 473.603 524.128 466.559 524.362 464.254C540.778 460.911 548.879 456.251 563.495 452.633Z"/><path fill="#FDFDFD" d="M839.544 620.269C845.397 621.251 851.378 622.818 857.531 623.828C858.368 645.447 859.596 667.05 861.213 688.625C861.811 697.834 862.502 716.055 864.469 723.931C862.072 725.693 859.67 727.679 857.337 729.541L851.241 735.427L843.554 735.394C843.13 710.568 840.849 684.506 840.179 659.573C839.848 647.223 838.37 632.326 839.544 620.269Z"/><path fill="#FDFDFD" d="M861.777 583.713C864.308 583.464 868.443 583.522 871.122 583.49C870.53 599.019 866.782 602.811 869.754 620.218C858.418 618.826 851.389 617.454 840.437 614.588C831.384 611.605 818.296 605.356 827.609 592.815C833.641 584.693 851.992 584.333 861.777 583.713Z"/><path fill="#FDFDFD" d="M863.475 624.877C865.172 624.959 867.446 625.354 869.169 625.6L875.002 630.633C876.808 657.759 877.494 686.979 878.01 714.186L875.714 716.035L869.663 720.068C868.133 707.03 867.378 693.753 866.353 680.65C864.899 662.068 863.608 643.526 863.475 624.877Z"/><path fill="#FDFDFD" d="M374.261 847.565C380.199 847.669 415.235 859.43 422.504 862.18C414.567 864.891 402.996 865.46 394.625 865.544C377.049 865.673 364.322 867.171 346.579 863.035C345.947 860.548 343.887 852.428 347.775 852.011C356.953 851.026 365.273 849.848 374.261 847.565Z"/><path fill="#FDFDFD" d="M744.421 340.477C745.427 342.058 742.148 350.267 741.445 352.594C739.519 359.096 737.795 365.656 736.275 372.264C727.644 409.583 724.233 447.084 720.783 485.113C720.208 491.454 720.923 497.424 720.274 503.672C720.158 504.795 718.318 505.114 717.423 505.429C714.713 496.215 717.081 469.085 718.122 459.266C721.226 429.988 723.899 362.132 744.421 340.477Z"/><path fill="#1B1819" fill-opacity="0.019607844" d="M828.541 781.647C829.792 782.222 829.981 782.197 830.936 783.149L829.894 783.365L830.421 783.923L831.421 785.222L830.926 785.788L829.864 785.405C828.489 783.742 828.916 784.124 828.541 781.647Z"/><path fill="#140F17" fill-opacity="0.0078431377" d="M757.004 327.287C760.966 330.582 757.859 345.587 767.174 352.804C783.939 365.794 792.671 332.914 799.578 332.048L800.029 332.532C801.011 338.666 794.561 347.227 791.209 352.591C783.643 363.749 776.899 373.981 768.492 384.515C760.18 369.307 752.343 344.588 757.004 327.287Z"/><path fill="#FDFDFD" d="M910.728 633.414C913.842 633.505 915.195 633.195 915.528 636.729C917.463 655.994 912.544 685.08 916.603 703.315C917.296 706.431 964.394 723.276 972.817 733.528L972.433 733.414C972.221 733.347 972.009 733.281 971.797 733.215C960.377 731.228 925.856 704.808 915.516 713.514C915.731 717.392 917.433 731.24 913.471 732.963L912.547 732.473C906.246 720.629 925.171 697.166 881.535 722.183C877.439 724.531 873.911 727.108 869.452 728.775C879.432 717.669 897.273 710.345 910.881 703.312C912.82 684.799 910.546 653.167 910.728 633.414Z"/><path fill="#FDFDFD" d="M760.364 778.951C765.58 778.919 771.242 779.292 776.485 779.537C776.599 788.226 777.151 796.902 778.138 805.535C769.196 810.521 762.751 813.142 752.623 813.972C745.502 814.609 741.76 814.104 734.692 813.273C743.193 804.604 752.462 801.497 761.684 792.887C761.457 788.459 760.821 783.409 760.364 778.951Z"/><path fill="#FDFDFD" d="M806.965 376.025C807.461 376.181 808.542 376.428 809.001 376.757C813.432 379.939 825.848 500.53 826.574 514.751C824.645 514.536 824.143 514.606 822.478 513.549C821.584 512.33 821.248 510.98 821.084 509.495C816.897 471.468 811.43 432.769 807.944 394.724C807.38 388.506 807.053 382.269 806.965 376.025Z"/><path fill="#FDFDFD" d="M618.908 773.456L630.519 773.399C634.312 776.076 638.119 780.147 642.133 782.7C651.176 788.452 668.448 793.409 673.695 802.94C659.482 803.85 633.201 795.752 620.057 789.461C619.731 784.122 619.348 778.787 618.908 773.456Z"/><path fill="#FDFDFD" d="M296.386 842.77C306.304 844.697 314.937 844.229 324.879 845.081C329.319 845.461 342.174 847.722 340.39 853.956C339.338 855.097 338.532 855.054 336.984 855.335C320.089 858.194 309.647 858.526 293.181 853.553C294.41 850.219 295.42 846.235 296.386 842.77Z"/><path fill="#FDFDFD" d="M867.355 530.719C870.506 530.464 874.81 530.576 878.062 530.572C877.885 535.986 877.137 540.823 876.306 546.133C869.933 546.136 863.56 546.052 857.19 545.88C854.37 545.624 851.135 545.577 848.268 545.472C847.23 540.921 846.324 536.11 845.385 531.519C852.736 531.462 860.014 531.069 867.355 530.719Z"/><path fill="#FDFDFD" d="M921.603 717.178C928.446 718.89 955.029 730.569 960.205 734.54L960.297 735.476C947.464 735.476 934.372 736.072 921.495 736.284C921.48 729.915 921.516 723.547 921.603 717.178Z"/><path fill="#FDFDFD" d="M561.704 784.958C562.235 788.209 562.411 790.094 562.574 793.389C554.264 797.502 516.37 812.171 509.366 806.759C507.79 801.765 522.152 792.898 525.856 792.675C524.534 794.089 521.737 796.538 520.226 797.935C536.109 798.895 550.551 797.709 561.704 784.958Z"/><path fill="#FDFDFD" d="M849.105 551.002L858.391 550.995C859.319 556.577 861.346 572.207 860.831 577.449C859.632 578.75 860.063 578.341 857.88 578.672C854.031 579.056 850.174 579.358 846.313 579.579C849.19 568.721 848.918 562.253 849.105 551.002Z"/><path fill="#FDFDFD" d="M901.617 717.508C908.682 717.178 906.38 728.946 906.054 733.782C900.692 735.192 894.652 735.713 889.12 736.196C887.107 736.596 886.821 736.437 885.291 735.41C883.734 732.564 884.506 729.519 884.932 726.303C889.022 723.77 897.09 719.873 901.617 717.508Z"/><path fill="#FDFDFD" d="M908.391 737.399C920.437 738.15 925.681 747.522 915.085 755.42C901.707 756.478 899.622 745.966 908.391 737.399Z"/><path fill="#FDFDFD" d="M974.727 736.896C975.134 736.928 975.54 736.967 975.945 737.012C987.533 738.349 987.822 748.727 978.352 754.959C977.887 754.979 977.421 754.993 976.955 754.999C964.592 755.132 967.044 743.38 974.727 736.896Z"/><path fill="#FDFDFD" d="M864.309 551.435L876.098 551.435C875.037 559.679 873.959 567.148 872.092 575.244C871.619 576.602 870.547 578.258 869.22 578.844L868.295 578.441C864.75 574.171 864.605 557.613 864.309 551.435Z"/><path fill="#FDFDFD" d="M867.524 738.06C873.096 737.538 873.74 737.621 877.505 741.741C877.77 749.818 877.792 751.289 870.878 755.704C860.231 754.381 857.61 744.262 867.524 738.06Z"/><path fill="#FDFDFD" fill-opacity="0.0078431377" d="M512.342 349.867C512.687 351.949 510.118 360.679 509.446 363.238C507.657 359.254 510.496 353.46 512.342 349.867Z"/><path fill="#FDFDFD" fill-opacity="0.011764706" d="M711.841 563.626L713.537 570.885C712.127 568.203 711.103 566.029 709.88 563.262L711.841 563.626Z"/><path fill="#ADA6A9" d="M843.523 564.477C843.528 566.289 843.743 567.645 842.889 569.202C842.102 567.843 842.292 567.708 842.156 566.047L842.711 566.266L843.523 564.477Z"/></svg>